<?xml version="1.0" encoding="UTF-8" standalone="no"?>
<!-- Generator: Adobe Illustrator 20.1.0, SVG Export Plug-In . SVG Version: 6.00 Build 0)  -->

<svg
   xmlns:dc="http://purl.org/dc/elements/1.1/"
   xmlns:cc="http://creativecommons.org/ns#"
   xmlns:rdf="http://www.w3.org/1999/02/22-rdf-syntax-ns#"
   xmlns:svg="http://www.w3.org/2000/svg"
   xmlns="http://www.w3.org/2000/svg"
   xmlns:sodipodi="http://sodipodi.sourceforge.net/DTD/sodipodi-0.dtd"
   xmlns:inkscape="http://www.inkscape.org/namespaces/inkscape"
   version="1.1"
   id="Слой_7"
   x="0px"
   y="0px"
   viewBox="0 0 15.1 15.7"
   style="enable-background:new 0 0 15.1 15.7;"
   xml:space="preserve"
   sodipodi:docname="ic_birthday.svg"
   inkscape:version="0.92.3 (d244b95, 2018-08-02)"><metadata
   id="metadata17"><rdf:RDF><cc:Work
       rdf:about=""><dc:format>image/svg+xml</dc:format><dc:type
         rdf:resource="http://purl.org/dc/dcmitype/StillImage" /></cc:Work></rdf:RDF></metadata><defs
   id="defs15" /><sodipodi:namedview
   pagecolor="#ffffff"
   bordercolor="#666666"
   borderopacity="1"
   objecttolerance="10"
   gridtolerance="10"
   guidetolerance="10"
   inkscape:pageopacity="0"
   inkscape:pageshadow="2"
   inkscape:window-width="1855"
   inkscape:window-height="1056"
   id="namedview13"
   showgrid="false"
   inkscape:zoom="15.031847"
   inkscape:cx="3.3237299"
   inkscape:cy="7.8499997"
   inkscape:window-x="1985"
   inkscape:window-y="24"
   inkscape:window-maximized="1"
   inkscape:current-layer="Слой_7" />
<style
   type="text/css"
   id="style2">
	.st0{fill-rule:evenodd;clip-rule:evenodd;fill:#010202;}
</style>
<g
   id="g8"
   style="fill:#c9d3da;fill-opacity:1">
	<g
   id="g6"
   style="fill:#c9d3da;fill-opacity:1">
		<path
   class="st0"
   d="M13.5,3.6h-1c0.3-0.8,0.3-1.9-0.6-2.9c-1.3-1.3-3-0.8-4,0.3C7.6,1.4,7.5,1.5,7.5,1.5S7.3,1.2,7.1,1.1    c-1-1.1-2.7-1.5-4-0.3c-1,0.9-1,2-0.6,2.9H1.5C0.7,3.6,0,4.3,0,5.2v1.3c0,0.7,0.4,1.2,1,1.4v2.1h0v4.7c0,0.5,0.4,0.9,0.9,0.9h11.3    c0.5,0,0.9-0.4,0.9-0.9V9.7H8.8v4.9H6.4V9.7H2.1V8h4.4h2.1h4.6h0.3c0.9,0,1.5-0.7,1.5-1.5V5.2C15.1,4.3,14.4,3.6,13.5,3.6z     M10.8,3.6c-0.3,0.3-3.3,3.3-3.3,3.3S4.7,4.1,4.3,3.7C3.9,3.3,3.5,2.6,4.2,1.9c0.6-0.6,1.4-0.3,1.8,0.2c0,0.1,0.6,0.6,0.8,0.8    C7,3.2,7.2,3.4,7.5,3.4c0.3,0,0.4-0.2,0.6-0.4s0.9-0.9,1-1c0.6-0.6,1.3-0.6,1.8-0.1C11.4,2.5,11.2,3.1,10.8,3.6z"
   id="path4"
   style="fill:#c9d3da;fill-opacity:1" />
	</g>
</g>
<path
   class="st0"
   d="M13,7.6h1.1v2.5H13V7.6z"
   id="path10"
   style="fill:#c9d3da;fill-opacity:1" />
</svg>