<?xml version="1.0" encoding="UTF-8" standalone="no"?>
<!-- Generator: Adobe Illustrator 20.1.0, SVG Export Plug-In . SVG Version: 6.00 Build 0)  -->

<svg
   xmlns:dc="http://purl.org/dc/elements/1.1/"
   xmlns:cc="http://creativecommons.org/ns#"
   xmlns:rdf="http://www.w3.org/1999/02/22-rdf-syntax-ns#"
   xmlns:svg="http://www.w3.org/2000/svg"
   xmlns="http://www.w3.org/2000/svg"
   xmlns:sodipodi="http://sodipodi.sourceforge.net/DTD/sodipodi-0.dtd"
   xmlns:inkscape="http://www.inkscape.org/namespaces/inkscape"
   version="1.1"
   id="Слой_5"
   x="0px"
   y="0px"
   viewBox="0 0 17.2 13.3"
   style="enable-background:new 0 0 17.2 13.3;"
   xml:space="preserve"
   sodipodi:docname="ic_mail.svg"
   inkscape:version="0.92.3 (d244b95, 2018-08-02)"><metadata
   id="metadata15"><rdf:RDF><cc:Work
       rdf:about=""><dc:format>image/svg+xml</dc:format><dc:type
         rdf:resource="http://purl.org/dc/dcmitype/StillImage" /></cc:Work></rdf:RDF></metadata><defs
   id="defs13" /><sodipodi:namedview
   pagecolor="#ffffff"
   bordercolor="#666666"
   borderopacity="1"
   objecttolerance="10"
   gridtolerance="10"
   guidetolerance="10"
   inkscape:pageopacity="0"
   inkscape:pageshadow="2"
   inkscape:window-width="742"
   inkscape:window-height="480"
   id="namedview11"
   showgrid="false"
   inkscape:zoom="17.744361"
   inkscape:cx="8.6000004"
   inkscape:cy="6.6500001"
   inkscape:window-x="2659"
   inkscape:window-y="44"
   inkscape:window-maximized="0"
   inkscape:current-layer="Слой_5" />
<style
   type="text/css"
   id="style2">
	.st0{fill-rule:evenodd;clip-rule:evenodd;fill:#010202;}
</style>
<g
   id="g8"
   style="fill:#c9d3da;fill-opacity:1">
	<g
   id="g6"
   style="fill:#c9d3da;fill-opacity:1">
		<path
   class="st0"
   d="M15.4,0H1.7C0.8,0,0,0.8,0,1.8v9.7c0,1,0.8,1.8,1.7,1.8h13.7c1,0,1.7-0.8,1.7-1.8V1.8C17.2,0.8,16.4,0,15.4,0    z M14.3,1.8L8.6,6.9L2.8,1.8H14.3z M15,11.6H2.1c-0.3,0-0.5-0.2-0.5-0.5V3l7,6.2l7-6.3v8.1C15.6,11.4,15.3,11.6,15,11.6z"
   id="path4"
   style="fill:#c9d3da;fill-opacity:1" />
	</g>
</g>
</svg>