<?xml version="1.0" encoding="UTF-8" standalone="no"?>
<!-- Generator: Adobe Illustrator 20.1.0, SVG Export Plug-In . SVG Version: 6.00 Build 0)  -->

<svg
   xmlns:dc="http://purl.org/dc/elements/1.1/"
   xmlns:cc="http://creativecommons.org/ns#"
   xmlns:rdf="http://www.w3.org/1999/02/22-rdf-syntax-ns#"
   xmlns:svg="http://www.w3.org/2000/svg"
   xmlns="http://www.w3.org/2000/svg"
   xmlns:sodipodi="http://sodipodi.sourceforge.net/DTD/sodipodi-0.dtd"
   xmlns:inkscape="http://www.inkscape.org/namespaces/inkscape"
   version="1.1"
   id="Слой_1"
   x="0px"
   y="0px"
   viewBox="0 0 15.5 16.8"
   style="enable-background:new 0 0 15.5 16.8;"
   xml:space="preserve"
   sodipodi:docname="ic_name.svg"
   inkscape:version="0.92.3 (d244b95, 2018-08-02)"><metadata
   id="metadata11"><rdf:RDF><cc:Work
       rdf:about=""><dc:format>image/svg+xml</dc:format><dc:type
         rdf:resource="http://purl.org/dc/dcmitype/StillImage" /></cc:Work></rdf:RDF></metadata><defs
   id="defs9" /><sodipodi:namedview
   pagecolor="#ffffff"
   bordercolor="#666666"
   borderopacity="1"
   objecttolerance="10"
   gridtolerance="10"
   guidetolerance="10"
   inkscape:pageopacity="0"
   inkscape:pageshadow="2"
   inkscape:window-width="742"
   inkscape:window-height="480"
   id="namedview7"
   showgrid="false"
   inkscape:zoom="14.04762"
   inkscape:cx="7.75"
   inkscape:cy="8.3999996"
   inkscape:window-x="2021"
   inkscape:window-y="531"
   inkscape:window-maximized="0"
   inkscape:current-layer="Слой_1" />
<style
   type="text/css"
   id="style2">
	.st0{fill-rule:evenodd;clip-rule:evenodd;fill:#010202;}
</style>
<path
   class="st0"
   d="M1,16.7c-0.7,0-1-0.6-1-1c0-0.4,0-0.4,0.1-0.9c0.1-1.7,1-2.1,2.7-2.7c0.7-0.2,1.5-0.5,1.5-0.5l1.3,4  c0,0,1.3-1.7,1.5-1.8c-0.2-0.2-0.6-0.9-0.6-1.1c0-0.2,0.3-0.6,0.7-1.2c-1.4-0.7-2.6-1.4-3-3.8c-0.1,0-0.7,0-0.9-0.6S2.9,6.3,2.9,5.9  S3.1,5,3.7,5c-0.1-1.1,0-1.4,0.1-2.1s0.3-2.2,2.7-2.2C6.6,0,7.1,0,7.6,0c1.1,0,4.8,0.9,4,4.9c0.8,0.1,1,0.5,0.9,1  c0,0.4-0.1,0.7-0.3,1.4c-0.2,0.6-0.8,0.4-1,0.4c-0.4,2.8-2.1,3.5-3.1,3.9C8.5,12,9,12.5,9,12.7c0,0.2-0.4,0.9-0.6,1.1  c0.4,0.5,1.5,1.9,1.5,1.9l1.3-4c0,0,0.7,0.2,1.7,0.6c1.5,0.5,2.5,1.3,2.5,2.7c0,0.4,0,0.6,0,0.9c0,0.4-0.4,0.9-1.1,0.9  C13.6,16.8,1.7,16.7,1,16.7z"
   id="path4"
   style="fill:#c9d3da;fill-opacity:1" />
</svg>