<?xml version="1.0" encoding="UTF-8" standalone="no"?>
<!-- Generator: Adobe Illustrator 20.1.0, SVG Export Plug-In . SVG Version: 6.00 Build 0)  -->

<svg
   xmlns:dc="http://purl.org/dc/elements/1.1/"
   xmlns:cc="http://creativecommons.org/ns#"
   xmlns:rdf="http://www.w3.org/1999/02/22-rdf-syntax-ns#"
   xmlns:svg="http://www.w3.org/2000/svg"
   xmlns="http://www.w3.org/2000/svg"
   xmlns:sodipodi="http://sodipodi.sourceforge.net/DTD/sodipodi-0.dtd"
   xmlns:inkscape="http://www.inkscape.org/namespaces/inkscape"
   version="1.1"
   id="Слой_2"
   x="0px"
   y="0px"
   viewBox="0 0 20 18.1"
   style="enable-background:new 0 0 20 18.1;"
   xml:space="preserve"
   sodipodi:docname="ic_position.svg"
   inkscape:version="0.92.3 (d244b95, 2018-08-02)"><metadata
   id="metadata15"><rdf:RDF><cc:Work
       rdf:about=""><dc:format>image/svg+xml</dc:format><dc:type
         rdf:resource="http://purl.org/dc/dcmitype/StillImage" /></cc:Work></rdf:RDF></metadata><defs
   id="defs13" /><sodipodi:namedview
   pagecolor="#ffffff"
   bordercolor="#666666"
   borderopacity="1"
   objecttolerance="10"
   gridtolerance="10"
   guidetolerance="10"
   inkscape:pageopacity="0"
   inkscape:pageshadow="2"
   inkscape:window-width="742"
   inkscape:window-height="480"
   id="namedview11"
   showgrid="false"
   inkscape:zoom="13.038674"
   inkscape:cx="10"
   inkscape:cy="9.0500002"
   inkscape:window-x="2620"
   inkscape:window-y="321"
   inkscape:window-maximized="0"
   inkscape:current-layer="Слой_2" />
<style
   type="text/css"
   id="style2">
	.st0{fill-rule:evenodd;clip-rule:evenodd;fill:#010202;}
</style>
<g
   id="g8"
   style="fill:#c9d3da;fill-opacity:1">
	<g
   id="g6"
   style="fill:#c9d3da;fill-opacity:1">
		<path
   class="st0"
   d="M16.2,11.1h-3.3c-0.3,0-0.6,0.3-0.6,0.6v1c0,0.3,0.3,0.6,0.6,0.6h3.3c0.3,0,0.6-0.3,0.6-0.6v-1    C16.8,11.4,16.5,11.1,16.2,11.1z M16.2,7.7h-3.3c-0.3,0-0.6,0.3-0.6,0.6v1c0,0.3,0.3,0.6,0.6,0.6h3.3c0.3,0,0.6-0.3,0.6-0.6v-1    C16.8,8,16.5,7.7,16.2,7.7z M18,3.2h-3.5C14.2,1.4,12.3,0,10,0C7.7,0,5.9,1.4,5.5,3.2H2c-1.1,0-2,0.9-2,2v10.9c0,1.1,0.9,2,2,2h16    c1.1,0,2-0.9,2-2V5.2C20,4.1,19.1,3.2,18,3.2z M18.1,15.8c0,0.2-0.2,0.4-0.4,0.4H2.3c-0.2,0-0.4-0.2-0.4-0.4V5.5    c0-0.2,0.2-0.4,0.4-0.4h15.4c0.2,0,0.4,0.2,0.4,0.4V15.8z M10.1,12.8c-0.3-0.1-1.9-0.7-1.9-0.7v-0.4c0,0,0.6-0.4,0.7-1.3    c0.1,0,0.4,0,0.5-0.2s0.1-0.5,0.2-0.8C9.5,9,9.3,8.9,9,8.9C9.4,6.7,7.5,6.5,7,6.4c-0.4,0-0.5,0.2-0.5,0.3c-1.2,0-1.4,0.6-1.4,2.2    c-0.3,0-0.5,0.1-0.4,0.4c0,0.2,0.1,0.6,0.2,0.8c0.1,0.2,0.3,0.3,0.4,0.3C5.4,11.1,6,11.7,6,11.7l0,0.5c0,0-1.5,0.5-2,0.7    c-0.5,0.2-0.6,0.8-0.7,1c0,0.2,0,0.3,0,0.4c0,0.2,0.1,0.6,0.6,0.6s6.3,0,6.6,0s0.6-0.2,0.6-0.5c0-0.1,0-0.2,0-0.4    C10.9,13.2,10.4,12.9,10.1,12.8z"
   id="path4"
   style="fill:#c9d3da;fill-opacity:1" />
	</g>
</g>
</svg>