<?xml version="1.0" encoding="UTF-8" standalone="no"?>
<!-- Generator: Adobe Illustrator 20.1.0, SVG Export Plug-In . SVG Version: 6.00 Build 0)  -->

<svg
   xmlns:dc="http://purl.org/dc/elements/1.1/"
   xmlns:cc="http://creativecommons.org/ns#"
   xmlns:rdf="http://www.w3.org/1999/02/22-rdf-syntax-ns#"
   xmlns:svg="http://www.w3.org/2000/svg"
   xmlns="http://www.w3.org/2000/svg"
   xmlns:sodipodi="http://sodipodi.sourceforge.net/DTD/sodipodi-0.dtd"
   xmlns:inkscape="http://www.inkscape.org/namespaces/inkscape"
   version="1.1"
   id="Слой_4"
   x="0px"
   y="0px"
   viewBox="0 0 16.6 15.6"
   style="enable-background:new 0 0 16.6 15.6;"
   xml:space="preserve"
   inkscape:version="0.91 r13725"
   sodipodi:docname="ic_phone.svg"><metadata
     id="metadata11"><rdf:RDF><cc:Work
         rdf:about=""><dc:format>image/svg+xml</dc:format><dc:type
           rdf:resource="http://purl.org/dc/dcmitype/StillImage" /></cc:Work></rdf:RDF></metadata><defs
     id="defs9" /><sodipodi:namedview
     pagecolor="#ffffff"
     bordercolor="#666666"
     borderopacity="1"
     objecttolerance="10"
     gridtolerance="10"
     guidetolerance="10"
     inkscape:pageopacity="0"
     inkscape:pageshadow="2"
     inkscape:window-width="732"
     inkscape:window-height="480"
     id="namedview7"
     showgrid="false"
     inkscape:zoom="15.128205"
     inkscape:cx="8.3000002"
     inkscape:cy="7.8000002"
     inkscape:window-x="2509"
     inkscape:window-y="546"
     inkscape:window-maximized="0"
     inkscape:current-layer="Слой_4" /><style
     type="text/css"
     id="style3">
	.st0{fill-rule:evenodd;clip-rule:evenodd;fill:#010202;}
</style><path
     class="st0"
     d="M0,4.3c-0.1-1.4,2.3-4.1,2.6-4.2s0.7-0.1,0.8,0C3.6,0.2,6,3,6.1,3.3c0.1,0.2,0.2,0.5,0,0.6C6,4,4.7,5.3,4.5,5.5  S4.2,6.1,4.4,6.3c0.1,0.2,1.5,2,2.4,2.8s3,2.2,3.3,2.3c0.3,0.1,0.5,0,0.7-0.2c0.3-0.2,1.1-1.5,1.2-1.7c0.1-0.2,0.5-0.4,0.7-0.3  c0.2,0.1,3.2,2,3.5,2.2c0.3,0.2,0.4,0.5,0.2,0.9c-0.2,0.4-2.3,2.9-3.7,3.1c-1.3,0.2-5.3-1.4-8.1-3.9S0.1,5.7,0,4.3z"
     id="path5"
     style="fill:#c9d3da;fill-opacity:1" /></svg>