<?xml version="1.0" encoding="UTF-8" standalone="no"?>
<!-- Generator: Adobe Illustrator 20.1.0, SVG Export Plug-In . SVG Version: 6.00 Build 0)  -->

<svg
   xmlns:dc="http://purl.org/dc/elements/1.1/"
   xmlns:cc="http://creativecommons.org/ns#"
   xmlns:rdf="http://www.w3.org/1999/02/22-rdf-syntax-ns#"
   xmlns:svg="http://www.w3.org/2000/svg"
   xmlns="http://www.w3.org/2000/svg"
   xmlns:sodipodi="http://sodipodi.sourceforge.net/DTD/sodipodi-0.dtd"
   xmlns:inkscape="http://www.inkscape.org/namespaces/inkscape"
   version="1.1"
   id="Слой_6"
   x="0px"
   y="0px"
   viewBox="0 0 14.7 19.1"
   style="enable-background:new 0 0 14.7 19.1;"
   xml:space="preserve"
   sodipodi:docname="ic_room.svg"
   inkscape:version="0.92.3 (d244b95, 2018-08-02)"><metadata
   id="metadata15"><rdf:RDF><cc:Work
       rdf:about=""><dc:format>image/svg+xml</dc:format><dc:type
         rdf:resource="http://purl.org/dc/dcmitype/StillImage" /></cc:Work></rdf:RDF></metadata><defs
   id="defs13" /><sodipodi:namedview
   pagecolor="#ffffff"
   bordercolor="#666666"
   borderopacity="1"
   objecttolerance="10"
   gridtolerance="10"
   guidetolerance="10"
   inkscape:pageopacity="0"
   inkscape:pageshadow="2"
   inkscape:window-width="742"
   inkscape:window-height="480"
   id="namedview11"
   showgrid="false"
   inkscape:zoom="12.356021"
   inkscape:cx="6.9910565"
   inkscape:cy="9.5500002"
   inkscape:window-x="3098"
   inkscape:window-y="43"
   inkscape:window-maximized="0"
   inkscape:current-layer="Слой_6" />
<style
   type="text/css"
   id="style2">
	.st0{fill-rule:evenodd;clip-rule:evenodd;fill:#010202;}
</style>
<g
   id="g8"
   style="fill:#c9d3da;fill-opacity:1">
	<g
   id="g6"
   style="fill:#c9d3da;fill-opacity:1">
		<path
   class="st0"
   d="M13.9,2.2c-0.4,0-4.9,0-4.9,0s0-0.4,0-1.2S8.5-0.1,7.8,0.1C7.2,0.2,1.2,2,0.7,2.1C0.1,2.3,0,2.6,0,3.1    c0,0.4,0,12.6,0,13c0,0.3,0.2,0.7,0.6,0.8C1,17,7.3,19,7.9,19.1S9,18.8,9,18.3s0-1.4,0-1.4s4.3,0,4.7,0s1-0.1,1-0.9s0-12.4,0-13.1    C14.7,2.3,14.2,2.2,13.9,2.2z M7.3,10.3c-0.3,0-0.5-0.4-0.5-0.8c0-0.5,0.2-0.8,0.5-0.8S7.8,9,7.8,9.5C7.8,9.9,7.6,10.3,7.3,10.3z     M13.1,15.5H9V3.6h4.1V15.5z"
   id="path4"
   style="fill:#c9d3da;fill-opacity:1" />
	</g>
</g>
</svg>