<?xml version="1.0" encoding="UTF-8" standalone="no"?>
<!-- Generator: Adobe Illustrator 20.1.0, SVG Export Plug-In . SVG Version: 6.00 Build 0)  -->

<svg
   xmlns:dc="http://purl.org/dc/elements/1.1/"
   xmlns:cc="http://creativecommons.org/ns#"
   xmlns:rdf="http://www.w3.org/1999/02/22-rdf-syntax-ns#"
   xmlns:svg="http://www.w3.org/2000/svg"
   xmlns="http://www.w3.org/2000/svg"
   xmlns:sodipodi="http://sodipodi.sourceforge.net/DTD/sodipodi-0.dtd"
   xmlns:inkscape="http://www.inkscape.org/namespaces/inkscape"
   version="1.1"
   id="Слой_3"
   x="0px"
   y="0px"
   viewBox="0 0 18.3 17.4"
   style="enable-background:new 0 0 18.3 17.4;"
   xml:space="preserve"
   sodipodi:docname="ic_subdivision.svg"
   inkscape:version="0.92.3 (d244b95, 2018-08-02)"><metadata
   id="metadata15"><rdf:RDF><cc:Work
       rdf:about=""><dc:format>image/svg+xml</dc:format><dc:type
         rdf:resource="http://purl.org/dc/dcmitype/StillImage" /></cc:Work></rdf:RDF></metadata><defs
   id="defs13" /><sodipodi:namedview
   pagecolor="#ffffff"
   bordercolor="#666666"
   borderopacity="1"
   objecttolerance="10"
   gridtolerance="10"
   guidetolerance="10"
   inkscape:pageopacity="0"
   inkscape:pageshadow="2"
   inkscape:window-width="742"
   inkscape:window-height="480"
   id="namedview11"
   showgrid="false"
   inkscape:zoom="13.563219"
   inkscape:cx="9.1499996"
   inkscape:cy="8.6999998"
   inkscape:window-x="3098"
   inkscape:window-y="545"
   inkscape:window-maximized="0"
   inkscape:current-layer="Слой_3" />
<style
   type="text/css"
   id="style2">
	.st0{fill-rule:evenodd;clip-rule:evenodd;fill:#010202;}
</style>
<g
   id="g8"
   style="fill:#c9d3da;fill-opacity:1">
	<g
   id="g6"
   style="fill:#c9d3da;fill-opacity:1">
		<path
   class="st0"
   d="M17.5,12.2h-2.6V8.4c0-0.2-0.2-0.3-0.4-0.3h-0.5c-0.1,0-0.1,0-0.2,0H9.8V5.2h2.6c0.4,0,0.7-0.3,0.7-0.7V0.7    c0-0.4-0.3-0.7-0.7-0.7H5.9C5.5,0,5.1,0.3,5.1,0.7v3.9c0,0.4,0.3,0.7,0.7,0.7h2.7v2.9H4.4c0,0-0.1,0-0.2,0H3.8    c-0.2,0-0.4,0.1-0.4,0.3v3.8H0.7c-0.4,0-0.7,0.3-0.7,0.7v3.9c0,0.4,0.3,0.7,0.7,0.7h6.5c0.4,0,0.7-0.3,0.7-0.7v-3.9    c0-0.4-0.3-0.7-0.7-0.7H4.6v-3h9.1v3H11c-0.4,0-0.7,0.3-0.7,0.7v3.9c0,0.4,0.3,0.7,0.7,0.7h6.5c0.4,0,0.7-0.3,0.7-0.7v-3.9    C18.3,12.5,17.9,12.2,17.5,12.2z"
   id="path4"
   style="fill:#c9d3da;fill-opacity:1" />
	</g>
</g>
</svg>