<?xml version="1.0" encoding="utf-8"?>
<!-- Generator: Adobe Illustrator 20.1.0, SVG Export Plug-In . SVG Version: 6.00 Build 0)  -->
<svg version="1.1" id="Слой_1" xmlns="http://www.w3.org/2000/svg" xmlns:xlink="http://www.w3.org/1999/xlink" x="0px" y="0px"
	 viewBox="0 0 9 13.8" style="enable-background:new 0 0 9 13.8;" xml:space="preserve">
<style type="text/css">
	.st0{fill-rule:evenodd;clip-rule:evenodd;fill:#6F6F6F;}
</style>
<g>
	<g>
		<path class="st0" d="M9,2.8C9,1.2,9,0,9,0H0c0,0,0,1.1,0,2.8c0,1.3,0.3,2,1,2.7c0.9,0.9,1.4,1.4,1.4,1.4S1.9,7.5,1,8.4
			c-0.8,0.7-1,1.4-1,2.7c0,1.6,0,2.8,0,2.8h9c0,0,0-1.1,0-2.8c0-1.6-0.4-2-1.1-2.7C7.1,7.5,6.6,6.9,6.6,6.9S7,6.5,7.9,5.6
			C8.6,4.8,9,4.4,9,2.8z M7.6,2.7C7.6,3.6,7.6,4,7,4.5C6.5,5,6.3,5.2,5.7,5.7C5.3,6.1,5,6.5,5,6.9c0,0.5,0.3,0.7,0.8,1.3
			c0.5,0.5,0.6,0.6,1.1,1.1C7.4,9.8,7.6,10,7.6,11H1.3c0-0.8,0.1-1.1,0.7-1.7c0.4-0.4,0.6-0.7,1.2-1.2C3.8,7.6,4,7.4,4,6.9
			c0-0.4-0.1-0.5-0.6-1C2.8,5.3,2.5,5,2,4.5c-0.7-0.6-0.7-1-0.7-1.8c0-0.8,0-1.4,0-1.4h6.3C7.6,1.4,7.6,1.9,7.6,2.7z"/>
	</g>
</g>
</svg>
