<?xml version="1.0" encoding="utf-8"?>
<!-- Generator: Adobe Illustrator 20.1.0, SVG Export Plug-In . SVG Version: 6.00 Build 0)  -->
<svg version="1.1" id="Слой_1" xmlns="http://www.w3.org/2000/svg" xmlns:xlink="http://www.w3.org/1999/xlink" x="0px" y="0px"
	 viewBox="0 0 61 61" style="enable-background:new 0 0 61 61;" xml:space="preserve">
<style type="text/css">
	.st0{fill:#E7EDF2;}
	.st1{fill:#B8C3CD;}
</style>
<circle class="st0" cx="30.5" cy="30.5" r="30.5"/>
<path class="st1" d="M53.6,50.4c0-0.6,0-1.2,0-1.8c0-1-0.5-1.9-1.5-2.3c-1.5-0.6-3-1.2-4.4-1.8c-2.5-1.1-5-2.2-7.4-3.5
	c-1-0.5-1.9-1.2-2.8-1.9c-0.5-0.4-0.5-1.8-0.1-2.4c0.7-1,1.3-2.1,1.9-3.2c0.5-1,0.9-2,1.5-3c1.2-1.8,1.4-3.7,0.5-5.6
	C41,24.7,41,24.4,41,24.1c0-1.4,0-2.9,0-4.3c-0.2-5-2.7-8.5-7.9-9.5c-0.7-0.1-1.4-0.2-2.2-0.3c-0.3,0-0.5,0-0.8,0
	c-0.6,0.1-1.3,0.1-1.9,0.2c-4.6,0.8-7.5,3.4-8.1,8.1c-0.2,1.9-0.1,3.8-0.2,5.7c0,0.4-0.1,0.8-0.3,1.2c-0.8,1.9-0.5,3.7,0.6,5.4
	c0.3,0.4,0.5,0.8,0.7,1.2c0.7,1.7,1.5,3.4,2.7,4.9c0.5,0.6,0.4,1.8-0.1,2.3c-1.1,1.2-2.5,1.9-4,2.5c-3.2,1.5-6.4,2.9-9.7,4.2
	c-1.3,0.5-2.2,1.3-2.6,2.7c0,0.6,0,1.3,0,1.9c0.7,0.8,1.5,1.6,2.3,2.4c0-0.6,0-1.3,0-1.9c0-0.6,0-1.1,0-1.7
	c-0.1-0.6,0.2-0.9,0.8-1.1c1.6-0.7,3.3-1.3,4.9-2c3-1.3,5.9-2.7,8.7-4.5c1.5-1,2.6-2.2,2.2-4.2c0-0.2,0-0.4,0-0.6
	c-0.1-0.5-0.2-1-0.5-1.3c-1.4-1.5-2.2-3.4-2.8-5.3c-0.1-0.3-0.3-0.6-0.5-0.8c-1.1-1-1.3-2.1-0.6-3.3c0.3-0.4,0.4-1,0.5-1.5
	c0.1-2.1,0-4.1,0.1-6.2c0.2-2.8,2.1-5.1,4.7-5.7c2-0.5,4.1-0.6,6.1-0.2c0.8,0.2,1.7,0.4,2.4,0.8c2.1,1.2,3,3.2,3.1,5.5
	c0.1,1.9,0,3.7,0.1,5.6c0,0.5,0.2,1.1,0.5,1.6c0.6,1,0.6,2-0.3,2.8c-0.5,0.4-0.8,0.9-1,1.5c-0.4,1.7-1.2,3.3-2.3,4.6
	c-0.8,0.8-0.9,1.7-0.9,2.7c0,0.2,0,0.3,0,0.5c-0.1,1,0.4,1.8,1.1,2.4c0.9,0.7,2,1.4,3,2c3.7,2.1,7.7,3.8,11.7,5.4
	c0.6,0.2,0.7,0.5,0.7,1.1c0,1.2,0,2.4,0,3.6C52.1,52,52.8,51.3,53.6,50.4z"/>
</svg>
