<?xml version="1.0" encoding="utf-8"?>
<!-- Generator: Adobe Illustrator 17.1.0, SVG Export Plug-In . SVG Version: 6.00 Build 0)  -->
<!DOCTYPE svg PUBLIC "-//W3C//DTD SVG 1.1//EN" "http://www.w3.org/Graphics/SVG/1.1/DTD/svg11.dtd">
<svg version="1.1" id="Слой_1" xmlns="http://www.w3.org/2000/svg" xmlns:xlink="http://www.w3.org/1999/xlink" x="0px" y="0px"
	 viewBox="0 0 130 30" enable-background="new 0 0 130 30" xml:space="preserve">
<radialGradient id="SVGID_1_" cx="87.7248" cy="7.628" r="89.1436" fx="87.5819" fy="6.9555" gradientTransform="matrix(0.7056 0 0 -0.6768 5 21.5247)" gradientUnits="userSpaceOnUse">
	<stop  offset="0" style="stop-color:#F4F8FA"/>
	<stop  offset="0.9302" style="stop-color:#EDF2F5"/>
	<stop  offset="1" style="stop-color:#ECF1F4"/>
</radialGradient>
<rect x="5" y="0" fill="url(#SVGID_1_)" width="120" height="30"/>
<g>
	<g>
		<linearGradient id="SVGID_2_" gradientUnits="userSpaceOnUse" x1="20.1577" y1="9.5211" x2="34.3066" y2="16.5755">
			<stop  offset="0" style="stop-color:#871722"/>
			<stop  offset="2.292378e-002" style="stop-color:#A01A24"/>
			<stop  offset="5.102381e-002" style="stop-color:#B81D26"/>
			<stop  offset="8.097196e-002" style="stop-color:#C91F28"/>
			<stop  offset="0.1137" style="stop-color:#D32129"/>
			<stop  offset="0.1546" style="stop-color:#D62129"/>
			<stop  offset="0.2912" style="stop-color:#B21F2B"/>
			<stop  offset="0.3705" style="stop-color:#981920"/>
			<stop  offset="0.4639" style="stop-color:#B82429"/>
			<stop  offset="0.6019" style="stop-color:#E22A2A"/>
			<stop  offset="0.6862" style="stop-color:#D42128"/>
			<stop  offset="0.776" style="stop-color:#AB1C23"/>
			<stop  offset="0.8295" style="stop-color:#981920"/>
			<stop  offset="0.8763" style="stop-color:#871722"/>
			<stop  offset="0.9192" style="stop-color:#9F1C24"/>
			<stop  offset="0.9656" style="stop-color:#83171F"/>
			<stop  offset="1" style="stop-color:#7F2631"/>
		</linearGradient>
		<path fill="url(#SVGID_2_)" d="M21.4,11.7c3.4-0.7,6.9,1.6,7.5,5.2c0.2-1.7,0.3-3.3,0.9-5c0,0-0.1,0-0.1-0.1l0,0
			c0,0-1.7-1.6-3.7-2.1c-0.1,0-0.2,0-0.3,0c-1.5-0.2-3.3,0.6-3.9,0.9c-0.6,0.3-1.5,0.9-2,1.3c0,0.1-0.1,0.1,0,0.2
			c0.1,0.1,0.2,0.1,0.3,0v0C20.5,11.9,21,11.8,21.4,11.7z"/>
		<linearGradient id="SVGID_3_" gradientUnits="userSpaceOnUse" x1="27.9533" y1="-2.5784" x2="17.4304" y2="12.4498">
			<stop  offset="0" style="stop-color:#871722"/>
			<stop  offset="0.1077" style="stop-color:#D62129"/>
			<stop  offset="0.244" style="stop-color:#B21F2B"/>
			<stop  offset="0.3452" style="stop-color:#981920"/>
			<stop  offset="0.4529" style="stop-color:#B82429"/>
			<stop  offset="0.5114" style="stop-color:#C82629"/>
			<stop  offset="0.6009" style="stop-color:#DB292A"/>
			<stop  offset="0.6633" style="stop-color:#E22A2A"/>
			<stop  offset="0.7084" style="stop-color:#DC2929"/>
			<stop  offset="0.7683" style="stop-color:#CB2528"/>
			<stop  offset="0.8363" style="stop-color:#B01F25"/>
			<stop  offset="0.8706" style="stop-color:#9F1C24"/>
			<stop  offset="0.9656" style="stop-color:#83171F"/>
			<stop  offset="1" style="stop-color:#7F2631"/>
		</linearGradient>
		<path fill="url(#SVGID_3_)" d="M24,7.8l-2.1,2.1c-1.3,1.3-1.8,1.8-2,2c0.5-0.4,1.4-1,2-1.3c0.6-0.3,2.4-1.1,3.9-0.9
			c0.2-0.3,2.6-2.7,2.7-2.8h0c0.8-0.9,0.7-1.8,0.7-2.6c0-0.3-0.2-0.5-0.5-0.5v0H16.5c0,2.3,1.8,4.1,4.1,4.1H24z"/>
		<defs>
			<filter id="Adobe_OpacityMaskFilter" filterUnits="userSpaceOnUse" x="16.5" y="3.7" width="12.7" height="8.2">
				<feFlood  style="flood-color:white;flood-opacity:1" result="back"/>
				<feBlend  in="SourceGraphic" in2="back" mode="normal"/>
			</filter>
		</defs>
		<mask maskUnits="userSpaceOnUse" x="16.5" y="3.7" width="12.7" height="8.2" id="SVGID_4_">
			<g filter="url(#Adobe_OpacityMaskFilter)">
				<defs>
					<filter id="Adobe_OpacityMaskFilter_1_" filterUnits="userSpaceOnUse" x="16.5" y="3.7" width="12.7" height="8.2">
						<feFlood  style="flood-color:white;flood-opacity:1" result="back"/>
						<feBlend  in="SourceGraphic" in2="back" mode="normal"/>
					</filter>
				</defs>
				<mask maskUnits="userSpaceOnUse" x="16.5" y="3.7" width="12.7" height="8.2" id="SVGID_4_">
					<g filter="url(#Adobe_OpacityMaskFilter_1_)">
					</g>
				</mask>
				<linearGradient id="SVGID_5_" gradientUnits="userSpaceOnUse" x1="24.7107" y1="10.5918" x2="23.7725" y2="7.4394">
					<stop  offset="0" style="stop-color:#FFFFFF"/>
					<stop  offset="6.077123e-002" style="stop-color:#EBEBEB"/>
					<stop  offset="0.3284" style="stop-color:#999999"/>
					<stop  offset="0.5654" style="stop-color:#575757"/>
					<stop  offset="0.7631" style="stop-color:#282828"/>
					<stop  offset="0.9139" style="stop-color:#0B0B0B"/>
					<stop  offset="1" style="stop-color:#000000"/>
				</linearGradient>
				<path mask="url(#SVGID_4_)" fill="url(#SVGID_5_)" d="M24,7.8l-2.1,2.1c-1.3,1.3-1.8,1.8-2,2c0.5-0.4,1.4-1,2-1.3
					c0.6-0.3,2.4-1.1,3.9-0.9c0.2-0.3,2.6-2.7,2.7-2.8h0c0.8-0.9,0.7-1.8,0.7-2.6c0-0.3-0.2-0.5-0.5-0.5v0H16.5
					c0,2.3,1.8,4.1,4.1,4.1H24z"/>
			</g>
		</mask>
		<linearGradient id="SVGID_6_" gradientUnits="userSpaceOnUse" x1="24.7107" y1="10.5918" x2="23.7725" y2="7.4394">
			<stop  offset="0" style="stop-color:#343234"/>
			<stop  offset="0.444" style="stop-color:#3E3E40"/>
			<stop  offset="1" style="stop-color:#47494B"/>
		</linearGradient>
		<path opacity="0.5" fill="url(#SVGID_6_)" d="M24,7.8l-2.1,2.1c-1.3,1.3-1.8,1.8-2,2c0.5-0.4,1.4-1,2-1.3c0.6-0.3,2.4-1.1,3.9-0.9
			c0.2-0.3,2.6-2.7,2.7-2.8h0c0.8-0.9,0.7-1.8,0.7-2.6c0-0.3-0.2-0.5-0.5-0.5v0H16.5c0,2.3,1.8,4.1,4.1,4.1H24z"/>
		<g>
			<path opacity="0.32" fill="#FFFFFF" d="M28.3,6.9L28.3,6.9L28.3,6.9c0.5-0.6,0.8-1.2,0.8-2V4.3c0-0.3-0.3-0.6-0.6-0.6l-6.1,0
				l-6.1,0c0,0.7,0.2,1.4,0.5,2c0.3,0.6,0.8,1.1,1.4,1.5c0,0,0,0,0.1,0c0.6,0.4,1.3,0.6,2.1,0.6h2.9c0.3,0,0.7,0,1-0.1l3.4-0.5
				C28,7.2,28.2,7.1,28.3,6.9L28.3,6.9z"/>
			<g opacity="0.9922">
				<path opacity="0.3333" fill="#FAFAFA" d="M16.5,3.7c0,0.1,0,0.1,0,0.2c0,0.7,0.2,1.3,0.5,1.8c0.3,0.6,0.8,1.1,1.4,1.4
					c0,0,0,0,0.1,0c0.4,0.3,0.9,0.4,1.4,0.5c0.2,0,0.4,0,0.6,0c0,0,2.9,0,2.9,0c0.3-0.1,0.7,0,1-0.1c0,0,2.7-0.4,2.7-0.4
					c0,0,0.6-0.1,0.6-0.1c0.2,0,0.4-0.1,0.5-0.3l0,0c0,0,0.1-0.1,0.1-0.1c0,0,0,0,0,0c0.4-0.5,0.7-1.1,0.7-1.8c0,0,0-0.7,0-0.7
					c0-0.3-0.2-0.5-0.5-0.6c0,0,0,0,0,0c0,0,0,0,0,0l-6,0l-3,0L16.5,3.7z"/>
			</g>
			<g opacity="0.9843">
				<path opacity="0.3467" fill="#F5F5F5" d="M16.5,3.7c0,0.1,0,0.1,0,0.2c0,0.6,0.2,1.2,0.5,1.8c0.3,0.6,0.8,1.1,1.4,1.4
					c0,0,0,0,0.1,0c0.4,0.3,0.9,0.4,1.4,0.5c0.2,0,0.4,0,0.6,0c0,0,2.9,0,2.9,0c0.3-0.1,0.7,0,1-0.1c0,0,2.7-0.4,2.7-0.4
					c0,0,0.6-0.1,0.6-0.1c0.2,0,0.4-0.1,0.5-0.2l0,0c0,0,0.1-0.1,0.1-0.1c0,0,0,0,0,0c0.4-0.5,0.7-1.1,0.7-1.8c0,0,0-0.7,0-0.7
					c0-0.3-0.2-0.5-0.5-0.6c0,0,0,0,0,0c0,0,0,0,0,0l-6,0l-3,0L16.5,3.7z"/>
			</g>
			<g opacity="0.9765">
				<path opacity="0.36" fill="#F0F0F0" d="M16.6,3.7c0,0.1,0,0.1,0,0.2c0,0.6,0.2,1.2,0.5,1.8c0.3,0.6,0.8,1.1,1.4,1.4
					c0,0,0,0,0.1,0C19,7.3,19.4,7.5,20,7.6c0.2,0,0.4,0,0.6,0c0,0,2.8,0,2.9,0c0.3-0.1,0.7,0,1-0.1c0,0,2.7-0.4,2.7-0.4
					c0,0,0.6-0.1,0.6-0.1c0.2,0,0.4-0.1,0.5-0.2l0,0c0,0,0.1-0.1,0.1-0.1c0,0,0,0,0,0C28.7,6.2,29,5.6,29,4.9c0,0,0-0.7,0-0.7
					c0-0.3-0.2-0.5-0.4-0.5c0,0,0,0,0,0c0,0,0,0,0,0l-6,0l-3,0L16.6,3.7z"/>
			</g>
			<g opacity="0.9686">
				<path opacity="0.3733" fill="#EBEBEB" d="M16.6,3.7c0,0.1,0,0.1,0,0.2c0,0.6,0.2,1.2,0.5,1.7c0.3,0.6,0.8,1,1.3,1.4
					c0,0,0,0,0.1,0C19,7.3,19.5,7.4,20,7.5c0.2,0,0.4,0,0.6,0c0.1,0,2.8,0,2.9,0c0.3-0.1,0.7,0,1-0.1c0,0,2.6-0.4,2.7-0.4
					c0,0,0.6-0.1,0.6-0.1c0.2,0,0.3-0.1,0.5-0.2l0,0c0,0,0.1-0.1,0.1-0.1c0,0,0,0,0,0c0.4-0.5,0.7-1.1,0.7-1.7c0,0,0-0.7,0-0.7
					c0-0.3-0.2-0.5-0.4-0.5c0,0,0,0,0,0c0,0,0,0,0,0l-5.9,0l-3,0L16.6,3.7z"/>
			</g>
			<g opacity="0.9608">
				<path opacity="0.3867" fill="#E6E6E6" d="M16.6,3.7c0,0.1,0,0.1,0,0.2c0,0.6,0.2,1.2,0.5,1.7c0.3,0.6,0.8,1,1.3,1.4
					c0,0,0,0,0.1,0C19,7.2,19.5,7.4,20,7.5c0.2,0,0.4,0,0.6,0c0.1,0,2.8,0,2.9,0c0.3-0.1,0.7,0,1-0.1c0,0,2.6-0.4,2.6-0.4
					c0,0,0.5-0.1,0.6-0.1c0.2,0,0.3-0.1,0.5-0.2l0,0c0,0,0.1-0.1,0.1-0.1c0,0,0,0,0,0c0.4-0.5,0.7-1,0.7-1.7c0,0,0-0.7,0-0.7
					c0-0.3-0.2-0.5-0.4-0.5c0,0,0,0,0,0c0,0,0,0,0,0l-5.9,0l-3,0L16.6,3.7z"/>
			</g>
			<g opacity="0.9529">
				<path opacity="0.4" fill="#E1E1E1" d="M16.7,3.7c0,0.1,0,0.1,0,0.2c0,0.6,0.2,1.2,0.5,1.7c0.3,0.5,0.8,1,1.3,1.3c0,0,0,0,0.1,0
					C19,7.2,19.5,7.3,20,7.4c0.2,0,0.4,0,0.6,0c0.1,0,2.7,0,2.9-0.1c0.3-0.1,0.6,0,1-0.1c0,0,2.5-0.4,2.6-0.4c0,0,0.5-0.1,0.5-0.1
					c0.2,0,0.3-0.1,0.5-0.2l0,0c0,0,0.1-0.1,0.1-0.1c0,0,0,0,0,0c0.4-0.4,0.7-1,0.7-1.7c0,0,0-0.6,0-0.7c0-0.3-0.2-0.5-0.4-0.5
					c0,0,0,0,0,0c0,0,0,0,0,0l-5.9,0l-3,0L16.7,3.7z"/>
			</g>
			<g opacity="0.9451">
				<path opacity="0.4133" fill="#DCDCDC" d="M16.7,3.7c0,0.1,0,0.1,0,0.2c0,0.6,0.2,1.2,0.5,1.7c0.3,0.5,0.8,1,1.3,1.3
					c0,0,0,0,0.1,0C19,7.1,19.5,7.3,20,7.4c0.2,0,0.4,0,0.6,0c0.1,0,2.7,0,2.8-0.1c0.3-0.1,0.6,0,0.9-0.1c0,0,2.5-0.4,2.6-0.4
					c0,0,0.5-0.1,0.5-0.1c0.2,0,0.3-0.1,0.5-0.2l0,0c0,0,0.1-0.1,0.1-0.1c0,0,0,0,0,0c0.4-0.4,0.7-1,0.7-1.6c0,0,0-0.6,0-0.6
					c0-0.3-0.2-0.5-0.4-0.5c0,0,0,0,0,0c0,0,0,0,0,0l-5.8,0l-2.9,0L16.7,3.7z"/>
			</g>
			<g opacity="0.9373">
				<path opacity="0.4267" fill="#D7D7D7" d="M16.8,3.7c0,0.1,0,0.1,0,0.2C16.8,4.4,17,5,17.3,5.5c0.3,0.5,0.8,1,1.3,1.3
					c0,0,0,0,0.1,0c0.4,0.3,0.9,0.4,1.4,0.5c0.2,0,0.4,0,0.6,0c0.1,0,2.7,0,2.8-0.1c0.3-0.1,0.6,0,0.9-0.1c0.1,0,2.5-0.4,2.5-0.4
					c0,0,0.5-0.1,0.5-0.1c0.2,0,0.3-0.1,0.5-0.2l0,0c0,0,0.1-0.1,0.1-0.1c0,0,0,0,0,0c0.4-0.4,0.7-1,0.8-1.6c0,0,0-0.6,0.1-0.6
					c0-0.3-0.1-0.5-0.4-0.5c0,0,0,0,0,0c0,0,0,0,0,0l-5.8,0l-2.9,0L16.8,3.7z"/>
			</g>
			<g opacity="0.9294">
				<path opacity="0.44" fill="#D2D2D2" d="M16.8,3.7c0,0.1,0,0.1,0,0.2C16.9,4.4,17,5,17.3,5.5c0.3,0.5,0.7,1,1.3,1.3
					c0,0,0,0,0.1,0c0.4,0.3,0.9,0.4,1.4,0.5c0.2,0,0.4,0,0.6,0c0.1,0,2.7-0.1,2.8-0.1c0.3-0.1,0.6,0,0.9-0.1c0.1,0,2.4-0.4,2.5-0.4
					c0,0,0.5-0.1,0.5-0.1c0.2,0,0.3-0.1,0.5-0.2l0,0c0,0,0.1-0.1,0.1-0.1c0,0,0,0,0,0c0.4-0.4,0.7-1,0.8-1.6c0,0,0-0.6,0.1-0.6
					c0-0.2-0.1-0.4-0.3-0.5c0,0,0,0,0,0c0,0,0,0,0,0l-5.7,0l-2.9,0L16.8,3.7z"/>
			</g>
			<g opacity="0.9216">
				<path opacity="0.4533" fill="#CDCDCD" d="M16.8,3.7c0,0.1,0,0.1,0,0.2c0.1,0.6,0.2,1.1,0.5,1.6c0.3,0.5,0.7,0.9,1.2,1.3
					c0,0,0,0,0.1,0c0.4,0.3,0.9,0.4,1.4,0.5c0.2,0,0.4,0,0.6,0c0.1,0,2.6-0.1,2.8-0.1c0.3-0.1,0.6,0,0.9-0.1c0.1,0,2.4-0.4,2.5-0.4
					c0,0,0.5-0.1,0.5-0.1c0.2,0,0.3-0.1,0.4-0.2l0,0c0,0,0.1-0.1,0.1-0.1c0,0,0,0,0,0c0.4-0.4,0.7-1,0.8-1.5c0,0,0-0.6,0.1-0.6
					c0-0.2-0.1-0.4-0.3-0.5c0,0,0,0,0,0c0,0,0,0,0,0l-5.7,0l-2.9,0L16.8,3.7z"/>
			</g>
			<g opacity="0.9137">
				<path opacity="0.4667" fill="#C8C8C8" d="M16.9,3.7c0,0.1,0,0.1,0,0.2c0.1,0.6,0.2,1.1,0.5,1.6c0.3,0.5,0.7,0.9,1.2,1.2
					c0,0,0,0,0.1,0c0.4,0.3,0.9,0.4,1.4,0.5c0.2,0,0.4,0,0.6,0c0.2,0,2.6-0.1,2.8-0.1c0.3-0.1,0.6,0,0.9-0.1c0.1,0,2.3-0.4,2.4-0.4
					c0,0,0.5-0.1,0.5-0.1c0.2,0,0.3-0.1,0.4-0.2l0,0c0,0,0.1-0.1,0.1-0.1c0,0,0,0,0,0c0.4-0.4,0.7-0.9,0.8-1.5c0,0,0-0.6,0.1-0.6
					c0-0.2-0.1-0.4-0.3-0.5c0,0,0,0,0,0c0,0,0,0,0,0l-5.7,0l-2.9,0L16.9,3.7z"/>
			</g>
			<g opacity="0.9059">
				<path opacity="0.48" fill="#C3C3C3" d="M16.9,3.7c0,0.1,0,0.1,0,0.2c0.1,0.6,0.2,1.1,0.5,1.5c0.3,0.5,0.7,0.9,1.2,1.2
					c0,0,0,0,0.1,0c0.4,0.2,0.9,0.4,1.4,0.5c0.2,0,0.4,0,0.6,0c0.2,0,2.6-0.1,2.8-0.1c0.3-0.1,0.6,0,0.9-0.1c0.1,0,2.3-0.4,2.4-0.4
					c0,0,0.5-0.1,0.5-0.1c0.2,0,0.3-0.1,0.4-0.2l0,0c0,0,0.1-0.1,0.1-0.1c0,0,0,0,0,0c0.4-0.4,0.7-0.9,0.8-1.5c0,0,0.1-0.6,0.1-0.6
					c0-0.2-0.1-0.4-0.3-0.4c0,0,0,0,0,0c0,0,0,0,0,0l-5.6,0l-2.9,0L16.9,3.7z"/>
			</g>
			<g opacity="0.898">
				<path opacity="0.4933" fill="#BEBEBE" d="M16.9,3.7c0,0.1,0,0.1,0,0.2c0.1,0.6,0.2,1.1,0.5,1.5c0.3,0.5,0.7,0.9,1.2,1.2
					c0,0,0,0,0.1,0c0.4,0.2,0.9,0.4,1.4,0.5c0.2,0,0.4,0,0.6,0c0.2,0,2.6-0.1,2.8-0.1c0.3-0.1,0.6,0,0.9-0.1c0.1,0,2.3-0.4,2.4-0.4
					c0,0,0.5-0.1,0.5-0.1c0.2,0,0.3-0.1,0.4-0.2l0,0c0,0,0.1-0.1,0.1-0.1c0,0,0,0,0,0c0.4-0.4,0.7-0.9,0.8-1.4c0,0,0.1-0.6,0.1-0.6
					c0-0.2-0.1-0.4-0.3-0.4c0,0,0,0,0,0c0,0,0,0,0,0l-5.6,0l-2.9,0L16.9,3.7z"/>
			</g>
			<g opacity="0.8902">
				<path opacity="0.5067" fill="#B9B9B9" d="M17,3.7c0,0.1,0,0.1,0,0.2c0.1,0.5,0.3,1,0.5,1.5c0.3,0.5,0.7,0.9,1.2,1.2
					c0,0,0,0,0.1,0C19.2,6.8,19.7,7,20.2,7c0.2,0,0.4,0,0.6,0C21,7.1,23.3,7,23.5,7c0.3-0.1,0.6,0,0.9-0.1c0.1,0,2.2-0.4,2.3-0.4
					c0,0,0.5-0.1,0.5-0.1c0.2,0,0.3-0.1,0.4-0.2l0,0c0,0,0.1-0.1,0.1-0.1c0,0,0,0,0,0c0.4-0.4,0.7-0.9,0.8-1.4c0,0,0.1-0.5,0.1-0.5
					c0-0.2-0.1-0.4-0.3-0.4c0,0,0,0,0,0c0,0,0,0,0,0l-5.6,0l-2.9,0L17,3.7z"/>
			</g>
			<g opacity="0.8824">
				<path opacity="0.52" fill="#B4B4B4" d="M17.1,3.7c0,0.1,0,0.1,0,0.2c0.1,0.5,0.3,1,0.5,1.5c0.3,0.5,0.7,0.9,1.2,1.2
					c0,0,0,0,0.1,0c0.4,0.2,0.9,0.4,1.4,0.5c0.2,0,0.4,0,0.6,0C21,7,23.3,7,23.5,6.9c0.3-0.1,0.6,0,0.8-0.1c0.1,0,2.2-0.4,2.3-0.4
					c0,0,0.5-0.1,0.5-0.1c0.2,0,0.3-0.1,0.4-0.2l0,0c0,0,0.1-0.1,0.1-0.1c0,0,0,0,0,0c0.4-0.4,0.7-0.9,0.8-1.4c0,0,0.1-0.5,0.1-0.5
					c0-0.2-0.1-0.4-0.2-0.4c0,0,0,0,0,0c0,0,0,0,0,0l-5.5,0l-2.8,0L17.1,3.7z"/>
			</g>
			<g opacity="0.8745">
				<path opacity="0.5333" fill="#AFAFAF" d="M17.1,3.7c0,0.1,0,0.1,0,0.1c0.1,0.5,0.3,1,0.5,1.4c0.3,0.5,0.7,0.9,1.1,1.1
					c0,0,0,0,0.1,0c0.4,0.2,0.9,0.4,1.4,0.5c0.2,0,0.4,0,0.6,0c0.2,0,2.5-0.1,2.8-0.1c0.3-0.1,0.6,0,0.8-0.1c0.1,0,2.1-0.4,2.3-0.4
					c0,0,0.5-0.1,0.5-0.1c0.2,0,0.3-0.1,0.4-0.2l0,0c0,0,0.1-0.1,0.1-0.1c0,0,0,0,0,0c0.4-0.4,0.7-0.8,0.8-1.3c0,0,0.1-0.5,0.1-0.5
					c0-0.2-0.1-0.4-0.2-0.4c0,0,0,0,0,0c0,0,0,0,0,0l-5.5,0l-2.8,0L17.1,3.7z"/>
			</g>
			<g opacity="0.8667">
				<path opacity="0.5467" fill="#AAAAAA" d="M17.1,3.7c0,0,0,0.1,0,0.1c0.1,0.5,0.3,1,0.5,1.4c0.3,0.5,0.7,0.8,1.1,1.1
					c0,0,0,0,0.1,0c0.4,0.2,0.9,0.4,1.4,0.5c0.2,0,0.4,0,0.6,0c0.3,0,2.5-0.1,2.7-0.1c0.3-0.1,0.5,0,0.8-0.1c0.1,0,2.1-0.4,2.3-0.4
					c0,0,0.4-0.1,0.5-0.1c0.2,0,0.3-0.1,0.4-0.2l0,0c0,0,0.1-0.1,0.1-0.1c0,0,0,0,0,0c0.4-0.4,0.7-0.8,0.8-1.3c0,0,0.1-0.5,0.1-0.5
					c0-0.2-0.1-0.4-0.2-0.4c0,0,0,0,0,0c0,0,0,0,0,0l-5.5,0l-2.8,0L17.1,3.7z"/>
			</g>
			<g opacity="0.8588">
				<path opacity="0.56" fill="#A5A5A5" d="M17.2,3.7c0,0,0,0.1,0,0.1c0.1,0.5,0.3,1,0.5,1.4C18,5.7,18.4,6,18.8,6.3c0,0,0,0,0.1,0
					c0.4,0.2,0.9,0.4,1.4,0.5c0.2,0,0.4,0,0.6,0c0.3,0,2.4-0.1,2.7-0.2c0.3-0.1,0.5,0,0.8-0.1c0.1,0,2.1-0.4,2.2-0.4
					c0,0,0.4-0.1,0.5-0.1c0.1,0,0.3-0.1,0.4-0.2l0,0c0,0,0.1-0.1,0.1-0.1c0,0,0,0,0,0c0.4-0.3,0.7-0.8,0.8-1.3c0,0,0.1-0.5,0.1-0.5
					c0-0.2,0-0.4-0.2-0.4c0,0,0,0,0,0c0,0,0,0,0,0l-5.4,0l-2.8,0L17.2,3.7z"/>
			</g>
			<g opacity="0.851">
				<path opacity="0.5733" fill="#A0A0A0" d="M17.2,3.7c0,0,0,0.1,0,0.1c0.1,0.5,0.3,1,0.5,1.4C18,5.6,18.4,6,18.9,6.3
					c0,0,0,0,0.1,0c0.4,0.2,0.9,0.4,1.4,0.5c0.2,0,0.4,0,0.6,0c0.3,0,2.4-0.1,2.7-0.2c0.3-0.1,0.5,0,0.8-0.1c0.1,0,2-0.4,2.2-0.4
					c0,0,0.4-0.1,0.5-0.1c0.1,0,0.3-0.1,0.4-0.2l0,0c0,0,0.1-0.1,0.1-0.1c0,0,0,0,0,0c0.4-0.3,0.7-0.8,0.8-1.3c0,0,0.1-0.5,0.1-0.5
					c0-0.2,0-0.3-0.2-0.4c0,0,0,0,0,0c0,0,0,0,0,0l-5.4,0l-2.8,0L17.2,3.7z"/>
			</g>
			<g opacity="0.8431">
				<path opacity="0.5867" fill="#9B9B9B" d="M17.3,3.7c0,0,0,0.1,0,0.1c0.1,0.5,0.3,0.9,0.5,1.3c0.3,0.4,0.6,0.8,1.1,1.1
					c0,0,0,0,0.1,0c0.4,0.2,0.9,0.4,1.3,0.5c0.2,0,0.4,0,0.6,0c0.3,0,2.4-0.1,2.7-0.2c0.2-0.1,0.5,0,0.8-0.1c0.1,0,2-0.4,2.2-0.4
					c0,0,0.4-0.1,0.5-0.1c0.1,0,0.3-0.1,0.4-0.2l0,0c0,0,0.1-0.1,0.1-0.1c0,0,0,0,0,0c0.4-0.3,0.7-0.8,0.8-1.2c0,0,0.1-0.5,0.1-0.5
					c0.1-0.2,0-0.3-0.2-0.4c0,0,0,0,0,0c0,0,0,0,0,0l-5.4,0l-2.8,0L17.3,3.7z"/>
			</g>
			<g opacity="0.8353">
				<path opacity="0.6" fill="#969696" d="M17.3,3.7c0,0,0,0.1,0,0.1c0.1,0.5,0.3,0.9,0.5,1.3c0.3,0.4,0.6,0.8,1.1,1c0,0,0,0,0.1,0
					c0.4,0.2,0.9,0.4,1.3,0.5c0.2,0,0.4,0,0.6,0c0.3,0,2.3-0.1,2.7-0.2c0.2-0.1,0.5,0,0.8-0.1c0.1,0,1.9-0.4,2.1-0.4
					c0,0,0.4-0.1,0.4-0.1c0.1,0,0.3-0.1,0.4-0.2l0,0c0,0,0.1-0.1,0.1-0.1c0,0,0,0,0,0c0.4-0.3,0.7-0.7,0.8-1.2c0,0,0.1-0.4,0.1-0.5
					c0.1-0.2,0-0.3-0.1-0.4c0,0,0,0,0,0c0,0,0,0,0,0l-5.3,0l-2.8,0L17.3,3.7z"/>
			</g>
			<g opacity="0.8275">
				<path opacity="0.6133" fill="#919191" d="M17.3,3.7c0,0,0,0.1,0,0.1c0.1,0.5,0.3,0.9,0.5,1.3c0.3,0.4,0.6,0.8,1,1c0,0,0,0,0.1,0
					c0.4,0.2,0.9,0.4,1.3,0.5c0.2,0,0.4,0,0.6,0c0.3,0,2.3-0.1,2.7-0.2c0.2-0.1,0.5,0,0.8-0.1c0.1,0,1.9-0.4,2.1-0.4
					c0,0,0.4-0.1,0.4-0.1c0.1,0,0.3-0.1,0.4-0.2l0,0c0,0,0.1-0.1,0.1-0.1c0,0,0,0,0,0c0.4-0.3,0.7-0.7,0.8-1.2c0,0,0.1-0.4,0.1-0.4
					c0.1-0.2,0-0.3-0.1-0.3c0,0,0,0,0,0c0,0,0,0,0,0l-5.3,0l-2.8,0L17.3,3.7z"/>
			</g>
			<g opacity="0.8196">
				<path opacity="0.6267" fill="#8C8C8C" d="M17.4,3.7c0,0,0,0.1,0,0.1c0.1,0.5,0.3,0.9,0.5,1.3c0.3,0.4,0.6,0.7,1,1c0,0,0,0,0.1,0
					c0.4,0.2,0.9,0.4,1.3,0.5c0.2,0,0.4,0,0.6,0c0.3,0,2.3-0.1,2.7-0.2c0.2-0.1,0.5,0,0.8-0.1c0.2,0,1.9-0.4,2.1-0.4
					c0,0,0.4-0.1,0.4-0.1c0.1,0,0.3-0.1,0.4-0.2l0,0c0,0,0.1-0.1,0.1-0.1c0,0,0,0,0,0c0.4-0.3,0.7-0.7,0.8-1.1
					c0.1,0,0.1-0.4,0.2-0.4c0.1-0.2,0-0.3-0.1-0.3c0,0,0,0,0,0c0,0,0,0,0,0l-5.3,0l-2.8,0L17.4,3.7z"/>
			</g>
			<g opacity="0.8118">
				<path opacity="0.64" fill="#878787" d="M17.4,3.7c0,0,0,0.1,0,0.1c0.1,0.5,0.3,0.9,0.5,1.2c0.3,0.4,0.6,0.7,1,1c0,0,0,0,0.1,0
					c0.4,0.2,0.9,0.4,1.3,0.5c0.2,0,0.4,0,0.6,0c0.4,0,2.3-0.1,2.7-0.2c0.2-0.1,0.5,0,0.7-0.1c0.2,0,1.8-0.4,2-0.4
					c0,0,0.4-0.1,0.4-0.1c0.1,0,0.3-0.1,0.4-0.2l0,0c0,0,0.1-0.1,0.1-0.1c0,0,0,0,0,0c0.4-0.3,0.7-0.7,0.8-1.1
					c0.1,0,0.1-0.4,0.2-0.4c0.1-0.2,0-0.3-0.1-0.3c0,0,0,0,0,0c0,0,0,0,0,0l-5.2,0l-2.7,0L17.4,3.7z"/>
			</g>
			<g opacity="0.8039">
				<path opacity="0.6533" fill="#828282" d="M17.4,3.7c0,0,0,0.1,0,0.1C17.6,4.3,17.7,4.7,18,5c0.3,0.4,0.6,0.7,1,1c0,0,0,0,0.1,0
					c0.4,0.2,0.9,0.4,1.3,0.5c0.2,0,0.4,0,0.6,0c0.4,0,2.2-0.1,2.7-0.2c0.2-0.1,0.5,0,0.7-0.1c0.2-0.1,1.8-0.3,2-0.4
					c0,0,0.4-0.1,0.4-0.1c0.1,0,0.3-0.1,0.4-0.2l0,0c0,0,0.1-0.1,0.1-0.1c0,0,0,0,0,0c0.4-0.3,0.7-0.7,0.8-1.1
					c0.1,0,0.1-0.4,0.2-0.4c0.1-0.2,0-0.3-0.1-0.3c0,0,0,0,0,0c0,0,0,0,0,0l-5.2,0l-2.7,0L17.4,3.7z"/>
			</g>
			<g opacity="0.7961">
				<path opacity="0.6667" fill="#7E7E7E" d="M17.5,3.7c0,0,0,0.1,0,0.1C17.6,4.3,17.8,4.7,18,5c0.3,0.4,0.6,0.7,1,0.9
					c0,0,0,0,0.1,0c0.4,0.2,0.9,0.4,1.3,0.5c0.2,0,0.4,0,0.6,0c0.4,0,2.2-0.1,2.6-0.2c0.2-0.1,0.5,0,0.7-0.1c0.2-0.1,1.7-0.3,2-0.4
					c0,0,0.4-0.1,0.4-0.1c0.1,0,0.3-0.1,0.4-0.2l0,0c0,0,0.1-0.1,0.1-0.1c0,0,0,0,0,0c0.4-0.3,0.7-0.6,0.8-1C28,4.4,28.1,4,28.2,4
					c0.1-0.2,0-0.3,0-0.3c0,0,0,0,0,0c0,0,0,0,0,0l-5.2,0l-2.7,0L17.5,3.7z"/>
			</g>
			<g opacity="0.7882">
				<path opacity="0.68" fill="#797979" d="M17.5,3.7c0,0,0,0.1,0,0.1c0.1,0.4,0.3,0.8,0.5,1.2c0.3,0.4,0.6,0.7,1,0.9c0,0,0,0,0.1,0
					c0.4,0.2,0.8,0.4,1.3,0.5c0.2,0,0.4,0,0.6,0c0.4,0,2.2-0.1,2.6-0.2c0.2-0.1,0.5,0,0.7-0.1c0.2-0.1,1.7-0.3,1.9-0.4
					c0,0,0.4-0.1,0.4-0.1c0.1,0,0.3-0.1,0.4-0.2l0,0c0,0,0.1-0.1,0.1-0.1c0,0,0,0,0,0c0.4-0.3,0.7-0.6,0.8-1C28,4.4,28.1,4,28.1,4
					c0.1-0.1,0-0.3,0-0.3c0,0,0,0,0,0c0,0,0,0,0,0l-5.1,0l-2.7,0L17.5,3.7z"/>
			</g>
			<g opacity="0.7804">
				<path opacity="0.6933" fill="#747474" d="M17.6,3.7c0,0,0,0.1,0,0.1c0.1,0.4,0.3,0.8,0.5,1.2c0.3,0.4,0.6,0.7,0.9,0.9
					c0,0,0,0,0.1,0c0.4,0.2,0.8,0.4,1.3,0.5c0.2,0,0.4,0,0.6,0c0.4,0,2.2-0.1,2.6-0.2c0.2-0.1,0.5,0,0.7-0.1C24.5,6,26,5.7,26.2,5.6
					c0,0,0.4-0.1,0.4-0.1c0.1,0,0.3-0.1,0.4-0.2l0,0c0,0,0.1,0,0.1-0.1c0,0,0,0,0,0c0.4-0.3,0.7-0.6,0.8-1C28,4.3,28,4,28.1,4
					c0.1-0.1,0-0.3,0-0.3c0,0,0,0,0,0c0,0,0,0,0,0l-5.1,0l-2.7,0L17.6,3.7z"/>
			</g>
			<g opacity="0.7725">
				<path opacity="0.7067" fill="#6F6F6F" d="M17.6,3.7c0,0,0,0.1,0,0.1c0.1,0.4,0.3,0.8,0.5,1.1c0.3,0.4,0.6,0.7,0.9,0.9
					c0,0,0,0,0.1,0c0.4,0.2,0.8,0.4,1.3,0.5c0.2,0,0.4,0,0.6,0c0.4,0,2.1-0.1,2.6-0.3c0.2,0,0.4-0.1,0.7-0.1
					c0.2-0.1,1.6-0.3,1.9-0.4c0,0,0.3-0.1,0.4-0.1c0.1,0,0.3-0.1,0.4-0.2l0,0c0,0,0.1,0,0.1-0.1c0,0,0,0,0,0
					c0.4-0.3,0.7-0.6,0.8-0.9C27.9,4.3,28,4,28,4c0.1-0.1,0.1-0.3,0-0.3c0,0,0,0,0,0c0,0,0,0,0,0l-5.1,0l-2.7,0L17.6,3.7z"/>
			</g>
			<g opacity="0.7647">
				<path opacity="0.72" fill="#6A6A6A" d="M17.6,3.7c0,0,0,0.1,0,0.1c0.1,0.4,0.3,0.8,0.5,1.1c0.2,0.3,0.6,0.6,0.9,0.9
					c0,0,0,0,0.1,0C19.6,6,20,6.2,20.5,6.3c0.2,0,0.4,0,0.5,0c0.4,0,2.1-0.1,2.6-0.3c0.2,0,0.4-0.1,0.7-0.1c0.2-0.1,1.6-0.3,1.9-0.4
					c0,0,0.3-0.1,0.4-0.1c0.1,0,0.2-0.1,0.4-0.2l0,0c0,0,0.1,0,0.1-0.1c0,0,0,0,0,0c0.4-0.3,0.7-0.6,0.8-0.9C27.9,4.3,27.9,4,28,4
					c0.1-0.1,0.1-0.2,0-0.3c0,0,0,0,0,0c0,0,0,0,0,0l-5,0l-2.7,0L17.6,3.7z"/>
			</g>
			<g opacity="0.7569">
				<path opacity="0.7333" fill="#656565" d="M17.7,3.7c0,0,0,0.1,0,0.1c0.1,0.4,0.3,0.8,0.5,1.1c0.2,0.3,0.6,0.6,0.9,0.8
					c0,0,0,0,0.1,0C19.6,6,20,6.2,20.5,6.2c0.2,0,0.4,0,0.5,0c0.5,0,2.1-0.1,2.6-0.3c0.2,0,0.4-0.1,0.7-0.1c0.2-0.1,1.5-0.3,1.8-0.4
					c0.1,0,0.3-0.1,0.4-0.1c0.1,0,0.2-0.1,0.3-0.1l0,0c0,0,0.1,0,0.1,0c0,0,0,0,0,0c0.4-0.2,0.7-0.6,0.8-0.9C27.8,4.3,27.9,4,28,4
					C28,3.8,28,3.7,28,3.7c0,0,0,0,0,0c0,0,0,0,0,0l-5,0l-2.7,0L17.7,3.7z"/>
			</g>
			<g opacity="0.749">
				<path opacity="0.7467" fill="#606060" d="M17.7,3.7c0,0,0,0.1,0,0.1c0.1,0.4,0.3,0.7,0.5,1.1c0.2,0.3,0.5,0.6,0.9,0.8
					c0,0,0,0,0.1,0C19.6,6,20,6.1,20.5,6.2c0.2,0,0.4,0,0.5,0c0.5,0,2.1-0.1,2.6-0.3c0.2,0,0.4-0.1,0.6-0.1c0.2-0.1,1.5-0.3,1.8-0.4
					c0.1,0,0.3-0.1,0.4-0.1c0.1,0,0.2-0.1,0.3-0.1l0,0c0,0,0.1,0,0.1,0c0,0,0,0,0,0c0.4-0.2,0.7-0.5,0.9-0.8c0.1,0,0.1-0.3,0.2-0.3
					C28,3.8,28,3.7,28,3.7c0,0,0,0,0,0c0,0,0,0,0,0l-5,0l-2.6,0L17.7,3.7z"/>
			</g>
			<g opacity="0.7412">
				<path opacity="0.76" fill="#5B5B5B" d="M17.7,3.7c0,0,0,0.1,0,0.1c0.1,0.4,0.3,0.7,0.5,1c0.2,0.3,0.5,0.6,0.9,0.8c0,0,0,0,0.1,0
					c0.4,0.2,0.8,0.4,1.3,0.5c0.2,0,0.4,0,0.5,0c0.5,0,2-0.2,2.6-0.3c0.2,0,0.4-0.1,0.6-0.1c0.2-0.1,1.5-0.3,1.8-0.4
					c0.1,0,0.3-0.1,0.4-0.1c0.1,0,0.2-0.1,0.3-0.1l0,0c0,0,0.1,0,0.1,0c0,0,0,0,0,0c0.4-0.2,0.7-0.5,0.9-0.8c0.1,0,0.1-0.3,0.2-0.3
					C28,3.8,28,3.7,27.9,3.7c0,0,0,0,0,0c0,0,0,0,0,0l-4.9,0l-2.6,0L17.7,3.7z"/>
			</g>
			<g opacity="0.7333">
				<path opacity="0.7733" fill="#565656" d="M17.8,3.7c0,0,0,0.1,0,0.1c0.1,0.4,0.3,0.7,0.5,1c0.2,0.3,0.5,0.6,0.8,0.8
					c0,0,0,0,0.1,0c0.4,0.2,0.8,0.4,1.3,0.5c0.2,0,0.4,0,0.5,0c0.5,0,2-0.2,2.6-0.3c0.2,0,0.4-0.1,0.6-0.1c0.2-0.1,1.4-0.3,1.7-0.4
					c0.1,0,0.3-0.1,0.4-0.1c0.1,0,0.2-0.1,0.3-0.1l0,0c0,0,0.1,0,0.1,0c0,0,0,0,0,0c0.4-0.2,0.6-0.5,0.9-0.8c0.1,0,0.2-0.3,0.2-0.3
					c0.1-0.1,0.1-0.2,0.1-0.2c0,0,0,0,0,0c0,0,0,0,0,0l-4.9,0l-2.6,0L17.8,3.7z"/>
			</g>
			<g opacity="0.7255">
				<path opacity="0.7867" fill="#515151" d="M17.8,3.7C17.8,3.7,17.8,3.8,17.8,3.7c0.2,0.5,0.3,0.8,0.6,1.1
					c0.2,0.3,0.5,0.6,0.8,0.8c0,0,0,0,0.1,0C19.6,5.8,20.1,6,20.5,6c0.2,0,0.4,0,0.5,0c0.5,0,2-0.2,2.6-0.3c0.2,0,0.4-0.1,0.6-0.1
					c0.2-0.1,1.4-0.3,1.7-0.4c0.1,0,0.3-0.1,0.4-0.1c0.1,0,0.2-0.1,0.3-0.1l0,0c0,0,0.1,0,0.1,0c0,0,0,0,0,0
					c0.3-0.2,0.6-0.5,0.9-0.7c0.1,0,0.2-0.3,0.2-0.3c0.1-0.1,0.1-0.2,0.1-0.2c0,0,0,0,0,0c0,0,0,0,0,0l-4.9,0l-2.6,0L17.8,3.7z"/>
			</g>
			<g opacity="0.7176">
				<path opacity="0.8" fill="#4C4C4C" d="M17.8,3.7C17.8,3.7,17.9,3.8,17.8,3.7c0.2,0.5,0.3,0.8,0.6,1.1c0.2,0.3,0.5,0.5,0.8,0.7
					c0,0,0,0,0.1,0c0.4,0.2,0.8,0.4,1.3,0.5c0.2,0,0.4,0,0.5,0c0.5,0,1.9-0.2,2.5-0.3c0.2,0,0.4-0.1,0.6-0.1
					c0.2-0.1,1.3-0.3,1.7-0.4c0.1,0,0.3-0.1,0.4-0.1c0.1,0,0.2-0.1,0.3-0.1l0,0c0,0,0.1,0,0.1,0c0,0,0,0,0,0
					c0.3-0.2,0.6-0.5,0.9-0.7c0.1,0,0.2-0.2,0.2-0.3c0.1-0.1,0.1-0.2,0.1-0.2c0,0,0,0,0,0c0,0,0,0,0,0l-4.8,0l-2.6,0L17.8,3.7z"/>
			</g>
			<g opacity="0.7098">
				<path opacity="0.8133" fill="#474747" d="M17.9,3.7C17.9,3.7,17.9,3.8,17.9,3.7c0.2,0.4,0.3,0.8,0.6,1c0.2,0.3,0.5,0.5,0.8,0.7
					c0,0,0,0,0.1,0c0.4,0.2,0.8,0.4,1.3,0.5c0.2,0,0.3,0,0.5,0c0.5,0,1.9-0.2,2.5-0.3c0.2,0,0.4-0.1,0.6-0.1
					c0.2-0.1,1.3-0.3,1.6-0.4c0.1,0,0.3-0.1,0.3-0.1c0.1,0,0.2-0.1,0.3-0.1l0,0c0,0,0.1,0,0.1,0c0,0,0,0,0,0
					c0.3-0.2,0.6-0.4,0.9-0.7c0.1,0,0.2-0.2,0.2-0.2c0.1-0.1,0.1-0.2,0.1-0.2c0,0,0,0,0,0c0,0,0,0,0,0l-4.8,0l-2.6,0L17.9,3.7z"/>
			</g>
			<g opacity="0.702">
				<path opacity="0.8267" fill="#424242" d="M17.9,3.7C17.9,3.7,17.9,3.8,17.9,3.7c0.2,0.4,0.3,0.7,0.6,1c0.2,0.3,0.5,0.5,0.8,0.7
					c0,0,0,0,0.1,0c0.4,0.2,0.8,0.4,1.3,0.5c0.2,0,0.3,0,0.5,0c0.6,0,1.9-0.2,2.5-0.3c0.2,0,0.4-0.1,0.6-0.1
					c0.3-0.1,1.3-0.3,1.6-0.4c0.1,0,0.3-0.1,0.3-0.1c0.1,0,0.2-0.1,0.3-0.1l0,0c0,0,0.1,0,0.1,0c0,0,0,0,0,0
					c0.3-0.2,0.6-0.4,0.9-0.6c0.1,0,0.2-0.2,0.3-0.2c0.1-0.1,0.1-0.2,0.2-0.2c0,0,0,0,0,0c0,0,0,0,0,0l-4.8,0l-2.6,0L17.9,3.7z"/>
			</g>
			<g opacity="0.6941">
				<path opacity="0.84" fill="#3D3D3D" d="M17.9,3.7C17.9,3.7,17.9,3.8,17.9,3.7c0.2,0.4,0.4,0.7,0.6,1C18.7,5,19,5.2,19.2,5.4
					c0,0,0,0,0.1,0c0.4,0.2,0.8,0.4,1.3,0.5c0.2,0,0.3,0,0.5,0c0.6,0,1.9-0.2,2.5-0.3c0.2,0,0.4-0.1,0.6-0.1
					c0.3-0.1,1.2-0.3,1.6-0.4c0.1,0,0.3-0.1,0.3-0.1c0.1,0,0.2-0.1,0.3-0.1l0,0c0,0,0.1,0,0.1,0c0,0,0,0,0,0
					c0.3-0.2,0.6-0.4,0.9-0.6c0.1,0,0.2-0.2,0.3-0.2c0.1-0.1,0.1-0.2,0.2-0.2c0,0,0,0,0,0c0,0,0,0,0,0l-4.7,0l-2.6,0L17.9,3.7z"/>
			</g>
			<g opacity="0.6863">
				<path opacity="0.8533" fill="#383838" d="M17.9,3.7C18,3.7,18,3.8,17.9,3.7c0.2,0.4,0.4,0.7,0.6,1c0.2,0.3,0.5,0.5,0.8,0.7
					c0,0,0,0,0.1,0c0.4,0.2,0.8,0.4,1.3,0.5c0.2,0,0.3,0,0.5,0c0.6,0,1.8-0.2,2.5-0.4c0.2,0,0.4-0.1,0.6-0.1
					c0.3-0.1,1.2-0.3,1.5-0.4c0.1,0,0.3-0.1,0.3-0.1c0.1,0,0.2-0.1,0.3-0.1l0,0c0,0,0.1,0,0.1,0c0,0,0,0,0,0
					c0.3-0.2,0.6-0.4,0.9-0.6c0.1,0,0.2-0.2,0.3-0.2c0.1-0.1,0.2-0.1,0.2-0.2c0,0,0,0,0,0c0,0,0,0,0,0l-4.7,0l-2.5,0L17.9,3.7z"/>
			</g>
			<g opacity="0.6784">
				<path opacity="0.8667" fill="#333333" d="M18,3.7C18,3.7,18,3.8,18,3.7c0.2,0.4,0.4,0.7,0.6,0.9c0.2,0.3,0.5,0.5,0.7,0.6
					c0,0,0,0,0.1,0c0.4,0.2,0.8,0.4,1.3,0.5c0.2,0,0.3,0,0.5,0c0.6,0,1.8-0.2,2.5-0.4c0.2,0,0.3-0.1,0.5-0.1
					c0.3-0.1,1.1-0.3,1.5-0.4c0.1,0,0.2-0.1,0.3-0.1c0.1,0,0.2-0.1,0.3-0.1l0,0c0,0,0,0,0.1,0c0,0,0,0,0,0c0.3-0.2,0.6-0.4,0.9-0.6
					c0.1,0,0.2-0.2,0.3-0.2c0.1-0.1,0.2-0.1,0.2-0.1c0,0,0,0,0,0c0,0,0,0,0,0l-4.7,0l-2.5,0L18,3.7z"/>
			</g>
			<g opacity="0.6706">
				<path opacity="0.88" fill="#2E2E2E" d="M18,3.7C18,3.7,18,3.8,18,3.7c0.2,0.4,0.4,0.7,0.6,0.9c0.2,0.2,0.5,0.5,0.7,0.6
					c0,0,0,0,0.1,0c0.4,0.2,0.8,0.4,1.2,0.5c0.2,0,0.3,0,0.5,0c0.6,0,1.8-0.2,2.5-0.4c0.2,0,0.3-0.1,0.5-0.1
					c0.3-0.1,1.1-0.3,1.5-0.4c0.1,0,0.2-0.1,0.3-0.1c0.1,0,0.2-0.1,0.3-0.1l0,0c0,0,0,0,0.1,0c0,0,0,0,0,0c0.3-0.2,0.6-0.3,0.9-0.5
					c0.1,0,0.2-0.2,0.3-0.2c0.1-0.1,0.2-0.1,0.2-0.1c0,0,0,0,0,0c0,0,0,0,0,0l-4.6,0l-2.5,0L18,3.7z"/>
			</g>
			<g opacity="0.6627">
				<path opacity="0.8933" fill="#292929" d="M18,3.7C18,3.7,18,3.8,18,3.7c0.2,0.4,0.4,0.6,0.6,0.9C18.8,4.8,19,5,19.3,5.2
					c0,0,0,0,0.1,0c0.4,0.2,0.8,0.4,1.2,0.4c0.2,0,0.3,0,0.5,0c0.6,0,1.8-0.2,2.5-0.4c0.2,0,0.3-0.1,0.5-0.2
					c0.3-0.1,1.1-0.3,1.5-0.5c0.1,0,0.2-0.1,0.3-0.1c0.1,0,0.2-0.1,0.3-0.1l0,0c0,0,0,0,0.1,0c0,0,0,0,0,0c0.3-0.2,0.6-0.3,0.9-0.5
					c0.1,0,0.2-0.1,0.3-0.2c0.1-0.1,0.2-0.1,0.2-0.1c0,0,0,0,0,0c0,0,0,0,0,0l-4.6,0l-2.5,0L18,3.7z"/>
			</g>
			<g opacity="0.6549">
				<path opacity="0.9067" fill="#242424" d="M18,3.7C18,3.7,18.1,3.8,18,3.7c0.2,0.4,0.4,0.6,0.6,0.8C18.8,4.8,19,5,19.3,5.1
					c0,0,0,0,0.1,0c0.4,0.2,0.8,0.4,1.2,0.4c0.2,0,0.3,0,0.5,0c0.7,0,1.7-0.2,2.5-0.4c0.1,0,0.3-0.1,0.5-0.2c0.3-0.1,1-0.3,1.4-0.5
					c0.1,0,0.2-0.1,0.3-0.1c0.1,0,0.2-0.1,0.3-0.1l0,0c0,0,0,0,0.1,0c0,0,0,0,0,0C26.4,4.3,26.8,4.1,27,4c0.1,0,0.2-0.1,0.3-0.2
					c0.1,0,0.2-0.1,0.3-0.1c0,0,0,0,0,0c0,0,0,0,0,0l-4.6,0l-2.5,0L18,3.7z"/>
			</g>
			<g opacity="0.6471">
				<path opacity="0.92" fill="#1F1F1F" d="M18.1,3.7C18.1,3.7,18.1,3.8,18.1,3.7c0.2,0.4,0.4,0.6,0.6,0.8c0.2,0.2,0.4,0.4,0.7,0.6
					c0,0,0,0,0.1,0c0.4,0.2,0.8,0.4,1.2,0.4c0.2,0,0.3,0,0.5,0c0.7,0,1.7-0.2,2.5-0.4c0.1,0,0.3-0.1,0.5-0.2c0.3-0.1,1-0.3,1.4-0.5
					c0.1,0,0.2-0.1,0.3-0.1c0.1,0,0.2-0.1,0.3-0.1l0,0c0,0,0,0,0.1,0c0,0,0,0,0,0C26.4,4.3,26.7,4.1,27,4c0.1,0,0.2-0.1,0.3-0.1
					c0.1,0,0.2-0.1,0.3-0.1c0,0,0,0,0,0c0,0,0,0,0,0l-4.5,0l-2.5,0L18.1,3.7z"/>
			</g>
			<g opacity="0.6392">
				<path opacity="0.9333" fill="#1A1A1A" d="M18.1,3.7C18.1,3.7,18.1,3.8,18.1,3.7c0.2,0.3,0.4,0.6,0.6,0.8
					c0.2,0.2,0.4,0.4,0.7,0.5c0,0,0,0,0.1,0c0.4,0.2,0.8,0.4,1.2,0.4c0.2,0,0.3,0,0.5,0c0.7,0,1.7-0.2,2.4-0.4
					c0.1,0,0.3-0.1,0.5-0.2c0.3-0.1,0.9-0.3,1.4-0.5c0.1,0,0.2-0.1,0.3-0.1c0.1,0,0.2-0.1,0.3-0.1l0,0c0,0,0,0,0.1,0c0,0,0,0,0,0
					c0.3-0.1,0.6-0.3,0.9-0.4c0.1,0,0.2-0.1,0.3-0.1c0.1,0,0.2-0.1,0.3-0.1c0,0,0,0,0,0c0,0,0,0,0,0l-4.5,0l-2.5,0L18.1,3.7z"/>
			</g>
			<g opacity="0.6314">
				<path opacity="0.9467" fill="#151515" d="M18.1,3.7C18.2,3.7,18.2,3.8,18.1,3.7c0.2,0.3,0.4,0.6,0.6,0.8
					c0.2,0.2,0.4,0.4,0.6,0.5c0,0,0,0,0.1,0c0.4,0.2,0.8,0.4,1.2,0.4c0.2,0,0.3,0,0.5,0c0.7,0,1.7-0.2,2.4-0.4C23.7,5.1,23.9,5,24,5
					c0.3-0.1,0.9-0.3,1.3-0.5c0.1,0,0.2-0.1,0.3-0.1c0.1,0,0.2-0.1,0.3-0.1l0,0c0,0,0,0,0.1,0c0,0,0,0,0,0c0.3-0.1,0.6-0.2,0.9-0.4
					c0.1,0,0.2-0.1,0.3-0.1c0.1,0,0.2-0.1,0.3-0.1c0,0,0,0,0,0c0,0,0,0,0,0l-4.5,0l-2.5,0L18.1,3.7z"/>
			</g>
			<g opacity="0.6235">
				<path opacity="0.96" fill="#101010" d="M18.2,3.7C18.2,3.7,18.2,3.8,18.2,3.7c0.2,0.3,0.4,0.5,0.6,0.7c0.2,0.2,0.4,0.4,0.6,0.5
					c0,0,0,0,0.1,0c0.4,0.2,0.8,0.4,1.2,0.4c0.2,0,0.3,0,0.5,0c0.7,0,1.6-0.2,2.4-0.4C23.7,5,23.8,5,24,4.9c0.3-0.1,0.9-0.3,1.3-0.5
					c0.1,0,0.2-0.1,0.3-0.1c0.1,0,0.2-0.1,0.3-0.1l0,0c0,0,0,0,0.1,0c0,0,0,0,0,0c0.3-0.1,0.6-0.2,0.9-0.3c0.1,0,0.2-0.1,0.3-0.1
					c0.1,0,0.2-0.1,0.3-0.1c0,0,0,0,0,0c0,0,0,0,0,0l-4.4,0l-2.5,0L18.2,3.7z"/>
			</g>
			<g opacity="0.6157">
				<path opacity="0.9733" fill="#0B0B0B" d="M18.2,3.7C18.2,3.7,18.2,3.8,18.2,3.7c0.2,0.3,0.4,0.5,0.6,0.7
					c0.2,0.2,0.4,0.4,0.6,0.5c0,0,0,0,0.1,0c0.4,0.2,0.8,0.4,1.2,0.4c0.2,0,0.3,0,0.5,0c0.7,0,1.6-0.2,2.4-0.4
					c0.1,0,0.3-0.1,0.4-0.2c0.3-0.1,0.8-0.3,1.3-0.5c0.1,0,0.2-0.1,0.3-0.1c0.1,0,0.2-0.1,0.3-0.1l0,0c0,0,0,0,0.1,0c0,0,0,0,0,0
					c0.3-0.1,0.6-0.2,0.9-0.3c0.1,0,0.2-0.1,0.3-0.1c0.1,0,0.2-0.1,0.4-0.1c0,0,0,0,0,0c0,0,0,0,0,0l-4.4,0l-2.4,0L18.2,3.7z"/>
			</g>
			<g opacity="0.6078">
				<path opacity="0.9867" fill="#060606" d="M18.2,3.7C18.3,3.7,18.3,3.8,18.2,3.7c0.2,0.3,0.4,0.5,0.6,0.7
					c0.2,0.2,0.4,0.3,0.6,0.5c0,0,0,0,0.1,0c0.4,0.2,0.8,0.4,1.2,0.4c0.2,0,0.3,0,0.5,0c0.7,0,1.6-0.1,2.4-0.4
					c0.1,0,0.3-0.1,0.4-0.2c0.3-0.1,0.8-0.3,1.2-0.5c0.1,0,0.2-0.1,0.3-0.1c0.1,0,0.2-0.1,0.3-0.1l0,0c0,0,0,0,0.1,0c0,0,0,0,0,0
					c0.3-0.1,0.6-0.2,0.9-0.3c0.1,0,0.2-0.1,0.3-0.1c0.1,0,0.2,0,0.4-0.1c0,0,0,0,0,0c0,0,0,0,0,0l-4.4,0l-2.4,0L18.2,3.7z"/>
			</g>
			<g opacity="0.6">
				<path fill="#010101" d="M27.4,3.7h-4.3h-2.4h-2.4c0,0,0,0,0.1,0.1c0.2,0.2,0.3,0.4,0.5,0.6s0.4,0.3,0.6,0.4
					c0.4,0.2,0.8,0.4,1.3,0.5c0.9,0.1,1.9,0,2.9-0.4c0.4-0.1,0.9-0.4,1.6-0.6C25.9,4,26.7,3.8,27.4,3.7C27.4,3.7,27.4,3.7,27.4,3.7
					L27.4,3.7z"/>
			</g>
		</g>
		<g>
			<linearGradient id="SVGID_7_" gradientUnits="userSpaceOnUse" x1="14.8817" y1="19.36" x2="28.2921" y2="21.8619">
				<stop  offset="9.729730e-002" style="stop-color:#D42132"/>
				<stop  offset="0.2432" style="stop-color:#D62129"/>
				<stop  offset="0.3452" style="stop-color:#C22126"/>
				<stop  offset="0.4529" style="stop-color:#B82429"/>
				<stop  offset="0.6323" style="stop-color:#E22A2A"/>
				<stop  offset="0.6438" style="stop-color:#DD2929"/>
				<stop  offset="0.7681" style="stop-color:#AB1D23"/>
				<stop  offset="0.8295" style="stop-color:#981920"/>
				<stop  offset="0.8763" style="stop-color:#871722"/>
				<stop  offset="0.9192" style="stop-color:#9F1C24"/>
				<stop  offset="0.9656" style="stop-color:#83171F"/>
				<stop  offset="1" style="stop-color:#421417"/>
			</linearGradient>
			<path fill="url(#SVGID_7_)" d="M28.9,16.8c-1.6,5.9-8.9,8.3-13.7,2.5c-0.1-0.1-0.2,0-0.2,0.1c0.9,3.1,3.1,5.5,6.3,6.2
				C28.3,24.4,28.8,18,28.9,16.8z"/>
		</g>
		<defs>
			<filter id="Adobe_OpacityMaskFilter_2_" filterUnits="userSpaceOnUse" x="19.8" y="9.6" width="10" height="7.2">
				<feFlood  style="flood-color:white;flood-opacity:1" result="back"/>
				<feBlend  in="SourceGraphic" in2="back" mode="normal"/>
			</filter>
		</defs>
		<mask maskUnits="userSpaceOnUse" x="19.8" y="9.6" width="10" height="7.2" id="SVGID_8_">
			<g filter="url(#Adobe_OpacityMaskFilter_2_)">
				<defs>
					<filter id="Adobe_OpacityMaskFilter_3_" filterUnits="userSpaceOnUse" x="19.8" y="9.6" width="10" height="7.2">
						<feFlood  style="flood-color:white;flood-opacity:1" result="back"/>
						<feBlend  in="SourceGraphic" in2="back" mode="normal"/>
					</filter>
				</defs>
				<mask maskUnits="userSpaceOnUse" x="19.8" y="9.6" width="10" height="7.2" id="SVGID_8_">
					<g filter="url(#Adobe_OpacityMaskFilter_3_)">
					</g>
				</mask>
				<linearGradient id="SVGID_9_" gradientUnits="userSpaceOnUse" x1="29.0823" y1="16.713" x2="25.7773" y2="13.0074">
					<stop  offset="0.2718" style="stop-color:#FFFFFF"/>
					<stop  offset="0.3338" style="stop-color:#F7F7F7"/>
					<stop  offset="0.4326" style="stop-color:#DFDFDF"/>
					<stop  offset="0.5558" style="stop-color:#BABABA"/>
					<stop  offset="0.6987" style="stop-color:#858585"/>
					<stop  offset="0.856" style="stop-color:#434343"/>
					<stop  offset="1" style="stop-color:#000000"/>
				</linearGradient>
				<path mask="url(#SVGID_8_)" fill="url(#SVGID_9_)" d="M21.4,11.7c3.4-0.7,6.9,1.6,7.5,5.2c0.2-1.7,0.3-3.3,0.9-5
					c0,0-0.1,0-0.1-0.1l0,0c0,0-1.7-1.6-3.7-2.1c-0.1,0-0.2,0-0.3,0c-1.5-0.2-3.3,0.6-3.9,0.9c-0.6,0.3-1.5,0.9-2,1.3
					c0,0.1-0.1,0.1,0,0.2c0.1,0.1,0.2,0.1,0.3,0v0C20.5,11.9,21,11.8,21.4,11.7z"/>
			</g>
		</mask>
		<linearGradient id="SVGID_10_" gradientUnits="userSpaceOnUse" x1="29.0823" y1="16.713" x2="25.7773" y2="13.0074">
			<stop  offset="0.2718" style="stop-color:#343234"/>
			<stop  offset="0.6246" style="stop-color:#3B3A3C"/>
			<stop  offset="1" style="stop-color:#47494B"/>
		</linearGradient>
		<path opacity="0.5" fill="url(#SVGID_10_)" d="M21.4,11.7c3.4-0.7,6.9,1.6,7.5,5.2c0.2-1.7,0.3-3.3,0.9-5c0,0-0.1,0-0.1-0.1l0,0
			c0,0-1.7-1.6-3.7-2.1c-0.1,0-0.2,0-0.3,0c-1.5-0.2-3.3,0.6-3.9,0.9c-0.6,0.3-1.5,0.9-2,1.3c0,0.1-0.1,0.1,0,0.2
			c0.1,0.1,0.2,0.1,0.3,0v0C20.5,11.9,21,11.8,21.4,11.7z"/>
		<linearGradient id="SVGID_11_" gradientUnits="userSpaceOnUse" x1="23.4942" y1="31.7375" x2="48.9375" y2="6.6992">
			<stop  offset="0" style="stop-color:#7F2631"/>
			<stop  offset="3.436400e-002" style="stop-color:#83171F"/>
			<stop  offset="5.650710e-002" style="stop-color:#9F1C24"/>
			<stop  offset="6.089880e-002" style="stop-color:#871722"/>
			<stop  offset="0.1055" style="stop-color:#981920"/>
			<stop  offset="0.18" style="stop-color:#B01F23"/>
			<stop  offset="0.306" style="stop-color:#E22A2A"/>
			<stop  offset="0.3212" style="stop-color:#D8292A"/>
			<stop  offset="0.3555" style="stop-color:#C62629"/>
			<stop  offset="0.3921" style="stop-color:#BB2429"/>
			<stop  offset="0.4348" style="stop-color:#B82429"/>
			<stop  offset="0.44" style="stop-color:#B52328"/>
			<stop  offset="0.4967" style="stop-color:#981B1F"/>
			<stop  offset="0.529" style="stop-color:#8D181C"/>
			<stop  offset="0.6198" style="stop-color:#B21F2B"/>
			<stop  offset="0.8595" style="stop-color:#D6222A"/>
			<stop  offset="0.9051" style="stop-color:#B61E27"/>
			<stop  offset="0.9613" style="stop-color:#941923"/>
			<stop  offset="0.9918" style="stop-color:#871722"/>
		</linearGradient>
		<path fill="url(#SVGID_11_)" d="M39.9,4.9c-3.7,0-6.9,1.9-8.9,4.7c0,0,0,0,0,0c0,0,0,0,0,0c-1.8,2.6-1.9,4.9-2.1,7.3
			c-0.1,1.1-0.6,7.6-7.6,8.8c1.2,0.3,2.4,0.3,2.9,0.3c5.5-0.4,9.2-5.3,9.1-10.3c0,0,0,0,0,0c0-3.6,3-6.6,6.6-6.6
			c6.5,0,10.6,6.8,7.6,14.2C54.2,16.4,49.4,4.9,39.9,4.9z"/>
		<linearGradient id="SVGID_12_" gradientUnits="userSpaceOnUse" x1="32.0624" y1="13.8957" x2="50.8478" y2="23.2617">
			<stop  offset="0" style="stop-color:#871722"/>
			<stop  offset="0.113" style="stop-color:#D62129"/>
			<stop  offset="0.2246" style="stop-color:#981920"/>
			<stop  offset="0.4211" style="stop-color:#B82429"/>
			<stop  offset="0.4308" style="stop-color:#BA2429"/>
			<stop  offset="0.5588" style="stop-color:#D7282A"/>
			<stop  offset="0.6323" style="stop-color:#E22A2A"/>
			<stop  offset="0.7678" style="stop-color:#B01F23"/>
			<stop  offset="0.8295" style="stop-color:#981920"/>
			<stop  offset="0.8763" style="stop-color:#871722"/>
			<stop  offset="0.9192" style="stop-color:#9F1C24"/>
			<stop  offset="0.9656" style="stop-color:#83171F"/>
			<stop  offset="1" style="stop-color:#7F2631"/>
		</linearGradient>
		<path fill="url(#SVGID_12_)" d="M47.8,22.5c0,0,0-0.1,0-0.1c0-0.1,0.1-0.1,0.1-0.2c0,0,0,0,0,0c0.8-2.5,0.8-4.9,0.2-7c0,0,0,0,0,0
			c0-0.1,0-0.1-0.1-0.2c0,0,0-0.1,0-0.1c0-0.1,0-0.1-0.1-0.2c0,0,0-0.1,0-0.1c0,0,0-0.1,0-0.1c0-0.1,0-0.1-0.1-0.2c0,0,0,0,0,0
			c-0.6-1.3-1.4-2.5-2.5-3.4c0,0,0,0,0,0c0,0-0.1-0.1-0.1-0.1c0,0-0.1-0.1-0.1-0.1c0,0-0.1,0-0.1-0.1c-0.1,0-0.1-0.1-0.2-0.1
			c0,0,0,0,0,0c-0.9-0.6-1.9-1-3-1.3C41.3,9.1,41,9.1,40.6,9c3.3,0.3,5.9,3.2,5.9,6.6c0,3.6-3,6.6-6.6,6.6c-3.5,0-6.4-2.7-6.6-6.1
			c0,0,0,0,0,0c-0.1,2.1-0.8,4.2-2,5.9c3.9,5.3,11.6,5.9,16.2,1.2C47.6,23,47.7,22.7,47.8,22.5C47.7,22.5,47.7,22.5,47.8,22.5z"/>
		<defs>
			<filter id="Adobe_OpacityMaskFilter_4_" filterUnits="userSpaceOnUse" x="31.2" y="9" width="17.2" height="17.3">
				<feFlood  style="flood-color:white;flood-opacity:1" result="back"/>
				<feBlend  in="SourceGraphic" in2="back" mode="normal"/>
			</filter>
		</defs>
		<mask maskUnits="userSpaceOnUse" x="31.2" y="9" width="17.2" height="17.3" id="SVGID_13_">
			<g filter="url(#Adobe_OpacityMaskFilter_4_)">
				<defs>
					<filter id="Adobe_OpacityMaskFilter_5_" filterUnits="userSpaceOnUse" x="31.2" y="9" width="17.2" height="17.3">
						<feFlood  style="flood-color:white;flood-opacity:1" result="back"/>
						<feBlend  in="SourceGraphic" in2="back" mode="normal"/>
					</filter>
				</defs>
				<mask maskUnits="userSpaceOnUse" x="31.2" y="9" width="17.2" height="17.3" id="SVGID_13_">
					<g filter="url(#Adobe_OpacityMaskFilter_5_)">
					</g>
				</mask>
				<linearGradient id="SVGID_14_" gradientUnits="userSpaceOnUse" x1="41.4979" y1="24.6473" x2="38.5456" y2="14.9898">
					<stop  offset="0" style="stop-color:#000000"/>
					<stop  offset="0.1668" style="stop-color:#030303"/>
					<stop  offset="0.2977" style="stop-color:#0D0D0D"/>
					<stop  offset="0.4166" style="stop-color:#1E1E1E"/>
					<stop  offset="0.5283" style="stop-color:#353535"/>
					<stop  offset="0.635" style="stop-color:#545454"/>
					<stop  offset="0.7379" style="stop-color:#797979"/>
					<stop  offset="0.8378" style="stop-color:#A5A5A5"/>
					<stop  offset="0.9329" style="stop-color:#D7D7D7"/>
					<stop  offset="1" style="stop-color:#FFFFFF"/>
				</linearGradient>
				<path mask="url(#SVGID_13_)" fill="url(#SVGID_14_)" d="M47.8,22.5c0,0,0-0.1,0-0.1c0-0.1,0.1-0.1,0.1-0.2c0,0,0,0,0,0
					c0.8-2.5,0.8-4.9,0.2-7c0,0,0,0,0,0c0-0.1,0-0.1-0.1-0.2c0,0,0-0.1,0-0.1c0-0.1,0-0.1-0.1-0.2c0,0,0-0.1,0-0.1c0,0,0-0.1,0-0.1
					c0-0.1,0-0.1-0.1-0.2c0,0,0,0,0,0c-0.6-1.3-1.4-2.5-2.5-3.4c0,0,0,0,0,0c0,0-0.1-0.1-0.1-0.1c0,0-0.1-0.1-0.1-0.1
					c0,0-0.1,0-0.1-0.1c-0.1,0-0.1-0.1-0.2-0.1c0,0,0,0,0,0c-0.9-0.6-1.9-1-3-1.3C41.3,9.1,41,9.1,40.6,9c3.3,0.3,5.9,3.2,5.9,6.6
					c0,3.6-3,6.6-6.6,6.6c-3.5,0-6.4-2.7-6.6-6.1c0,0,0,0,0,0c-0.1,2.1-0.8,4.2-2,5.9c3.9,5.3,11.6,5.9,16.2,1.2
					C47.6,23,47.7,22.7,47.8,22.5C47.7,22.5,47.7,22.5,47.8,22.5z"/>
			</g>
		</mask>
		<linearGradient id="SVGID_15_" gradientUnits="userSpaceOnUse" x1="41.4979" y1="24.6473" x2="38.5456" y2="14.9898">
			<stop  offset="0" style="stop-color:#47494B"/>
			<stop  offset="0.4439" style="stop-color:#444648"/>
			<stop  offset="0.7919" style="stop-color:#3C3C3E"/>
			<stop  offset="1" style="stop-color:#343234"/>
		</linearGradient>
		<path opacity="0.5" fill="url(#SVGID_15_)" d="M47.8,22.5c0,0,0-0.1,0-0.1c0-0.1,0.1-0.1,0.1-0.2c0,0,0,0,0,0
			c0.8-2.5,0.8-4.9,0.2-7c0,0,0,0,0,0c0-0.1,0-0.1-0.1-0.2c0,0,0-0.1,0-0.1c0-0.1,0-0.1-0.1-0.2c0,0,0-0.1,0-0.1c0,0,0-0.1,0-0.1
			c0-0.1,0-0.1-0.1-0.2c0,0,0,0,0,0c-0.6-1.3-1.4-2.5-2.5-3.4c0,0,0,0,0,0c0,0-0.1-0.1-0.1-0.1c0,0-0.1-0.1-0.1-0.1
			c0,0-0.1,0-0.1-0.1c-0.1,0-0.1-0.1-0.2-0.1c0,0,0,0,0,0c-0.9-0.6-1.9-1-3-1.3C41.3,9.1,41,9.1,40.6,9c3.3,0.3,5.9,3.2,5.9,6.6
			c0,3.6-3,6.6-6.6,6.6c-3.5,0-6.4-2.7-6.6-6.1c0,0,0,0,0,0c-0.1,2.1-0.8,4.2-2,5.9c3.9,5.3,11.6,5.9,16.2,1.2
			C47.6,23,47.7,22.7,47.8,22.5C47.7,22.5,47.7,22.5,47.8,22.5z"/>
		<defs>
			<filter id="Adobe_OpacityMaskFilter_6_" filterUnits="userSpaceOnUse" x="31.2" y="16.1" width="9.7" height="10.2">
				<feFlood  style="flood-color:white;flood-opacity:1" result="back"/>
				<feBlend  in="SourceGraphic" in2="back" mode="normal"/>
			</filter>
		</defs>
		<mask maskUnits="userSpaceOnUse" x="31.2" y="16.1" width="9.7" height="10.2" id="SVGID_16_">
			<g filter="url(#Adobe_OpacityMaskFilter_6_)">
				<defs>
					<filter id="Adobe_OpacityMaskFilter_7_" filterUnits="userSpaceOnUse" x="31.2" y="16.1" width="9.7" height="10.2">
						<feFlood  style="flood-color:white;flood-opacity:1" result="back"/>
						<feBlend  in="SourceGraphic" in2="back" mode="normal"/>
					</filter>
				</defs>
				<mask maskUnits="userSpaceOnUse" x="31.2" y="16.1" width="9.7" height="10.2" id="SVGID_16_">
					<g filter="url(#Adobe_OpacityMaskFilter_7_)">
					</g>
				</mask>
				<linearGradient id="SVGID_17_" gradientUnits="userSpaceOnUse" x1="31.5387" y1="18.5914" x2="35.7386" y2="21.9813">
					<stop  offset="0" style="stop-color:#FFFFFF"/>
					<stop  offset="0.6582" style="stop-color:#191919"/>
					<stop  offset="0.7287" style="stop-color:#000000"/>
				</linearGradient>
				<path mask="url(#SVGID_16_)" fill="url(#SVGID_17_)" d="M40.7,22.8c0.1-0.2,0.2-0.4,0.3-0.7c-0.4,0.1-0.7,0.1-1.1,0.1
					c-3.5,0-6.4-2.7-6.6-6.1c0,0,0,0,0,0c-0.1,2.1-0.8,4.2-2,5.9c1.8,2.5,4.5,3.9,7.3,4.3C39.4,25.2,40.1,24.1,40.7,22.8z"/>
			</g>
		</mask>
		<linearGradient id="SVGID_18_" gradientUnits="userSpaceOnUse" x1="31.5387" y1="18.5914" x2="35.7386" y2="21.9813">
			<stop  offset="0" style="stop-color:#343234"/>
			<stop  offset="0.7287" style="stop-color:#47494B"/>
		</linearGradient>
		<path opacity="0.5" fill="url(#SVGID_18_)" d="M40.7,22.8c0.1-0.2,0.2-0.4,0.3-0.7c-0.4,0.1-0.7,0.1-1.1,0.1
			c-3.5,0-6.4-2.7-6.6-6.1c0,0,0,0,0,0c-0.1,2.1-0.8,4.2-2,5.9c1.8,2.5,4.5,3.9,7.3,4.3C39.4,25.2,40.1,24.1,40.7,22.8z"/>
		<g>
			<g>
				<path fill="#3C3C3B" d="M42.2,12.9c-1.5,0-2.7,1.2-2.7,2.7c0,1.2,0.8,2.3,1.9,2.6c0,0,0.1,0,0.1,0c0,0,0.1,0,0.1,0
					c0.1,0,0.2,0,0.3,0c0.1,0,0.2,0,0.3,0c0,0,0,0,0,0c0,0,0,0,0,0c0,0,0,0,0,0c-0.1-0.1-0.2-0.2-0.3-0.3c-0.1-0.1-0.1-0.3-0.1-0.6
					l0-1.2c0,0,0.4,0,0.4,0c0.2,0,0.4,0.1,0.4,0.6l0,0.7c0,0.3,0,0.5,0.2,0.6c0.1,0,0.1,0.1,0.2,0.1c0,0,0.1,0,0.1,0c0,0,0,0,0.1,0
					c1-0.4,1.7-1.4,1.7-2.5C44.9,14.2,43.7,12.9,42.2,12.9z M42.7,15.5c0,0,0,0.1-0.1,0.1H42c-0.1,0-0.1-0.1-0.1-0.1v-0.8
					c0,0,0-0.1,0.1-0.1l0.6,0c0.1,0,0.1,0.1,0.1,0.1V15.5z M43.2,17.6l0-0.9c0-0.3-0.1-0.5-0.2-0.6C42.9,16,42.8,16,42.7,16
					c0.2,0,0.5-0.2,0.5-0.5c0,0,0-0.1,0-0.2c0-0.2,0-0.6,0-0.6c0-0.5-0.3-0.6-0.4-0.6c0,0-0.1,0-0.1,0h-1c-0.2,0-0.4,0.1-0.4,0.6v3
					c-0.7-0.3-1.2-1.1-1.2-1.9c0-1.2,1-2.1,2.1-2.1c1.2,0,2.1,1,2.1,2.1C44.3,16.5,43.9,17.2,43.2,17.6z"/>
				<path fill="#3C3C3B" d="M39.6,14.1C39.6,14.1,39.6,14.1,39.6,14.1C39.6,14.1,39.6,14.1,39.6,14.1c-0.1-0.1-0.1-0.2-0.1-0.2
					c-0.1-0.1-0.2-0.2-0.3-0.3c-0.3-0.2-0.6-0.4-1-0.5c-1.4-0.5-3,0.4-3.4,1.8c-0.3,1.1,0,2.2,0.8,2.9c0.3,0.2,0.6,0.4,1,0.5
					c0.6,0.2,1.2,0.2,1.7,0c0,0,0.1,0,0.2-0.1c0,0,0,0,0,0c0,0,0,0,0,0c0.1,0,0.1-0.1,0.2-0.1c0.1-0.1,0.1-0.1,0.2-0.2c0,0,0,0,0,0
					c0,0,0,0,0,0c0.1-0.2,0-0.4-0.2-0.5c0,0,0,0,0,0c0,0,0,0,0,0c0,0,0,0,0,0c-0.2-0.1-0.5-0.2-0.5-0.2C37.9,17,37.6,17,37.3,17
					c-0.4,0-0.7,0-0.9,0.1c0,0,0,0,0,0c0,0,0,0,0,0c0,0,0.1-0.1,0.2-0.1c0.2-0.2,0.6-0.4,1-0.6c0,0,0.1,0,0.1,0c0,0,0,0,0,0
					c0,0,0.1,0,0.1,0c0,0,0,0,0.1,0h0c0,0,0.1,0,0.1,0c0,0,0.1-0.2,0.3-0.5c0.1-0.3,0.3-0.6,0.5-0.7c0,0,0,0,0,0
					c-0.3-0.4-0.7-0.6-0.7-0.6c0,0.1-0.1,0.1-0.1,0.2c-0.3,0.3-0.9,0.8-0.9,0.8s0,0.3-0.1,0.7c-0.1,0.5-0.4,0.9-0.4,1c0,0,0,0,0,0
					c0,0-0.1,0-0.1,0c0,0,0,0.1,0,0.1c0,0,0,0,0,0c0,0,0,0,0.1,0c0,0,0,0,0,0c0,0,0,0,0.1,0c0,0,0.1,0,0.1,0c0.2,0,0.4,0,0.6,0
					c0.5,0,0.8,0.2,1,0.4c0.3,0.2,0,0.4-0.1,0.4c-0.5,0.2-1,0.2-1.5,0c-0.3-0.1-0.6-0.3-0.8-0.5c-0.7-0.6-1-1.6-0.7-2.5
					c0.4-1.2,1.7-1.9,2.9-1.5c0,0,0,0,0,0c0,0,0,0,0.1,0c0,0,0.1,0,0.1,0c0,0,0,0,0,0c0,0,0,0,0,0c0,0,0,0,0.1,0.1c0,0,0,0,0,0
					c0,0,0,0,0,0c0,0,0,0,0,0c0,0,0,0,0,0v0c0,0,0,0,0,0c0,0,0,0,0,0c0,0,0,0,0,0l0,0c0,0,0,0,0,0c0,0,0,0,0,0c0,0,0,0,0,0
					c0,0,0,0-0.1,0c0,0,0,0,0,0c0,0,0,0,0,0h0c0,0,0,0,0,0c0,0-0.1,0-0.1,0.1c0,0,0,0.1,0,0.1c0,0,0,0,0,0l0,0c0,0,0,0,0,0
					c0,0,0,0,0,0l0,0c0,0,0,0,0,0l0,0l0.1,0c0,0,0,0,0,0c0.1,0,0.2,0.1,0.3,0.2l0.1,0c0,0,0.1,0.1,0.2,0.2l0.1,0.2c0,0,0,0,0,0l0,0
					c0,0,0,0,0,0c0.1,0.1,0.2,0,0.2,0c0,0,0,0,0-0.1c0,0,0,0,0,0c0,0,0,0,0,0v0c0,0,0,0,0,0c0,0,0,0,0,0c0,0,0,0,0,0c0,0,0,0,0,0
					c0,0,0,0,0,0c0,0,0-0.1,0-0.1L39.6,14.1z M36.4,17l1-1.2c0,0,0-0.1,0-0.1c0,0,0.1-0.1,0.2,0c0,0,0.1,0.1,0,0.2c0,0-0.1,0-0.1,0
					L36.4,17z"/>
			</g>
		</g>
		<g>
			<defs>
				<path id="SVGID_19_" d="M39.9,4.9c-3.7,0-6.9,1.9-8.9,4.7c-1.8,2.6-1.9,4.9-2.1,7.3c-0.1,1.1-0.6,7.6-7.6,8.8
					c1.2,0.3,2.4,0.3,2.9,0.3c5.5-0.4,9.2-5.3,9.1-10.3v0c0,0,0,0,0,0c0-3.6,3-6.6,6.6-6.6c6.5,0,10.6,6.8,7.6,14.2
					C54.2,16.4,49.4,4.9,39.9,4.9z"/>
			</defs>
			<clipPath id="SVGID_20_">
				<use xlink:href="#SVGID_19_"  overflow="visible"/>
			</clipPath>
			<g opacity="0.6" clip-path="url(#SVGID_20_)">
				<defs>
					<filter id="Adobe_OpacityMaskFilter_8_" filterUnits="userSpaceOnUse" x="21.3" y="4.9" width="18.6" height="20.8">
						<feFlood  style="flood-color:white;flood-opacity:1" result="back"/>
						<feBlend  in="SourceGraphic" in2="back" mode="normal"/>
					</filter>
				</defs>
				<mask maskUnits="userSpaceOnUse" x="21.3" y="4.9" width="18.6" height="20.8" id="SVGID_21_">
					<g filter="url(#Adobe_OpacityMaskFilter_8_)">
						<defs>
							<filter id="Adobe_OpacityMaskFilter_9_" filterUnits="userSpaceOnUse" x="21.3" y="4.9" width="18.6" height="20.8">
								<feFlood  style="flood-color:white;flood-opacity:1" result="back"/>
								<feBlend  in="SourceGraphic" in2="back" mode="normal"/>
							</filter>
						</defs>
						<mask maskUnits="userSpaceOnUse" x="21.3" y="4.9" width="18.6" height="20.8" id="SVGID_21_">
							<g filter="url(#Adobe_OpacityMaskFilter_9_)">
							</g>
						</mask>
						<linearGradient id="SVGID_22_" gradientUnits="userSpaceOnUse" x1="23.3592" y1="27.3082" x2="37.6213" y2="3.0959">
							<stop  offset="0" style="stop-color:#1E1E1E"/>
							<stop  offset="6.216220e-002" style="stop-color:#FFFFFF"/>
							<stop  offset="0.4541" style="stop-color:#FFFFFF"/>
							<stop  offset="0.6405" style="stop-color:#FFFFFF"/>
							<stop  offset="0.7595" style="stop-color:#FFFFFF"/>
							<stop  offset="1" style="stop-color:#000000"/>
						</linearGradient>
						<path mask="url(#SVGID_21_)" fill="url(#SVGID_22_)" d="M39.9,4.9c-0.3,0-0.6,0.1-1,0.1c-0.2,0-0.3,0-0.5,0.1L38,5.2
							c-0.6,0.2-1.2,0.3-1.8,0.6c-1.2,0.5-2.2,1.2-3.1,2c-0.9,0.8-1.7,1.8-2.3,2.9c-0.3,0.5-0.5,1.1-0.7,1.7
							c-0.2,0.6-0.3,1.2-0.4,1.8c-0.1,0.6-0.2,1.2-0.3,1.9l-0.1,1c0,0.3-0.1,0.7-0.1,1c-0.2,1.3-0.7,2.6-1.4,3.7
							c-0.4,0.6-0.8,1.1-1.2,1.6c-0.5,0.5-1,0.9-1.6,1.2c-0.6,0.3-1.2,0.6-1.8,0.8c-0.6,0.2-1.3,0.3-1.9,0.4
							c0.6-0.2,1.2-0.4,1.8-0.6c0.6-0.3,1.1-0.6,1.6-0.9c1-0.7,1.8-1.7,2.4-2.8c0.3-0.5,0.5-1.1,0.7-1.7c0.2-0.6,0.3-1.2,0.4-1.8
							c0-0.3,0.1-0.6,0.1-0.9l0.1-1c0.1-0.6,0.1-1.3,0.2-1.9c0.2-1.3,0.6-2.6,1.3-3.8c0.7-1.1,1.5-2.2,2.5-3c1-0.8,2.2-1.5,3.4-1.9
							l0.5-0.1L37,5.1c0.2,0,0.3-0.1,0.5-0.1c0.2,0,0.3-0.1,0.5-0.1C38.6,4.8,39.2,4.8,39.9,4.9z"/>
					</g>
				</mask>
				<linearGradient id="SVGID_23_" gradientUnits="userSpaceOnUse" x1="23.3592" y1="27.3082" x2="37.6213" y2="3.0959">
					<stop  offset="0" style="stop-color:#D8202A"/>
					<stop  offset="6.216220e-002" style="stop-color:#F19389"/>
					<stop  offset="0.4541" style="stop-color:#E32A2C"/>
					<stop  offset="0.6405" style="stop-color:#F3B5B6"/>
					<stop  offset="0.7595" style="stop-color:#E32A2C"/>
					<stop  offset="1" style="stop-color:#E32A2C"/>
				</linearGradient>
				<path fill="url(#SVGID_23_)" d="M39.9,4.9c-0.3,0-0.6,0.1-1,0.1c-0.2,0-0.3,0-0.5,0.1L38,5.2c-0.6,0.2-1.2,0.3-1.8,0.6
					c-1.2,0.5-2.2,1.2-3.1,2c-0.9,0.8-1.7,1.8-2.3,2.9c-0.3,0.5-0.5,1.1-0.7,1.7c-0.2,0.6-0.3,1.2-0.4,1.8c-0.1,0.6-0.2,1.2-0.3,1.9
					l-0.1,1c0,0.3-0.1,0.7-0.1,1c-0.2,1.3-0.7,2.6-1.4,3.7c-0.4,0.6-0.8,1.1-1.2,1.6c-0.5,0.5-1,0.9-1.6,1.2
					c-0.6,0.3-1.2,0.6-1.8,0.8c-0.6,0.2-1.3,0.3-1.9,0.4c0.6-0.2,1.2-0.4,1.8-0.6c0.6-0.3,1.1-0.6,1.6-0.9c1-0.7,1.8-1.7,2.4-2.8
					c0.3-0.5,0.5-1.1,0.7-1.7c0.2-0.6,0.3-1.2,0.4-1.8c0-0.3,0.1-0.6,0.1-0.9l0.1-1c0.1-0.6,0.1-1.3,0.2-1.9
					c0.2-1.3,0.6-2.6,1.3-3.8c0.7-1.1,1.5-2.2,2.5-3c1-0.8,2.2-1.5,3.4-1.9l0.5-0.1L37,5.1c0.2,0,0.3-0.1,0.5-0.1
					c0.2,0,0.3-0.1,0.5-0.1C38.6,4.8,39.2,4.8,39.9,4.9z"/>
			</g>
		</g>
		<g>
			<defs>
				<path id="SVGID_24_" d="M21.4,11.7c3.4-0.7,6.9,1.6,7.5,5.2c0.2-1.7,0.3-3.3,0.9-5c0,0-0.1,0-0.1-0.1l0,0c0,0-1.7-1.6-3.7-2.1
					c-0.1,0-0.2,0-0.3,0c-1.5-0.2-3.3,0.6-3.9,0.9c-0.6,0.3-1.5,0.9-2,1.3c0,0.1-0.1,0.1,0,0.2c0.1,0.1,0.2,0.1,0.3,0v0
					C20.5,11.9,21,11.8,21.4,11.7z"/>
			</defs>
			<clipPath id="SVGID_25_">
				<use xlink:href="#SVGID_24_"  overflow="visible"/>
			</clipPath>
			<defs>
				<filter id="Adobe_OpacityMaskFilter_10_" filterUnits="userSpaceOnUse" x="19.9" y="9.3" width="9" height="2.6">
					<feFlood  style="flood-color:white;flood-opacity:1" result="back"/>
					<feBlend  in="SourceGraphic" in2="back" mode="normal"/>
				</filter>
			</defs>
			<mask maskUnits="userSpaceOnUse" x="19.9" y="9.3" width="9" height="2.6" id="SVGID_26_">
				<g filter="url(#Adobe_OpacityMaskFilter_10_)">
					<defs>
						<filter id="Adobe_OpacityMaskFilter_11_" filterUnits="userSpaceOnUse" x="19.9" y="9.3" width="9" height="2.6">
							<feFlood  style="flood-color:white;flood-opacity:1" result="back"/>
							<feBlend  in="SourceGraphic" in2="back" mode="normal"/>
						</filter>
					</defs>
					<mask maskUnits="userSpaceOnUse" x="19.9" y="9.3" width="9" height="2.6" id="SVGID_26_">
						<g filter="url(#Adobe_OpacityMaskFilter_11_)">
						</g>
					</mask>
					<linearGradient id="SVGID_27_" gradientUnits="userSpaceOnUse" x1="20.7041" y1="9.4079" x2="27.976" y2="13.0494">
						<stop  offset="1.621620e-002" style="stop-color:#1E1E1E"/>
						<stop  offset="0.2695" style="stop-color:#FFFFFF"/>
						<stop  offset="0.3906" style="stop-color:#FFFFFF"/>
						<stop  offset="0.652" style="stop-color:#FFFFFF"/>
						<stop  offset="0.9027" style="stop-color:#000000"/>
					</linearGradient>
					<path clip-path="url(#SVGID_25_)" mask="url(#SVGID_26_)" fill="url(#SVGID_27_)" d="M19.9,11.9c0.5-0.7,1.2-1.2,1.9-1.7
						c0.7-0.4,1.6-0.8,2.4-0.9c0.9-0.1,1.8,0,2.6,0.3c0.8,0.3,1.5,0.8,2.1,1.5c-0.7-0.4-1.5-0.7-2.3-0.9c-0.8-0.2-1.6-0.2-2.3-0.1
						c-0.8,0.1-1.5,0.3-2.3,0.7C21.3,11,20.6,11.4,19.9,11.9z"/>
				</g>
			</mask>
			<linearGradient id="SVGID_28_" gradientUnits="userSpaceOnUse" x1="20.7041" y1="9.4079" x2="27.976" y2="13.0494">
				<stop  offset="1.621620e-002" style="stop-color:#D8202A"/>
				<stop  offset="0.2695" style="stop-color:#E32A2C"/>
				<stop  offset="0.3906" style="stop-color:#F3B5B6"/>
				<stop  offset="0.652" style="stop-color:#E32A2C"/>
				<stop  offset="0.9027" style="stop-color:#E32A2C"/>
			</linearGradient>
			<path opacity="0.6" clip-path="url(#SVGID_25_)" fill="url(#SVGID_28_)" d="M19.9,11.9c0.5-0.7,1.2-1.2,1.9-1.7
				c0.7-0.4,1.6-0.8,2.4-0.9c0.9-0.1,1.8,0,2.6,0.3c0.8,0.3,1.5,0.8,2.1,1.5c-0.7-0.4-1.5-0.7-2.3-0.9c-0.8-0.2-1.6-0.2-2.3-0.1
				c-0.8,0.1-1.5,0.3-2.3,0.7C21.3,11,20.6,11.4,19.9,11.9z"/>
		</g>
		<g>
			<defs>
				<path id="SVGID_29_" d="M39.9,4.9c-3.7,0-6.9,1.9-8.9,4.7c1.5,1.8,2.2,4,2.2,6.1c0,0,0,0,0,0c0-3.6,3-6.6,6.6-6.6
					c6.5,0,10.6,6.8,7.6,14.2C54.2,16.4,49.4,4.9,39.9,4.9z"/>
			</defs>
			<clipPath id="SVGID_30_">
				<use xlink:href="#SVGID_29_"  overflow="visible"/>
			</clipPath>
			<g opacity="0.6" clip-path="url(#SVGID_30_)">
				<defs>
					<filter id="Adobe_OpacityMaskFilter_12_" filterUnits="userSpaceOnUse" x="39.9" y="9" width="8.9" height="14.2">
						<feFlood  style="flood-color:white;flood-opacity:1" result="back"/>
						<feBlend  in="SourceGraphic" in2="back" mode="normal"/>
					</filter>
				</defs>
				<mask maskUnits="userSpaceOnUse" x="39.9" y="9" width="8.9" height="14.2" id="SVGID_31_">
					<g filter="url(#Adobe_OpacityMaskFilter_12_)">
						<defs>
							<filter id="Adobe_OpacityMaskFilter_13_" filterUnits="userSpaceOnUse" x="39.9" y="9" width="8.9" height="14.2">
								<feFlood  style="flood-color:white;flood-opacity:1" result="back"/>
								<feBlend  in="SourceGraphic" in2="back" mode="normal"/>
							</filter>
						</defs>
						<mask maskUnits="userSpaceOnUse" x="39.9" y="9" width="8.9" height="14.2" id="SVGID_31_">
							<g filter="url(#Adobe_OpacityMaskFilter_13_)">
							</g>
						</mask>
						<linearGradient id="SVGID_32_" gradientUnits="userSpaceOnUse" x1="41.8372" y1="7.5756" x2="49.7573" y2="22.2848">
							<stop  offset="1.621620e-002" style="stop-color:#1E1E1E"/>
							<stop  offset="0.2919" style="stop-color:#FFFFFF"/>
							<stop  offset="0.5108" style="stop-color:#FFFFFF"/>
							<stop  offset="0.6946" style="stop-color:#FFFFFF"/>
							<stop  offset="0.9027" style="stop-color:#000000"/>
						</linearGradient>
						<path mask="url(#SVGID_31_)" fill="url(#SVGID_32_)" d="M39.9,9c1.6-0.2,3.3,0.2,4.7,1.1c1.4,0.8,2.6,2.1,3.3,3.6
							c0.7,1.5,1,3.2,0.9,4.8c-0.1,1.6-0.6,3.2-1.3,4.7c0.4-1.5,0.7-3.1,0.7-4.7c0-1.6-0.4-3.1-1-4.5c-0.7-1.4-1.7-2.6-2.9-3.5
							C43,9.7,41.5,9.2,39.9,9z"/>
					</g>
				</mask>
				<linearGradient id="SVGID_33_" gradientUnits="userSpaceOnUse" x1="41.8372" y1="7.5756" x2="49.7573" y2="22.2848">
					<stop  offset="1.621620e-002" style="stop-color:#D8202A"/>
					<stop  offset="0.2919" style="stop-color:#E32A2C"/>
					<stop  offset="0.5108" style="stop-color:#F3B5B6"/>
					<stop  offset="0.6946" style="stop-color:#E32A2C"/>
					<stop  offset="0.9027" style="stop-color:#E32A2C"/>
				</linearGradient>
				<path fill="url(#SVGID_33_)" d="M39.9,9c1.6-0.2,3.3,0.2,4.7,1.1c1.4,0.8,2.6,2.1,3.3,3.6c0.7,1.5,1,3.2,0.9,4.8
					c-0.1,1.6-0.6,3.2-1.3,4.7c0.4-1.5,0.7-3.1,0.7-4.7c0-1.6-0.4-3.1-1-4.5c-0.7-1.4-1.7-2.6-2.9-3.5C43,9.7,41.5,9.2,39.9,9z"/>
			</g>
		</g>
		<linearGradient id="SVGID_34_" gradientUnits="userSpaceOnUse" x1="22.6183" y1="3.6668" x2="22.6183" y2="6.2055">
			<stop  offset="1.621620e-002" style="stop-color:#D8202A"/>
			<stop  offset="0.1748" style="stop-color:#E32A2C"/>
			<stop  offset="0.3702" style="stop-color:#EF8078"/>
			<stop  offset="0.7058" style="stop-color:#E32A2C"/>
			<stop  offset="0.9027" style="stop-color:#E32A2C"/>
		</linearGradient>
		<path fill="url(#SVGID_34_)" d="M28.8,3.7c-2.4,0.2-3.9,1.5-4.9,1.9c-2.8,1.1-5.5,1-7.3-1.8c0,0,0-0.1-0.1-0.1c0.1,0,6.9,0,10.3,0
			c0.9,0,1.5,0,1.8,0C28.7,3.7,28.8,3.7,28.8,3.7z"/>
		<g>
			<path fill="#FFFFFF" d="M43.6,23.9C43.6,23.9,43.6,24,43.6,23.9c-0.2,0.3-0.4,0.7-0.6,0.8c-0.2,0-0.3-0.4-0.3-0.7
				c0-0.1,0-0.2,0-0.3c0-0.1,0-0.1-0.1-0.1c-0.1,0-0.2,0.1-0.2,0.2c-0.2,0.3-0.3,0.6-0.5,0.9c0-0.2,0.1-1.3-0.1-1.3
				c-0.1,0-0.2,0.1-0.2,0.2c-0.1,0.1-0.2,0.3-0.2,0.4c-0.2,0.3-0.3,0.5-0.5,0.8c0.1-0.2,0.2-0.9,0.2-1c0-0.2-0.3,0-0.3,0.1
				c0,0.1,0,0.4-0.1,0.6c0,0.2-0.1,0.3-0.3,0.4c-0.1,0.1-0.2,0.1-0.3,0.2c-0.2,0.1-0.4,0.2-0.6,0.2c-0.2,0-0.3-0.1-0.3-0.3
				c0-0.1,0-0.2,0-0.3c0.2-0.1,0.3-0.2,0.5-0.4c0.2-0.2,0.3-0.4,0.3-0.5c0,0,0-0.1,0-0.1c0,0-0.1-0.1-0.1-0.1
				c-0.2,0-0.5,0.2-0.7,0.5c-0.1,0.1-0.1,0.2-0.1,0.2c0,0.1-0.2,0.2-0.2,0.3c-0.1,0.1-0.2,0.3-0.3,0.4c-0.1,0.1-0.3,0.2-0.4,0.2
				c-0.1,0-0.2-0.1-0.2-0.3c0-0.3,0.1-0.7,0.3-1c0,0,0-0.1,0-0.1c0-0.1-0.1-0.2-0.2-0.2c0,0-0.1,0-0.1,0.1c-0.1,0.1-0.1,0.2-0.2,0.2
				c0,0.1-0.1,0.1-0.1,0.2c-0.1,0.1-0.5,0.9-0.9,1c0,0-0.2,0.1-0.2-0.2c0-0.1,0-0.2,0.1-0.3c0-0.1,0.1-0.2,0-0.3c0,0-0.1,0-0.1,0
				c0,0-0.1,0-0.1,0c0,0-0.1,0.1-0.1,0.2c0,0.1-0.1,0.3,0,0.4c0,0.1,0.1,0.2,0.2,0.3c0.1,0.1,0.3,0.1,0.4,0c0.2-0.1,0.4-0.4,0.5-0.5
				c0.2-0.2,0.3-0.5,0.4-0.6c-0.1,0.3-0.1,0.5-0.1,0.8c0,0.3,0.1,0.5,0.4,0.5c0.4,0,0.7-0.3,0.9-0.6c0,0.1,0,0.1,0,0.2
				c0,0.4,0.2,0.6,0.5,0.6c0.2,0,0.4-0.1,0.7-0.3c0.1-0.1,0.2-0.2,0.3-0.3c0,0.1-0.1,0.2-0.1,0.3c0,0.1,0,0.3,0.1,0.1
				c0.2-0.3,0.8-1.3,0.9-1.5c0,0,0.1,0,0.1,0c0,0.5,0,0.9,0,1.1c0,0.1,0.2,0.3,0.3,0c0.1-0.3,0.4-0.8,0.5-0.9c0,0,0,0,0,0
				c0,0.1,0.1,0.4,0.1,0.5c0,0.2,0.1,0.4,0.4,0.4C43.1,24.9,43.4,24.6,43.6,23.9C43.7,24,43.7,23.9,43.6,23.9z M39.7,24
				c0.1-0.2,0.3-0.3,0.3-0.3c0.1,0,0.1,0,0.1,0.1c0,0.1-0.1,0.2-0.2,0.4c-0.1,0.1-0.3,0.2-0.4,0.3C39.6,24.4,39.6,24.2,39.7,24z"/>
			<circle fill="#FFFFFF" cx="44.5" cy="23.2" r="0.2"/>
			<circle fill="#FFFFFF" cx="35.9" cy="23.5" r="0.2"/>
			<path fill="#FFFFFF" d="M43.8,22C43.8,22,43.8,21.9,43.8,22c-0.1,0-0.1,0-0.1,0.1c0.1,0.1,0.1,0.2,0.1,0.3c0,0.1-0.1,0.2-0.4,0.3
				c-0.2,0-0.5,0-0.7-0.1c-0.6-0.1-1.6,0.2-1.4,0.9c0,0.1,0.1,0,0.1,0c-0.1-0.3,0.1-0.5,0.4-0.6c0.7-0.3,1.5,0.3,2-0.1
				c0.1-0.1,0.2-0.2,0.2-0.3C44,22.2,43.9,22,43.8,22z"/>
		</g>
	</g>
	<path fill="#3C3C3B" d="M70.8,13c-3.3,0-5.6,2.5-5.6,5.9c0,3.5,2.3,5.9,5.6,5.9c3.3,0,5.6-2.4,5.6-5.9C76.4,15.4,74,13,70.8,13z
		 M74.8,18.9c0,2.7-1.6,4.5-4,4.5c-2.4,0-4-1.8-4-4.5c0-2.7,1.6-4.5,4-4.5C73.2,14.4,74.8,16.1,74.8,18.9z M85.9,13H81l0,0.1
		c-0.6,4.3-1.9,7.9-3.4,10h-0.7v3h1.6v-1.6h7.3v1.6h1.6v-3h-1.3V13z M84.3,14.4v8.8h-5c0.7-1.2,2.2-4.1,2.9-8.8H84.3z M90.9,23.2
		h4.3v1.4h-5.9V13h5.8l-0.5,1.4h-3.7V18h3.7v1.4h-3.7V23.2z M115,23.9l-0.1,0.1c-1,0.5-2.1,0.8-3.2,0.8c-3.4,0-5.5-2.3-5.5-5.8
		c0-3.5,2.4-6,5.7-6c1.3,0,2.3,0.3,2.9,0.6l0.1,0v1.6l-0.2-0.1c-0.9-0.5-1.7-0.7-2.7-0.7c-2.4,0-4.1,1.9-4.1,4.5
		c0,2.7,1.6,4.5,4,4.5c0.9,0,1.7-0.2,2.6-0.7l0.2-0.1L115,23.9z M60.9,18.8c0.5,0.3,0.8,0.9,1.3,1.7l2.2,4.1h-1.8l-2-3.8
		c-0.7-1.2-1.1-1.3-1.2-1.3h-1.6v5.1h-1.6V13h1.6v5h1.6c0.1,0,0.6-0.1,1.2-1.3l1.9-3.7h1.8l-2.2,4C61.7,17.9,61.3,18.5,60.9,18.8z
		 M101.8,18.8c0.5,0.3,0.8,0.9,1.3,1.7l2.2,4.1h-1.8l-2-3.8c-0.7-1.2-1.1-1.3-1.2-1.3h-1.6v5.1h-1.6l0-11.6h1.6l0,5h1.6
		c0.1,0,0.6-0.1,1.2-1.3l1.9-3.7h1.8l-2.2,4C102.7,17.9,102.3,18.5,101.8,18.8z M64,4.9c-1.7,0-2.9,1.3-2.9,3.2
		c0,1.9,1.3,3.1,2.9,3.1c1.6,0,2.9-1.2,2.9-3.1C67,6.3,65.7,4.9,64,4.9z M64,10.8c-1.5,0-2.4-1.1-2.4-2.7c0-1.6,1-2.7,2.4-2.7
		c1.6,0,2.4,1.2,2.4,2.7C66.4,9.7,65.5,10.8,64,10.8z M72.4,5h0.5v6.1h-0.5V8.2h-3.6v2.9h-0.5V5h0.5v2.8h3.6V5z M78.8,10.4l0.1,0.4
		c-0.5,0.3-1.1,0.4-1.6,0.4c-1.8,0-2.9-1.3-2.9-3.1c0-1.8,1.2-3.2,3-3.2c0.6,0,1.2,0.2,1.5,0.3v0.5c-0.4-0.2-0.8-0.4-1.5-0.4
		C76,5.4,75,6.6,75,8.1c0,1.6,0.9,2.7,2.4,2.7C77.9,10.8,78.3,10.6,78.8,10.4z M82.7,4.9c-1.7,0-2.9,1.3-2.9,3.2
		c0,1.9,1.3,3.1,2.9,3.1c1.6,0,2.9-1.2,2.9-3.1C85.6,6.3,84.4,4.9,82.7,4.9z M82.7,10.8c-1.5,0-2.4-1.1-2.4-2.7c0-1.6,1-2.7,2.4-2.7
		c1.6,0,2.4,1.2,2.4,2.7C85.1,9.7,84.1,10.8,82.7,10.8z M89.4,5.3C89,5.1,88.7,5,88,5h-1v6.1h0.5V8.8H88c0.6,0,0.9-0.1,1.2-0.2
		c0.7-0.3,1-0.9,1-1.7C90.2,6.1,89.9,5.6,89.4,5.3z M89,8.2c-0.2,0.1-0.5,0.2-1,0.2h-0.5v-3h0.5c0.5,0,0.8,0.1,1,0.2
		c0.4,0.2,0.6,0.7,0.6,1.3C89.7,7.5,89.5,7.9,89,8.2z M96.4,12h-0.5v-0.8h-4.4V5H92v5.7h3.3V5h0.5v5.7h0.7V12z M102,5h0.4v6.1h-0.5
		V6.9c0-0.5,0-0.8,0-1.1h0c-0.2,0.3-0.5,0.7-0.9,1.3l-3.1,4.1h-0.4V5H98v4.2c0,0.5,0,0.8,0,1.1h0c0.2-0.3,0.5-0.8,1-1.4L102,5z
		 M107.6,5h0.5L106,9.8c-0.4,1-0.9,1.4-1.6,1.4c-0.1,0-0.2,0-0.3,0v-0.5c0.1,0,0.2,0,0.3,0c0.6,0,0.9-0.5,1.2-1.3L103.6,5h0.6
		l1.8,3.8h0L107.6,5z M114.8,5v6.1h-0.5V7c0-0.3,0-0.8,0-1.1h0c-0.1,0.3-0.3,0.6-0.4,0.8l-1.7,2.7h-0.3l-1.8-2.7
		c-0.1-0.2-0.3-0.5-0.4-0.7h0c0,0.3,0,0.8,0,1.1v4.2h-0.5V5h0.5l1.8,2.7c0.3,0.4,0.4,0.7,0.6,0.9h0c0.2-0.3,0.3-0.5,0.6-1l1.7-2.7
		H114.8z M58.2,8c0.3,0.1,0.6,0.5,0.9,1.1l1.1,2h-0.6l-1.1-2c-0.3-0.6-0.6-0.8-0.8-0.8h-1v2.1v0.8h-0.5V5h0.5v2.2v0.6h1
		c0.2,0,0.5-0.3,0.8-0.8l1.1-2h0.6l-1.1,2C58.8,7.5,58.5,7.9,58.2,8z"/>
</g>
</svg>
