<?xml version="1.0" encoding="utf-8"?>
<!-- Generator: Adobe Illustrator 17.1.0, SVG Export Plug-In . SVG Version: 6.00 Build 0)  -->
<!DOCTYPE svg PUBLIC "-//W3C//DTD SVG 1.1//EN" "http://www.w3.org/Graphics/SVG/1.1/DTD/svg11.dtd">
<svg version="1.1" id="Слой_1" xmlns="http://www.w3.org/2000/svg" xmlns:xlink="http://www.w3.org/1999/xlink" x="0px" y="0px"
	 viewBox="0 0 130 30" enable-background="new 0 0 130 30" xml:space="preserve">
<radialGradient id="SVGID_1_" cx="87.7248" cy="7.6332" r="89.1436" fx="87.5819" fy="6.9607" gradientTransform="matrix(0.7643 0 0 -0.6768 0 21.5247)" gradientUnits="userSpaceOnUse">
	<stop  offset="0" style="stop-color:#F4F8FA"/>
	<stop  offset="0.9302" style="stop-color:#EDF2F5"/>
	<stop  offset="1" style="stop-color:#ECF1F4"/>
</radialGradient>
<rect y="0" fill="url(#SVGID_1_)" width="130" height="30"/>
<g>
	<g>
		<linearGradient id="SVGID_2_" gradientUnits="userSpaceOnUse" x1="20.1577" y1="9.5176" x2="34.3066" y2="16.572">
			<stop  offset="0" style="stop-color:#871722"/>
			<stop  offset="2.292378e-002" style="stop-color:#A01A24"/>
			<stop  offset="5.102381e-002" style="stop-color:#B81D26"/>
			<stop  offset="8.097196e-002" style="stop-color:#C91F28"/>
			<stop  offset="0.1137" style="stop-color:#D32129"/>
			<stop  offset="0.1546" style="stop-color:#D62129"/>
			<stop  offset="0.2912" style="stop-color:#B21F2B"/>
			<stop  offset="0.3705" style="stop-color:#981920"/>
			<stop  offset="0.4639" style="stop-color:#B82429"/>
			<stop  offset="0.6019" style="stop-color:#E22A2A"/>
			<stop  offset="0.6862" style="stop-color:#D42128"/>
			<stop  offset="0.776" style="stop-color:#AB1C23"/>
			<stop  offset="0.8295" style="stop-color:#981920"/>
			<stop  offset="0.8763" style="stop-color:#871722"/>
			<stop  offset="0.9192" style="stop-color:#9F1C24"/>
			<stop  offset="0.9656" style="stop-color:#83171F"/>
			<stop  offset="1" style="stop-color:#7F2631"/>
		</linearGradient>
		<path fill="url(#SVGID_2_)" d="M21.4,11.7c3.4-0.7,6.9,1.6,7.5,5.2c0.2-1.7,0.3-3.3,0.9-5c0,0-0.1,0-0.1-0.1l0,0
			c0,0-1.7-1.6-3.7-2.1c-0.1,0-0.2,0-0.3,0c-1.5-0.2-3.3,0.6-3.9,0.9c-0.6,0.3-1.5,0.9-2,1.3c0,0.1-0.1,0.1,0,0.2
			c0.1,0.1,0.2,0.1,0.3,0v0C20.5,11.9,21,11.8,21.4,11.7z"/>
		<path fill="#9A1915" d="M24,7.7l-2.1,2.1c-1.3,1.3-1.8,1.8-2,2c0.5-0.4,1.4-1,2-1.3c0.6-0.3,2.4-1.1,3.9-0.9
			c0.2-0.3,2.6-2.7,2.7-2.8h0c0.8-0.9,0.7-1.8,0.7-2.6c0-0.3-0.2-0.5-0.5-0.5v0H16.5c0,2.3,1.8,4.1,4.1,4.1H24z"/>
		<g>
			<linearGradient id="SVGID_3_" gradientUnits="userSpaceOnUse" x1="14.8817" y1="19.3564" x2="28.2921" y2="21.8584">
				<stop  offset="9.729730e-002" style="stop-color:#D42132"/>
				<stop  offset="0.2432" style="stop-color:#D62129"/>
				<stop  offset="0.3452" style="stop-color:#C22126"/>
				<stop  offset="0.4529" style="stop-color:#B82429"/>
				<stop  offset="0.6323" style="stop-color:#E22A2A"/>
				<stop  offset="0.6438" style="stop-color:#DD2929"/>
				<stop  offset="0.7681" style="stop-color:#AB1D23"/>
				<stop  offset="0.8295" style="stop-color:#981920"/>
				<stop  offset="0.8763" style="stop-color:#871722"/>
				<stop  offset="0.9192" style="stop-color:#9F1C24"/>
				<stop  offset="0.9656" style="stop-color:#83171F"/>
				<stop  offset="1" style="stop-color:#421417"/>
			</linearGradient>
			<path fill="url(#SVGID_3_)" d="M28.9,16.8c-1.6,5.9-8.9,8.3-13.7,2.5c-0.1-0.1-0.2,0-0.2,0.1c0.9,3.1,3.1,5.5,6.3,6.2
				C28.3,24.4,28.8,18,28.9,16.8z"/>
		</g>
		<linearGradient id="SVGID_4_" gradientUnits="userSpaceOnUse" x1="23.4942" y1="31.7339" x2="48.9375" y2="6.6956">
			<stop  offset="0" style="stop-color:#7F2631"/>
			<stop  offset="3.436400e-002" style="stop-color:#83171F"/>
			<stop  offset="5.650710e-002" style="stop-color:#9F1C24"/>
			<stop  offset="6.089880e-002" style="stop-color:#871722"/>
			<stop  offset="0.1055" style="stop-color:#981920"/>
			<stop  offset="0.18" style="stop-color:#B01F23"/>
			<stop  offset="0.306" style="stop-color:#E22A2A"/>
			<stop  offset="0.3212" style="stop-color:#D8292A"/>
			<stop  offset="0.3555" style="stop-color:#C62629"/>
			<stop  offset="0.3921" style="stop-color:#BB2429"/>
			<stop  offset="0.4348" style="stop-color:#B82429"/>
			<stop  offset="0.44" style="stop-color:#B52328"/>
			<stop  offset="0.4967" style="stop-color:#981B1F"/>
			<stop  offset="0.529" style="stop-color:#8D181C"/>
			<stop  offset="0.6198" style="stop-color:#B21F2B"/>
			<stop  offset="0.8595" style="stop-color:#D6222A"/>
			<stop  offset="0.9051" style="stop-color:#B61E27"/>
			<stop  offset="0.9613" style="stop-color:#941923"/>
			<stop  offset="0.9918" style="stop-color:#871722"/>
		</linearGradient>
		<path fill="url(#SVGID_4_)" d="M39.9,4.9c-3.7,0-6.9,1.9-8.9,4.7c0,0,0,0,0,0c0,0,0,0,0,0c-1.8,2.6-1.9,4.9-2.1,7.3
			c-0.1,1.1-0.6,7.6-7.6,8.8c1.2,0.3,2.4,0.3,2.9,0.3c5.5-0.4,9.2-5.3,9.1-10.3c0,0,0,0,0,0c0-3.6,3-6.6,6.6-6.6
			c6.5,0,10.6,6.8,7.6,14.2C54.2,16.4,49.4,4.9,39.9,4.9z"/>
		<linearGradient id="SVGID_5_" gradientUnits="userSpaceOnUse" x1="32.0624" y1="13.8921" x2="50.8478" y2="23.2582">
			<stop  offset="0" style="stop-color:#871722"/>
			<stop  offset="0.113" style="stop-color:#D62129"/>
			<stop  offset="0.2246" style="stop-color:#981920"/>
			<stop  offset="0.4211" style="stop-color:#B82429"/>
			<stop  offset="0.4308" style="stop-color:#BA2429"/>
			<stop  offset="0.5588" style="stop-color:#D7282A"/>
			<stop  offset="0.6323" style="stop-color:#E22A2A"/>
			<stop  offset="0.7678" style="stop-color:#B01F23"/>
			<stop  offset="0.8295" style="stop-color:#981920"/>
			<stop  offset="0.8763" style="stop-color:#871722"/>
			<stop  offset="0.9192" style="stop-color:#9F1C24"/>
			<stop  offset="0.9656" style="stop-color:#83171F"/>
			<stop  offset="1" style="stop-color:#7F2631"/>
		</linearGradient>
		<path fill="url(#SVGID_5_)" d="M47.8,22.5c0,0,0-0.1,0-0.1c0-0.1,0.1-0.1,0.1-0.2c0,0,0,0,0,0c0.8-2.5,0.8-4.9,0.2-7c0,0,0,0,0,0
			c0-0.1,0-0.1-0.1-0.2c0,0,0-0.1,0-0.1c0-0.1,0-0.1-0.1-0.2c0,0,0-0.1,0-0.1c0,0,0-0.1,0-0.1c0-0.1,0-0.1-0.1-0.2c0,0,0,0,0,0
			c-0.6-1.3-1.4-2.5-2.5-3.4c0,0,0,0,0,0c0,0-0.1-0.1-0.1-0.1c0,0-0.1-0.1-0.1-0.1c0,0-0.1,0-0.1-0.1c-0.1,0-0.1-0.1-0.2-0.1
			c0,0,0,0,0,0c-0.9-0.6-1.9-1-3-1.3C41.3,9.1,41,9.1,40.6,9c3.3,0.3,5.9,3.2,5.9,6.6c0,3.6-3,6.6-6.6,6.6c-3.5,0-6.4-2.7-6.6-6.1
			c0,0,0,0,0,0c-0.1,2.1-0.8,4.2-2,5.9c3.9,5.3,11.6,5.9,16.2,1.2C47.6,23,47.7,22.7,47.8,22.5C47.7,22.5,47.7,22.5,47.8,22.5z"/>
		<g>
			<g>
				<path fill="#3C3C3B" d="M42.2,12.9c-1.5,0-2.7,1.2-2.7,2.7c0,1.2,0.8,2.3,1.9,2.6c0,0,0.1,0,0.1,0c0,0,0.1,0,0.1,0
					c0.1,0,0.2,0,0.3,0c0.1,0,0.2,0,0.3,0c0,0,0,0,0,0c0,0,0,0,0,0c0,0,0,0,0,0c-0.1-0.1-0.2-0.2-0.3-0.3c-0.1-0.1-0.1-0.3-0.1-0.6
					l0-1.2c0,0,0.4,0,0.4,0c0.2,0,0.4,0.1,0.4,0.6l0,0.7c0,0.3,0,0.5,0.2,0.6c0.1,0,0.1,0.1,0.2,0.1c0,0,0.1,0,0.1,0c0,0,0,0,0.1,0
					c1-0.4,1.7-1.4,1.7-2.5C44.9,14.2,43.7,12.9,42.2,12.9z M42.7,15.5c0,0,0,0.1-0.1,0.1H42c-0.1,0-0.1-0.1-0.1-0.1v-0.8
					c0,0,0-0.1,0.1-0.1l0.6,0c0.1,0,0.1,0.1,0.1,0.1V15.5z M43.2,17.6l0-0.9c0-0.3-0.1-0.5-0.2-0.6C42.9,16,42.8,16,42.7,16
					c0.2,0,0.5-0.2,0.5-0.5c0,0,0-0.1,0-0.2c0-0.2,0-0.6,0-0.6c0-0.5-0.3-0.6-0.4-0.6c0,0-0.1,0-0.1,0h-1c-0.2,0-0.4,0.1-0.4,0.6v3
					c-0.7-0.3-1.2-1.1-1.2-1.9c0-1.2,1-2.1,2.1-2.1c1.2,0,2.1,1,2.1,2.1C44.3,16.5,43.9,17.2,43.2,17.6z"/>
				<path fill="#3C3C3B" d="M39.6,14.1C39.6,14.1,39.6,14.1,39.6,14.1C39.6,14.1,39.6,14.1,39.6,14.1c-0.1-0.1-0.1-0.2-0.1-0.2
					c-0.1-0.1-0.2-0.2-0.3-0.3c-0.3-0.2-0.6-0.4-1-0.5c-1.4-0.5-3,0.4-3.4,1.8c-0.3,1.1,0,2.2,0.8,2.9c0.3,0.2,0.6,0.4,1,0.5
					c0.6,0.2,1.2,0.2,1.7,0c0,0,0.1,0,0.2-0.1c0,0,0,0,0,0c0,0,0,0,0,0c0.1,0,0.1-0.1,0.2-0.1c0.1-0.1,0.1-0.1,0.2-0.2c0,0,0,0,0,0
					c0,0,0,0,0,0c0.1-0.2,0-0.4-0.2-0.5c0,0,0,0,0,0c0,0,0,0,0,0c0,0,0,0,0,0c-0.2-0.1-0.5-0.2-0.5-0.2C37.9,17,37.6,17,37.3,17
					c-0.4,0-0.7,0-0.9,0.1c0,0,0,0,0,0c0,0,0,0,0,0c0,0,0.1-0.1,0.2-0.1c0.2-0.2,0.6-0.4,1-0.6c0,0,0.1,0,0.1,0c0,0,0,0,0,0
					c0,0,0.1,0,0.1,0c0,0,0,0,0.1,0h0c0,0,0.1,0,0.1,0c0,0,0.1-0.2,0.3-0.5c0.1-0.3,0.3-0.6,0.5-0.7c0,0,0,0,0,0
					c-0.3-0.4-0.7-0.6-0.7-0.6c0,0.1-0.1,0.1-0.1,0.2c-0.3,0.3-0.9,0.8-0.9,0.8s0,0.3-0.1,0.7c-0.1,0.5-0.4,0.9-0.4,1c0,0,0,0,0,0
					c0,0-0.1,0-0.1,0c0,0,0,0.1,0,0.1c0,0,0,0,0,0c0,0,0,0,0.1,0c0,0,0,0,0,0c0,0,0,0,0.1,0c0,0,0.1,0,0.1,0c0.2,0,0.4,0,0.6,0
					c0.5,0,0.8,0.2,1,0.4c0.3,0.2,0,0.4-0.1,0.4c-0.5,0.2-1,0.2-1.5,0c-0.3-0.1-0.6-0.3-0.8-0.5c-0.7-0.6-1-1.6-0.7-2.5
					c0.4-1.2,1.7-1.9,2.9-1.5c0,0,0,0,0,0c0,0,0,0,0.1,0c0,0,0.1,0,0.1,0c0,0,0,0,0,0c0,0,0,0,0,0c0,0,0,0,0.1,0.1c0,0,0,0,0,0
					c0,0,0,0,0,0c0,0,0,0,0,0c0,0,0,0,0,0v0c0,0,0,0,0,0c0,0,0,0,0,0c0,0,0,0,0,0l0,0c0,0,0,0,0,0c0,0,0,0,0,0c0,0,0,0,0,0
					c0,0,0,0-0.1,0c0,0,0,0,0,0c0,0,0,0,0,0h0c0,0,0,0,0,0c0,0-0.1,0-0.1,0.1c0,0,0,0.1,0,0.1c0,0,0,0,0,0l0,0c0,0,0,0,0,0
					c0,0,0,0,0,0l0,0c0,0,0,0,0,0l0,0l0.1,0c0,0,0,0,0,0c0.1,0,0.2,0.1,0.3,0.2l0.1,0c0,0,0.1,0.1,0.2,0.2l0.1,0.2c0,0,0,0,0,0l0,0
					c0,0,0,0,0,0c0.1,0.1,0.2,0,0.2,0c0,0,0,0,0-0.1c0,0,0,0,0,0c0,0,0,0,0,0v0c0,0,0,0,0,0c0,0,0,0,0,0c0,0,0,0,0,0c0,0,0,0,0,0
					c0,0,0,0,0,0c0,0,0-0.1,0-0.1L39.6,14.1z M36.4,17l1-1.2c0,0,0-0.1,0-0.1c0,0,0.1-0.1,0.2,0c0,0,0.1,0.1,0,0.2c0,0-0.1,0-0.1,0
					L36.4,17z"/>
			</g>
		</g>
		<g>
			<defs>
				<path id="SVGID_6_" d="M39.9,4.9c-3.7,0-6.9,1.9-8.9,4.7c-1.8,2.6-1.9,4.9-2.1,7.3c-0.1,1.1-0.6,7.6-7.6,8.8
					c1.2,0.3,2.4,0.3,2.9,0.3c5.5-0.4,9.2-5.3,9.1-10.3c0,0,0,0,0,0c0,0,0,0,0,0c0-3.6,3-6.6,6.6-6.6c6.5,0,10.6,6.8,7.6,14.2
					C54.2,16.4,49.4,4.9,39.9,4.9z"/>
			</defs>
			<clipPath id="SVGID_7_">
				<use xlink:href="#SVGID_6_"  overflow="visible"/>
			</clipPath>
			<g opacity="0.6" clip-path="url(#SVGID_7_)">
				<defs>
					<filter id="Adobe_OpacityMaskFilter" filterUnits="userSpaceOnUse" x="21.3" y="4.9" width="18.6" height="20.8">
						<feFlood  style="flood-color:white;flood-opacity:1" result="back"/>
						<feBlend  in="SourceGraphic" in2="back" mode="normal"/>
					</filter>
				</defs>
				<mask maskUnits="userSpaceOnUse" x="21.3" y="4.9" width="18.6" height="20.8" id="SVGID_8_">
					<g filter="url(#Adobe_OpacityMaskFilter)">
						<defs>
							<filter id="Adobe_OpacityMaskFilter_1_" filterUnits="userSpaceOnUse" x="21.3" y="4.9" width="18.6" height="20.8">
								<feFlood  style="flood-color:white;flood-opacity:1" result="back"/>
								<feBlend  in="SourceGraphic" in2="back" mode="normal"/>
							</filter>
						</defs>
						<mask maskUnits="userSpaceOnUse" x="21.3" y="4.9" width="18.6" height="20.8" id="SVGID_8_">
							<g filter="url(#Adobe_OpacityMaskFilter_1_)">
							</g>
						</mask>
						<linearGradient id="SVGID_9_" gradientUnits="userSpaceOnUse" x1="23.3592" y1="27.3046" x2="37.6213" y2="3.0924">
							<stop  offset="0" style="stop-color:#1E1E1E"/>
							<stop  offset="6.216220e-002" style="stop-color:#FFFFFF"/>
							<stop  offset="0.4541" style="stop-color:#FFFFFF"/>
							<stop  offset="0.6405" style="stop-color:#FFFFFF"/>
							<stop  offset="0.7595" style="stop-color:#FFFFFF"/>
							<stop  offset="1" style="stop-color:#000000"/>
						</linearGradient>
						<path mask="url(#SVGID_8_)" fill="url(#SVGID_9_)" d="M39.9,4.9c-0.3,0-0.6,0.1-1,0.1c-0.2,0-0.3,0-0.5,0.1L38,5.2
							c-0.6,0.2-1.2,0.3-1.8,0.6c-1.2,0.5-2.2,1.2-3.1,2c-0.9,0.8-1.7,1.8-2.3,2.9c-0.3,0.5-0.5,1.1-0.7,1.7
							c-0.2,0.6-0.3,1.2-0.4,1.8c-0.1,0.6-0.2,1.2-0.3,1.9l-0.1,1c0,0.3-0.1,0.7-0.1,1c-0.2,1.3-0.7,2.6-1.4,3.7
							c-0.4,0.6-0.8,1.1-1.2,1.6c-0.5,0.5-1,0.9-1.6,1.2c-0.6,0.3-1.2,0.6-1.8,0.8c-0.6,0.2-1.3,0.3-1.9,0.4
							c0.6-0.2,1.2-0.4,1.8-0.6c0.6-0.3,1.1-0.6,1.6-0.9c1-0.7,1.8-1.7,2.4-2.8c0.3-0.5,0.5-1.1,0.7-1.7c0.2-0.6,0.3-1.2,0.4-1.8
							c0-0.3,0.1-0.6,0.1-0.9l0.1-1c0.1-0.6,0.1-1.3,0.2-1.9c0.2-1.3,0.6-2.6,1.3-3.8c0.7-1.1,1.5-2.2,2.5-3c1-0.8,2.2-1.5,3.4-1.9
							l0.5-0.1L37,5.1c0.2,0,0.3-0.1,0.5-0.1c0.2,0,0.3-0.1,0.5-0.1C38.6,4.8,39.2,4.8,39.9,4.9z"/>
					</g>
				</mask>
				<linearGradient id="SVGID_10_" gradientUnits="userSpaceOnUse" x1="23.3592" y1="27.3046" x2="37.6213" y2="3.0924">
					<stop  offset="0" style="stop-color:#D8202A"/>
					<stop  offset="6.216220e-002" style="stop-color:#F19389"/>
					<stop  offset="0.4541" style="stop-color:#E32A2C"/>
					<stop  offset="0.6405" style="stop-color:#F3B5B6"/>
					<stop  offset="0.7595" style="stop-color:#E32A2C"/>
					<stop  offset="1" style="stop-color:#E32A2C"/>
				</linearGradient>
				<path fill="url(#SVGID_10_)" d="M39.9,4.9c-0.3,0-0.6,0.1-1,0.1c-0.2,0-0.3,0-0.5,0.1L38,5.2c-0.6,0.2-1.2,0.3-1.8,0.6
					c-1.2,0.5-2.2,1.2-3.1,2c-0.9,0.8-1.7,1.8-2.3,2.9c-0.3,0.5-0.5,1.1-0.7,1.7c-0.2,0.6-0.3,1.2-0.4,1.8c-0.1,0.6-0.2,1.2-0.3,1.9
					l-0.1,1c0,0.3-0.1,0.7-0.1,1c-0.2,1.3-0.7,2.6-1.4,3.7c-0.4,0.6-0.8,1.1-1.2,1.6c-0.5,0.5-1,0.9-1.6,1.2
					c-0.6,0.3-1.2,0.6-1.8,0.8c-0.6,0.2-1.3,0.3-1.9,0.4c0.6-0.2,1.2-0.4,1.8-0.6c0.6-0.3,1.1-0.6,1.6-0.9c1-0.7,1.8-1.7,2.4-2.8
					c0.3-0.5,0.5-1.1,0.7-1.7c0.2-0.6,0.3-1.2,0.4-1.8c0-0.3,0.1-0.6,0.1-0.9l0.1-1c0.1-0.6,0.1-1.3,0.2-1.9
					c0.2-1.3,0.6-2.6,1.3-3.8c0.7-1.1,1.5-2.2,2.5-3c1-0.8,2.2-1.5,3.4-1.9l0.5-0.1L37,5.1c0.2,0,0.3-0.1,0.5-0.1
					c0.2,0,0.3-0.1,0.5-0.1C38.6,4.8,39.2,4.8,39.9,4.9z"/>
			</g>
		</g>
		<g>
			<defs>
				<path id="SVGID_11_" d="M21.4,11.7c3.4-0.7,6.9,1.6,7.5,5.2c0.2-1.7,0.3-3.3,0.9-5c0,0-0.1,0-0.1-0.1l0,0c0,0-1.7-1.6-3.7-2.1
					c-0.1,0-0.2,0-0.3,0c-1.5-0.2-3.3,0.6-3.9,0.9c-0.6,0.3-1.5,0.9-2,1.3c0,0.1-0.1,0.1,0,0.2c0.1,0.1,0.2,0.1,0.3,0v0
					C20.5,11.9,21,11.8,21.4,11.7z"/>
			</defs>
			<clipPath id="SVGID_12_">
				<use xlink:href="#SVGID_11_"  overflow="visible"/>
			</clipPath>
			<defs>
				<filter id="Adobe_OpacityMaskFilter_2_" filterUnits="userSpaceOnUse" x="19.9" y="9.3" width="9" height="2.6">
					<feFlood  style="flood-color:white;flood-opacity:1" result="back"/>
					<feBlend  in="SourceGraphic" in2="back" mode="normal"/>
				</filter>
			</defs>
			<mask maskUnits="userSpaceOnUse" x="19.9" y="9.3" width="9" height="2.6" id="SVGID_13_">
				<g filter="url(#Adobe_OpacityMaskFilter_2_)">
					<defs>
						<filter id="Adobe_OpacityMaskFilter_3_" filterUnits="userSpaceOnUse" x="19.9" y="9.3" width="9" height="2.6">
							<feFlood  style="flood-color:white;flood-opacity:1" result="back"/>
							<feBlend  in="SourceGraphic" in2="back" mode="normal"/>
						</filter>
					</defs>
					<mask maskUnits="userSpaceOnUse" x="19.9" y="9.3" width="9" height="2.6" id="SVGID_13_">
						<g filter="url(#Adobe_OpacityMaskFilter_3_)">
						</g>
					</mask>
					<linearGradient id="SVGID_14_" gradientUnits="userSpaceOnUse" x1="20.7041" y1="9.4044" x2="27.976" y2="13.0459">
						<stop  offset="1.621620e-002" style="stop-color:#1E1E1E"/>
						<stop  offset="0.2695" style="stop-color:#FFFFFF"/>
						<stop  offset="0.3906" style="stop-color:#FFFFFF"/>
						<stop  offset="0.652" style="stop-color:#FFFFFF"/>
						<stop  offset="0.9027" style="stop-color:#000000"/>
					</linearGradient>
					<path clip-path="url(#SVGID_12_)" mask="url(#SVGID_13_)" fill="url(#SVGID_14_)" d="M19.9,11.9c0.5-0.7,1.2-1.2,1.9-1.7
						c0.7-0.4,1.6-0.8,2.4-0.9c0.9-0.1,1.8,0,2.6,0.3c0.8,0.3,1.5,0.8,2.1,1.5c-0.7-0.4-1.5-0.7-2.3-0.9c-0.8-0.2-1.6-0.2-2.3-0.1
						c-0.8,0.1-1.5,0.3-2.3,0.7C21.3,11,20.6,11.4,19.9,11.9z"/>
				</g>
			</mask>
			<linearGradient id="SVGID_15_" gradientUnits="userSpaceOnUse" x1="20.7041" y1="9.4044" x2="27.976" y2="13.0459">
				<stop  offset="1.621620e-002" style="stop-color:#D8202A"/>
				<stop  offset="0.2695" style="stop-color:#E32A2C"/>
				<stop  offset="0.3906" style="stop-color:#F3B5B6"/>
				<stop  offset="0.652" style="stop-color:#E32A2C"/>
				<stop  offset="0.9027" style="stop-color:#E32A2C"/>
			</linearGradient>
			<path opacity="0.6" clip-path="url(#SVGID_12_)" fill="url(#SVGID_15_)" d="M19.9,11.9c0.5-0.7,1.2-1.2,1.9-1.7
				c0.7-0.4,1.6-0.8,2.4-0.9c0.9-0.1,1.8,0,2.6,0.3c0.8,0.3,1.5,0.8,2.1,1.5c-0.7-0.4-1.5-0.7-2.3-0.9c-0.8-0.2-1.6-0.2-2.3-0.1
				c-0.8,0.1-1.5,0.3-2.3,0.7C21.3,11,20.6,11.4,19.9,11.9z"/>
		</g>
		<g>
			<defs>
				<path id="SVGID_16_" d="M39.9,4.9c-3.7,0-6.9,1.9-8.9,4.7c1.5,1.8,2.2,4,2.2,6.1c0,0,0,0,0,0c0-3.6,3-6.6,6.6-6.6
					c6.5,0,10.6,6.8,7.6,14.2C54.2,16.4,49.4,4.9,39.9,4.9z"/>
			</defs>
			<clipPath id="SVGID_17_">
				<use xlink:href="#SVGID_16_"  overflow="visible"/>
			</clipPath>
			<g opacity="0.6" clip-path="url(#SVGID_17_)">
				<defs>
					<filter id="Adobe_OpacityMaskFilter_4_" filterUnits="userSpaceOnUse" x="39.9" y="9" width="8.9" height="14.2">
						<feFlood  style="flood-color:white;flood-opacity:1" result="back"/>
						<feBlend  in="SourceGraphic" in2="back" mode="normal"/>
					</filter>
				</defs>
				<mask maskUnits="userSpaceOnUse" x="39.9" y="9" width="8.9" height="14.2" id="SVGID_18_">
					<g filter="url(#Adobe_OpacityMaskFilter_4_)">
						<defs>
							<filter id="Adobe_OpacityMaskFilter_5_" filterUnits="userSpaceOnUse" x="39.9" y="9" width="8.9" height="14.2">
								<feFlood  style="flood-color:white;flood-opacity:1" result="back"/>
								<feBlend  in="SourceGraphic" in2="back" mode="normal"/>
							</filter>
						</defs>
						<mask maskUnits="userSpaceOnUse" x="39.9" y="9" width="8.9" height="14.2" id="SVGID_18_">
							<g filter="url(#Adobe_OpacityMaskFilter_5_)">
							</g>
						</mask>
						<linearGradient id="SVGID_19_" gradientUnits="userSpaceOnUse" x1="41.8372" y1="7.572" x2="49.7573" y2="22.2813">
							<stop  offset="1.621620e-002" style="stop-color:#1E1E1E"/>
							<stop  offset="0.2919" style="stop-color:#FFFFFF"/>
							<stop  offset="0.5108" style="stop-color:#FFFFFF"/>
							<stop  offset="0.6946" style="stop-color:#FFFFFF"/>
							<stop  offset="0.9027" style="stop-color:#000000"/>
						</linearGradient>
						<path mask="url(#SVGID_18_)" fill="url(#SVGID_19_)" d="M39.9,9c1.6-0.2,3.3,0.2,4.7,1.1c1.4,0.8,2.6,2.1,3.3,3.6
							c0.7,1.5,1,3.2,0.9,4.8c-0.1,1.6-0.6,3.2-1.3,4.7c0.4-1.5,0.7-3.1,0.7-4.7c0-1.6-0.4-3.1-1-4.5c-0.7-1.4-1.7-2.6-2.9-3.5
							C43,9.7,41.5,9.1,39.9,9z"/>
					</g>
				</mask>
				<linearGradient id="SVGID_20_" gradientUnits="userSpaceOnUse" x1="41.8372" y1="7.572" x2="49.7573" y2="22.2813">
					<stop  offset="1.621620e-002" style="stop-color:#D8202A"/>
					<stop  offset="0.2919" style="stop-color:#E32A2C"/>
					<stop  offset="0.5108" style="stop-color:#F3B5B6"/>
					<stop  offset="0.6946" style="stop-color:#E32A2C"/>
					<stop  offset="0.9027" style="stop-color:#E32A2C"/>
				</linearGradient>
				<path fill="url(#SVGID_20_)" d="M39.9,9c1.6-0.2,3.3,0.2,4.7,1.1c1.4,0.8,2.6,2.1,3.3,3.6c0.7,1.5,1,3.2,0.9,4.8
					c-0.1,1.6-0.6,3.2-1.3,4.7c0.4-1.5,0.7-3.1,0.7-4.7c0-1.6-0.4-3.1-1-4.5c-0.7-1.4-1.7-2.6-2.9-3.5C43,9.7,41.5,9.1,39.9,9z"/>
			</g>
		</g>
		<linearGradient id="SVGID_21_" gradientUnits="userSpaceOnUse" x1="22.6183" y1="3.6632" x2="22.6183" y2="6.2019">
			<stop  offset="1.621620e-002" style="stop-color:#D8202A"/>
			<stop  offset="0.1748" style="stop-color:#E32A2C"/>
			<stop  offset="0.3702" style="stop-color:#EF8078"/>
			<stop  offset="0.7058" style="stop-color:#E32A2C"/>
			<stop  offset="0.9027" style="stop-color:#E32A2C"/>
		</linearGradient>
		<path fill="url(#SVGID_21_)" d="M28.8,3.7c-2.4,0.2-3.9,1.5-4.9,1.9c-2.8,1.1-5.5,1-7.3-1.8c0,0,0-0.1-0.1-0.1c0.1,0,6.9,0,10.3,0
			c0.9,0,1.5,0,1.8,0C28.7,3.7,28.8,3.7,28.8,3.7z"/>
		<g>
			<path fill="#FFFFFF" d="M43.6,23.9C43.6,23.9,43.6,24,43.6,23.9c-0.2,0.3-0.4,0.7-0.6,0.8c-0.2,0-0.3-0.4-0.3-0.7
				c0-0.1,0-0.2,0-0.3c0-0.1,0-0.1-0.1-0.1c-0.1,0-0.2,0.1-0.2,0.2c-0.2,0.3-0.3,0.6-0.5,0.9c0-0.2,0.1-1.3-0.1-1.3
				c-0.1,0-0.2,0.1-0.2,0.2c-0.1,0.1-0.2,0.3-0.2,0.4c-0.2,0.3-0.3,0.5-0.5,0.8c0.1-0.2,0.2-0.9,0.2-1c0-0.2-0.3,0-0.3,0.1
				c0,0.1,0,0.4-0.1,0.6c0,0.2-0.1,0.3-0.3,0.4c-0.1,0.1-0.2,0.1-0.3,0.2c-0.2,0.1-0.4,0.2-0.6,0.2c-0.2,0-0.3-0.1-0.3-0.3
				c0-0.1,0-0.2,0-0.3c0.2-0.1,0.3-0.2,0.5-0.4c0.2-0.2,0.3-0.4,0.3-0.5c0,0,0-0.1,0-0.1c0,0-0.1-0.1-0.1-0.1
				c-0.2,0-0.5,0.2-0.7,0.5c-0.1,0.1-0.1,0.2-0.1,0.2c0,0.1-0.2,0.2-0.2,0.3c-0.1,0.1-0.2,0.3-0.3,0.4c-0.1,0.1-0.3,0.2-0.4,0.2
				c-0.1,0-0.2-0.1-0.2-0.3c0-0.3,0.1-0.7,0.3-1c0,0,0-0.1,0-0.1c0-0.1-0.1-0.2-0.2-0.2c0,0-0.1,0-0.1,0.1c-0.1,0.1-0.1,0.2-0.2,0.2
				c0,0.1-0.1,0.1-0.1,0.2c-0.1,0.1-0.5,0.9-0.9,1c0,0-0.2,0.1-0.2-0.2c0-0.1,0-0.2,0.1-0.3c0-0.1,0.1-0.2,0-0.3c0,0-0.1,0-0.1,0
				c0,0-0.1,0-0.1,0c0,0-0.1,0.1-0.1,0.2c0,0.1-0.1,0.3,0,0.4c0,0.1,0.1,0.2,0.2,0.3c0.1,0.1,0.3,0.1,0.4,0c0.2-0.1,0.4-0.4,0.5-0.5
				c0.2-0.2,0.3-0.5,0.4-0.6c-0.1,0.3-0.1,0.5-0.1,0.8c0,0.3,0.1,0.5,0.4,0.5c0.4,0,0.7-0.3,0.9-0.6c0,0.1,0,0.1,0,0.2
				c0,0.4,0.2,0.6,0.5,0.6c0.2,0,0.4-0.1,0.7-0.3c0.1-0.1,0.2-0.2,0.3-0.3c0,0.1-0.1,0.2-0.1,0.3c0,0.1,0,0.3,0.1,0.1
				c0.2-0.3,0.8-1.3,0.9-1.5c0,0,0.1,0,0.1,0c0,0.5,0,0.9,0,1.1c0,0.1,0.2,0.3,0.3,0c0.1-0.3,0.4-0.8,0.5-0.9c0,0,0,0,0,0
				c0,0.1,0.1,0.4,0.1,0.5c0,0.2,0.1,0.4,0.4,0.4C43.1,24.9,43.4,24.6,43.6,23.9C43.7,24,43.7,23.9,43.6,23.9z M39.7,24
				c0.1-0.2,0.3-0.3,0.3-0.3c0.1,0,0.1,0,0.1,0.1c0,0.1-0.1,0.2-0.2,0.4c-0.1,0.1-0.3,0.2-0.4,0.3C39.6,24.4,39.6,24.2,39.7,24z"/>
			<circle fill="#FFFFFF" cx="44.5" cy="23.2" r="0.2"/>
			<circle fill="#FFFFFF" cx="35.9" cy="23.5" r="0.2"/>
			<path fill="#FFFFFF" d="M43.8,22C43.8,22,43.8,21.9,43.8,22c-0.1,0-0.1,0-0.1,0.1c0.1,0.1,0.1,0.2,0.1,0.3c0,0.1-0.1,0.2-0.4,0.3
				c-0.2,0-0.5,0-0.7-0.1c-0.6-0.1-1.6,0.2-1.4,0.9c0,0.1,0.1,0,0.1,0c-0.1-0.3,0.1-0.5,0.4-0.6c0.7-0.3,1.5,0.3,2-0.1
				c0.1-0.1,0.2-0.2,0.2-0.3C44,22.2,43.9,22,43.8,22z"/>
		</g>
	</g>
	<path fill="#3C3C3B" d="M70.8,12.9c-3.3,0-5.6,2.5-5.6,5.9c0,3.5,2.3,5.9,5.6,5.9c3.3,0,5.6-2.4,5.6-5.9
		C76.4,15.4,74,12.9,70.8,12.9z M74.8,18.9c0,2.7-1.6,4.5-4,4.5c-2.4,0-4-1.8-4-4.5c0-2.7,1.6-4.5,4-4.5
		C73.2,14.4,74.8,16.1,74.8,18.9z M85.9,13H81l0,0.1c-0.6,4.3-1.9,7.9-3.4,10h-0.7v3h1.6v-1.6h7.3v1.6h1.6v-3h-1.3V13z M84.3,14.4
		v8.8h-5c0.7-1.2,2.2-4.1,2.9-8.8H84.3z M90.9,23.2h4.3v1.4h-5.9V13h5.8l-0.5,1.4h-3.7V18h3.7v1.4h-3.7V23.2z M115,23.9l-0.1,0.1
		c-1,0.5-2.1,0.8-3.2,0.8c-3.4,0-5.5-2.3-5.5-5.8c0-3.5,2.4-6,5.7-6c1.3,0,2.3,0.3,2.9,0.6l0.1,0v1.6l-0.2-0.1
		c-0.9-0.5-1.7-0.7-2.7-0.7c-2.4,0-4.1,1.9-4.1,4.5c0,2.7,1.6,4.5,4,4.5c0.9,0,1.7-0.2,2.6-0.7l0.2-0.1L115,23.9z M60.9,18.8
		c0.5,0.3,0.8,0.9,1.3,1.7l2.2,4.1h-1.8l-2-3.8c-0.7-1.2-1.1-1.3-1.2-1.3h-1.6v5.1h-1.6V13h1.6v5h1.6c0.1,0,0.6-0.1,1.2-1.3l1.9-3.7
		h1.8l-2.2,4C61.7,17.9,61.3,18.5,60.9,18.8z M101.8,18.8c0.5,0.3,0.8,0.9,1.3,1.7l2.2,4.1h-1.8l-2-3.8c-0.7-1.2-1.1-1.3-1.2-1.3
		h-1.6v5.1h-1.6l0-11.6h1.6l0,5h1.6c0.1,0,0.6-0.1,1.2-1.3l1.9-3.7h1.8l-2.2,4C102.7,17.9,102.3,18.5,101.8,18.8z M64,4.9
		c-1.7,0-2.9,1.3-2.9,3.2c0,1.9,1.3,3.1,2.9,3.1c1.6,0,2.9-1.2,2.9-3.1C67,6.3,65.7,4.9,64,4.9z M64,10.8c-1.5,0-2.4-1.1-2.4-2.7
		c0-1.6,1-2.7,2.4-2.7c1.6,0,2.4,1.2,2.4,2.7C66.4,9.7,65.5,10.8,64,10.8z M72.4,5h0.5v6.1h-0.5V8.2h-3.6v2.9h-0.5V5h0.5v2.8h3.6V5z
		 M78.8,10.4l0.1,0.4c-0.5,0.3-1.1,0.4-1.6,0.4c-1.8,0-2.9-1.3-2.9-3.1c0-1.8,1.2-3.2,3-3.2c0.6,0,1.2,0.2,1.5,0.3v0.5
		c-0.4-0.2-0.8-0.4-1.5-0.4C76,5.4,75,6.6,75,8.1c0,1.6,0.9,2.7,2.4,2.7C77.9,10.8,78.3,10.6,78.8,10.4z M82.7,4.9
		c-1.7,0-2.9,1.3-2.9,3.2c0,1.9,1.3,3.1,2.9,3.1c1.6,0,2.9-1.2,2.9-3.1C85.6,6.3,84.4,4.9,82.7,4.9z M82.7,10.8
		c-1.5,0-2.4-1.1-2.4-2.7c0-1.6,1-2.7,2.4-2.7c1.6,0,2.4,1.2,2.4,2.7C85.1,9.7,84.1,10.8,82.7,10.8z M89.4,5.3C89,5.1,88.7,5,88,5
		h-1v6.1h0.5V8.8H88c0.6,0,0.9-0.1,1.2-0.2c0.7-0.3,1-0.9,1-1.7C90.2,6.1,89.9,5.6,89.4,5.3z M89,8.2c-0.2,0.1-0.5,0.2-1,0.2h-0.5
		v-3h0.5c0.5,0,0.8,0.1,1,0.2c0.4,0.2,0.6,0.7,0.6,1.3C89.7,7.5,89.5,7.9,89,8.2z M96.4,12h-0.5v-0.8h-4.4V5H92v5.7h3.3V5h0.5v5.7
		h0.7V12z M102,5h0.4v6.1h-0.5V6.9c0-0.5,0-0.8,0-1.1h0c-0.2,0.3-0.5,0.7-0.9,1.3l-3.1,4.1h-0.4V5H98v4.2c0,0.5,0,0.8,0,1.1h0
		c0.2-0.3,0.5-0.8,1-1.4L102,5z M107.6,5h0.5L106,9.8c-0.4,1-0.9,1.4-1.6,1.4c-0.1,0-0.2,0-0.3,0v-0.5c0.1,0,0.2,0,0.3,0
		c0.6,0,0.9-0.5,1.2-1.3L103.6,5h0.6l1.8,3.8h0L107.6,5z M114.8,5v6.1h-0.5V7c0-0.3,0-0.8,0-1.1h0c-0.1,0.3-0.3,0.6-0.4,0.8
		l-1.7,2.7h-0.3l-1.8-2.7c-0.1-0.2-0.3-0.5-0.4-0.7h0c0,0.3,0,0.8,0,1.1v4.2h-0.5V5h0.5l1.8,2.7c0.3,0.4,0.4,0.7,0.6,0.9h0
		c0.2-0.3,0.3-0.5,0.6-1l1.7-2.7H114.8z M58.2,8c0.3,0.1,0.6,0.5,0.9,1.1l1.1,2h-0.6l-1.1-2c-0.3-0.6-0.6-0.8-0.8-0.8h-1v2.1v0.8
		h-0.5V5h0.5v2.2v0.6h1c0.2,0,0.5-0.3,0.8-0.8l1.1-2h0.6l-1.1,2C58.8,7.5,58.5,7.9,58.2,8z"/>
</g>
</svg>
