<?xml version="1.0" encoding="utf-8"?>
<!-- Generator: Adobe Illustrator 23.0.6, SVG Export Plug-In . SVG Version: 6.00 Build 0)  -->
<svg version="1.1" id="Слой_1" xmlns="http://www.w3.org/2000/svg" xmlns:xlink="http://www.w3.org/1999/xlink" x="0px" y="0px"
	 viewBox="0 0 83 100" style="enable-background:new 0 0 83 100;" xml:space="preserve">
<style type="text/css">
	.st0{fill:#EDEDED;}
	.st1{fill:#2164B0;}
	.st2{fill:url(#SVGID_1_);}
	.st3{fill:#B4D1F0;}
</style>
<path class="st0" d="M71.02,100.03H12.08c-6.56,0-11.87-5.32-11.87-11.87V11.9c0-6.56,5.32-11.87,11.87-11.87h58.94
	c6.56,0,11.87,5.32,11.87,11.87v76.25C82.89,94.71,77.58,100.03,71.02,100.03z"/>
<polygon class="st1" points="11.35,26.5 32.53,26.5 32.53,22.49 27.09,17.05 20.8,23.35 17.72,20.27 "/>
<circle class="st1" cx="15.89" cy="16.16" r="2.25"/>
<linearGradient id="SVGID_1_" gradientUnits="userSpaceOnUse" x1="57.2085" y1="61.8312" x2="57.2085" y2="83.9058">
	<stop  offset="0" style="stop-color:#2164B0"/>
	<stop  offset="1" style="stop-color:#2090FF"/>
</linearGradient>
<polygon class="st2" points="41.55,62.12 45.98,62.12 49.98,79.86 55.13,62.12 59.14,62.12 64.14,79.86 68.44,62.12 72.87,62.12 
	66.29,85.15 62.14,85.15 57.21,68.56 52.13,85.15 47.55,85.15 "/>
<rect x="38.97" y="17.28" class="st3" width="32.62" height="2.07"/>
<rect x="38.97" y="24.42" class="st3" width="32.62" height="2.07"/>
<rect x="11.35" y="31.92" class="st3" width="60.23" height="2.07"/>
<rect x="11.35" y="39.63" class="st3" width="60.23" height="2.07"/>
<rect x="11.35" y="46.92" class="st3" width="60.23" height="2.07"/>
<rect x="11.35" y="54.06" class="st3" width="60.23" height="2.07"/>
<rect x="11.43" y="62.09" class="st3" width="24.53" height="2.07"/>
<rect x="11.43" y="69.24" class="st3" width="24.53" height="2.07"/>
<rect x="11.43" y="76.52" class="st3" width="24.53" height="2.07"/>
<rect x="11.43" y="83.1" class="st3" width="24.53" height="2.07"/>
</svg>
