<?xml version="1.0" encoding="utf-8"?>
<!-- Generator: Adobe Illustrator 23.0.6, SVG Export Plug-In . SVG Version: 6.00 Build 0)  -->
<svg version="1.1" id="Слой_1" xmlns="http://www.w3.org/2000/svg" xmlns:xlink="http://www.w3.org/1999/xlink" x="0px" y="0px"
	 viewBox="0 0 170.08 42.52" style="enable-background:new 0 0 170.08 42.52;" xml:space="preserve">
<style type="text/css">
	.st0{fill:url(#SVGID_1_);}
	.st1{fill:#566EB1;}
</style>
<radialGradient id="SVGID_1_" cx="87.7248" cy="22.372" r="89.1436" fx="87.5819" fy="21.6995" gradientTransform="matrix(1 0 0 0.9592 0 1.7317)" gradientUnits="userSpaceOnUse">
	<stop  offset="0" style="stop-color:#F4F8FA"/>
	<stop  offset="0.9302" style="stop-color:#EDF2F5"/>
	<stop  offset="1" style="stop-color:#ECF1F4"/>
</radialGradient>
<rect x="0" y="0.02" class="st0" width="170.08" height="42.49"/>
<path class="st1" d="M85.85,22.18c-3.23,0-5.57,2.46-5.57,5.85c0,3.43,2.29,5.82,5.57,5.82c3.28,0,5.57-2.39,5.57-5.82
	C91.42,24.64,89.08,22.18,85.85,22.18z M89.78,28.03c0,2.69-1.54,4.42-3.93,4.42c-2.39,0-3.93-1.74-3.93-4.42
	c0-2.67,1.58-4.46,3.93-4.46C88.24,23.58,89.78,25.33,89.78,28.03z M100.8,22.26h-4.85l-0.02,0.14c-0.62,4.23-1.86,7.84-3.39,9.9
	h-0.74v3h1.55v-1.62h7.18v1.62h1.55v-3h-1.28V22.26z M99.24,23.63v8.68h-4.89c0.73-1.17,2.2-4,2.88-8.68H99.24z M105.66,32.3h4.21
	v1.38h-5.78V22.26h5.75l-0.53,1.38h-3.66v3.52h3.66v1.38h-3.66V32.3z M129.47,32.99l-0.12,0.06c-0.99,0.53-2.06,0.79-3.17,0.79
	c-3.31,0-5.45-2.25-5.45-5.74c0-3.44,2.38-5.94,5.67-5.94c1.3,0,2.31,0.32,2.83,0.61l0.08,0.05v1.54l-0.24-0.13
	c-0.85-0.46-1.67-0.67-2.65-0.67c-2.35,0-4.05,1.87-4.05,4.46c0,2.69,1.54,4.42,3.93,4.42c0.88,0,1.72-0.22,2.57-0.67l0.17-0.09
	L129.47,32.99z M76.1,27.93c0.45,0.28,0.83,0.85,1.28,1.68l2.21,4.07H77.8l-1.95-3.7c-0.64-1.19-1.05-1.31-1.19-1.31h-1.54v5.01
	h-1.57V22.26h1.57v4.93h1.54c0.14,0,0.55-0.13,1.19-1.32l1.9-3.62h1.78l-2.16,3.99C76.93,27.08,76.55,27.65,76.1,27.93z
	 M116.47,27.93c0.45,0.28,0.83,0.85,1.28,1.68l2.2,4.07h-1.78l-1.95-3.7c-0.64-1.19-1.05-1.31-1.19-1.31h-1.54v5.01h-1.57
	l0.01-11.42h1.57l-0.01,4.93h1.54c0.14,0,0.55-0.13,1.19-1.32l1.91-3.62h1.78l-2.16,3.99C117.3,27.08,116.92,27.65,116.47,27.93z
	 M79.19,14.28c-1.66,0-2.91,1.27-2.91,3.11c0,1.89,1.26,3.09,2.91,3.09c1.61,0,2.91-1.18,2.91-3.09
	C82.1,15.58,80.88,14.28,79.19,14.28z M79.19,20.03c-1.45,0-2.39-1.09-2.39-2.65c0-1.55,0.94-2.67,2.39-2.67
	c1.55,0,2.39,1.21,2.39,2.67C81.58,18.94,80.64,20.03,79.19,20.03z M87.48,14.32h0.49v6.06h-0.49v-2.9h-3.5v2.9h-0.49v-6.06h0.49
	v2.74h3.5V14.32z M93.73,19.67l0.14,0.4c-0.52,0.28-1.07,0.4-1.59,0.4c-1.74,0-2.81-1.27-2.81-3.04c0-1.78,1.2-3.15,2.92-3.15
	c0.63,0,1.19,0.16,1.45,0.33v0.48c-0.4-0.21-0.83-0.37-1.45-0.37c-1.42,0-2.41,1.18-2.41,2.67c0,1.56,0.89,2.65,2.34,2.65
	C92.84,20.03,93.32,19.88,93.73,19.67z M97.59,14.28c-1.66,0-2.91,1.27-2.91,3.11c0,1.89,1.26,3.09,2.91,3.09
	c1.61,0,2.91-1.18,2.91-3.09C100.49,15.58,99.28,14.28,97.59,14.28z M97.59,20.03c-1.45,0-2.39-1.09-2.39-2.65
	c0-1.55,0.94-2.67,2.39-2.67c1.55,0,2.39,1.21,2.39,2.67C99.98,18.94,99.04,20.03,97.59,20.03z M104.18,14.61
	c-0.3-0.18-0.69-0.28-1.3-0.28h-0.99v6.06h0.49v-2.3h0.46c0.55,0,0.93-0.09,1.22-0.24c0.64-0.32,0.95-0.93,0.95-1.64
	C105,15.47,104.69,14.92,104.18,14.61z M103.84,17.46c-0.22,0.12-0.52,0.2-0.96,0.2h-0.51v-2.91h0.52c0.45,0,0.75,0.08,0.98,0.22
	c0.4,0.24,0.62,0.68,0.62,1.24C104.5,16.79,104.28,17.23,103.84,17.46z M111.12,21.2h-0.49v-0.82h-4.36v-6.06h0.49v5.64h3.22v-5.64
	h0.49v5.64h0.65V21.2z M116.61,14.32h0.44v6.06h-0.49v-4.2c0-0.53,0.01-0.75,0.02-1.09h-0.02c-0.21,0.31-0.51,0.74-0.92,1.28
	l-3.03,4.01h-0.37v-6.06h0.49v4.13c0,0.53-0.01,0.75-0.02,1.09h0.02c0.21-0.32,0.52-0.77,0.97-1.35L116.61,14.32z M122.2,14.32h0.52
	l-2.1,4.73c-0.43,0.98-0.9,1.39-1.56,1.39c-0.09,0-0.21-0.01-0.29-0.03v-0.46c0.1,0.02,0.17,0.03,0.28,0.03
	c0.58,0,0.86-0.45,1.23-1.29l-2.1-4.37h0.55l1.78,3.78h0.02L122.2,14.32z M129.31,14.32v6.06h-0.49v-4.1c0-0.33,0-0.76,0.02-1.12
	h-0.02c-0.15,0.28-0.32,0.56-0.44,0.75l-1.64,2.63h-0.28l-1.76-2.67c-0.13-0.19-0.31-0.47-0.42-0.7h-0.02
	c0.02,0.31,0.02,0.78,0.02,1.1v4.1h-0.49v-6.06h0.47l1.74,2.66c0.28,0.42,0.43,0.66,0.59,0.92h0.02c0.16-0.26,0.33-0.54,0.59-0.95
	l1.65-2.63H129.31z M73.46,17.33c0.33,0.11,0.57,0.51,0.87,1.06l1.1,2h-0.55l-1.1-2c-0.3-0.55-0.59-0.81-0.77-0.81h-0.97v2.04v0.75
	h-0.49V14.3h0.49v2.17v0.62H73c0.18,0,0.47-0.26,0.77-0.81l1.1-2h0.55l-1.1,2C74.02,16.82,73.79,17.22,73.46,17.33z M70.19,11.65
	L70.19,11.65C70.18,11.64,70.18,11.64,70.19,11.65c-0.28-0.4-0.61-0.8-0.61-0.8l0,0c-0.58-0.71-1.22-1.37-1.92-1.98
	c-1.64-1.42-3.6-2.53-5.81-3.22c-8.62-2.69-17.79,2.12-20.48,10.74c-2,6.41,0.15,13.13,4.93,17.26c1.64,1.42,3.6,2.53,5.81,3.22
	c3.51,1.09,7.1,0.94,10.32-0.2c0.18-0.07,0.53-0.23,0.95-0.46l0,0c0.01,0,0.01-0.01,0.01-0.01c0.02-0.01,0.03-0.02,0.05-0.03
	c0.43-0.23,0.78-0.48,1.07-0.72c0.44-0.36,0.84-0.78,1.08-1.26c0.04-0.07,0.05-0.1,0.05-0.1l0-0.01c0.01-0.02,0.01-0.04,0.02-0.06
	c0.56-1.28-0.1-2.27-1.05-2.98c-0.03-0.02-0.05-0.05-0.08-0.07c-0.02-0.01-0.04-0.02-0.04-0.02l0,0c-0.05-0.03-0.1-0.06-0.16-0.1
	c-1.26-0.84-2.84-1.23-2.84-1.23l0,0c-1.64-0.47-3.39-0.66-5.01-0.71c-2.26-0.06-4.23,0.16-5.2,0.3c0.01-0.01,0.02-0.02,0.03-0.03
	c0.01-0.01,0.02-0.01,0.02-0.02c0.18-0.16,0.51-0.43,0.95-0.78c1.31-1.02,3.5-2.58,5.82-3.62c0.18-0.08,0.37-0.16,0.56-0.23
	c0.1-0.04,0.2-0.08,0.3-0.12c0.2-0.08,0.41-0.15,0.61-0.22c0.13-0.04,0.26-0.09,0.38-0.12c0,0,0.02-0.01,0.03-0.01
	c0.19-0.06,0.39-0.11,0.58-0.15l0,0l0,0c0.03-0.07,2.65-5.69,4.35-7.45c0.01-0.01,0.01-0.02,0.02-0.02
	c-1.86-2.42-4.41-3.59-4.41-3.59c-0.21,0.32-0.49,0.67-0.85,1.05c-1.9,2.01-5.59,4.76-5.59,4.76s0.01,1.63-0.79,4.29
	c-0.85,2.74-2.14,5.15-2.5,5.81c-0.01,0.02-0.02,0.04-0.03,0.06c-0.23-0.04-0.47,0.04-0.63,0.23c-0.2,0.24-0.2,0.59-0.01,0.83
	c0.03,0.04,0.07,0.08,0.11,0.11l0,0c0.19,0.15,0.4,0.19,0.6,0.12c0.13-0.03,0.24-0.11,0.33-0.21c0.28-0.04,0.55-0.07,0.82-0.09
	c1.39-0.13,2.64-0.12,3.78-0.01c2.83,0.29,4.89,1.22,6.27,2.18c1.59,1.31-0.09,2.26-0.44,2.44c-2.75,0.97-5.81,1.11-8.8,0.18
	c-1.84-0.58-3.51-1.5-4.96-2.75c-4.22-3.64-5.87-9.43-4.21-14.74c2.29-7.32,10.08-11.43,17.41-9.19c0.03,0.01,0.05,0.01,0.08,0.02
	c0.14,0.04,0.28,0.09,0.41,0.14c0.17,0.07,0.38,0.16,0.55,0.28c0.02,0.01,0.03,0.02,0.05,0.03c0.01,0,0.01,0.01,0.01,0.01
	c0.16,0.12,0.29,0.25,0.36,0.4c0,0.01,0.01,0.02,0.01,0.03c0,0.01,0,0.01,0.01,0.02c0.02,0.05,0.03,0.09,0.04,0.14
	c0,0.02,0,0.04,0.01,0.05c0,0.02,0,0.04,0,0.06c0,0.03,0,0.06-0.01,0.09l0,0.02c0,0.02-0.01,0.05-0.02,0.08
	c0,0.02-0.01,0.04-0.02,0.06l-0.03,0.07l0.01-0.03c-0.02,0.06-0.06,0.12-0.1,0.17c-0.01,0.01-0.02,0.02-0.03,0.03c0,0,0,0,0,0
	c-0.08,0.07-0.18,0.12-0.33,0.12c-0.02,0-0.03,0-0.05,0c0,0-0.1-0.01-0.21-0.01c-0.02,0-0.03,0-0.03,0l-0.01,0
	c-0.01,0-0.03,0-0.04,0c-0.25,0.03-0.62,0.15-0.79,0.62c-0.09,0.3-0.03,0.63,0.19,0.88c0.02,0.02,0.04,0.05,0.07,0.07
	c0.01,0.01,0.02,0.02,0.04,0.04l0,0c0.02,0.01,0.03,0.02,0.05,0.03l0,0l0.06,0.04c0.02,0.01,0.04,0.03,0.06,0.04l0.15,0.09
	l0.41,0.24c0.02,0.01,0.03,0.02,0.05,0.03c0.37,0.23,1.11,0.71,1.71,1.16l0.34,0.27c0,0,0.64,0.57,1.27,1.16l0.86,0.96
	c0,0,0.01,0.01,0.02,0.02l0.06,0.06l0,0c0.02,0.02,0.04,0.04,0.06,0.06c0.39,0.32,0.96,0.26,1.28-0.13
	c0.09-0.11,0.15-0.24,0.18-0.37c0.01-0.04,0.02-0.08,0.02-0.12c0,0,0-0.01,0-0.01c0-0.05,0-0.1,0-0.15l0-0.03
	c0-0.03-0.01-0.05-0.02-0.08l0-0.01c-0.01-0.04-0.02-0.08-0.03-0.12l0,0c-0.1-0.28,0.05-0.47,0.15-0.56l2.46-1.99
	C70.3,11.82,70.25,11.73,70.19,11.65z M51.03,29.02l5.74-7.38c-0.15-0.24-0.15-0.55,0.04-0.78c0.23-0.29,0.65-0.33,0.94-0.1
	c0.29,0.23,0.33,0.65,0.1,0.94c-0.19,0.23-0.49,0.3-0.76,0.2L51.03,29.02z"/>
</svg>
