<?xml version="1.0" encoding="utf-8"?>
<!-- Generator: Adobe Illustrator 23.0.6, SVG Export Plug-In . SVG Version: 6.00 Build 0)  -->
<svg version="1.1" id="Слой_1" xmlns="http://www.w3.org/2000/svg" xmlns:xlink="http://www.w3.org/1999/xlink" x="0px" y="0px"
	 viewBox="0 0 170.08 42.52" style="enable-background:new 0 0 170.08 42.52;" xml:space="preserve">
<style type="text/css">
	.st0{fill:#C85412;}
	.st1{fill:url(#SVGID_1_);}
	.st2{fill:#566EB1;}
	.st3{fill:#F47B20;}
</style>
<path class="st0" d="M231.11,74.96c-38.43,0-69.58,31.15-69.58,69.57c0,31.5,20.84,58.15,49.55,66.71c0.12,0.04,1.87,0.59,2.83,0.83
	c0.79,0.19,2.75,0.62,2.94,0.66c2.04,0.41,5.3,0.77,7.41,0.98c2.35,0.23,3.82,0.28,7.15,0.28c0.05,0,0.56-0.25,0.56-1
	c0-0.43-0.24-0.61-0.45-0.69c-0.07-0.02-0.35-0.11-0.4-0.13c-3.52-1.31-5.99-3.99-7.77-6.98c-1.72-2.94-1.97-7.72-1.97-14.64
	l0.01-29.62c0,0,9.3,0,10.56,0c3.87,0,11.11,2.83,11.26,15.33l-0.03,16.88c0,6.92,1.18,13.17,3.97,15.36c1.28,1,2.91,1.51,4.94,1.51
	c0.79,0.04,1.74-0.02,2.35-0.14c0.31-0.06,0.82-0.26,1.52-0.54c25.88-10.13,44.21-35.32,44.21-64.79
	C300.18,106.1,269.53,74.96,231.11,74.96z M224.82,142.36c-2.91-0.28-3.44-3.03-3.44-3.03v-20.17c0,0,0.51-2.65,3.28-3.01
	l15.11-0.02c2.89,0.3,3.42,3.03,3.42,3.03v20.18c0,0-0.53,2.74-3.43,3.03H224.82z M255.49,193.62l-0.09-23.5
	c0-8.37-2.29-12.28-6.15-15.93c-1.46-1.38-4.21-2.07-5.55-2.56c4.37-0.97,11.78-4.14,11.78-13.69c0-0.97-0.02-2.49,0-4.3
	c0.07-4.68-0.05-15.04-0.05-15.04c-0.15-12.23-7.13-14.78-11.07-15.25c-0.62-0.04-1.3-0.04-1.98-0.04c-0.16,0-23.24,0-25.07,0
	c-3.93,0.45-10.84,2.92-11.03,15.06l0.01,75.26c-18.21-8.85-29.75-27.54-29.75-49.11c0-30.08,24.48-54.56,54.57-54.56
	c30.08,0,54.08,24.48,54.08,54.56C285.18,166.3,273.19,184.2,255.49,193.62z"/>
<radialGradient id="SVGID_1_" cx="87.7591" cy="22.372" r="89.1436" fx="87.6162" fy="21.6995" gradientTransform="matrix(1 0 0 0.9592 0 1.7317)" gradientUnits="userSpaceOnUse">
	<stop  offset="0" style="stop-color:#F4F8FA"/>
	<stop  offset="0.9302" style="stop-color:#EDF2F5"/>
	<stop  offset="1" style="stop-color:#ECF1F4"/>
</radialGradient>
<rect x="0.03" y="0.02" class="st1" width="170.08" height="42.49"/>
<g>
	<path class="st2" d="M83.81,11.65L83.81,11.65C83.81,11.64,83.81,11.64,83.81,11.65c-0.28-0.4-0.61-0.8-0.61-0.8l0,0
		c-0.58-0.71-1.22-1.37-1.92-1.98c-1.64-1.42-3.6-2.53-5.81-3.22c-8.62-2.69-17.79,2.12-20.48,10.74c-2,6.41,0.15,13.13,4.93,17.26
		c1.64,1.42,3.6,2.53,5.81,3.22c3.51,1.09,7.1,0.94,10.32-0.2c0.18-0.07,0.53-0.23,0.95-0.46l0,0C77,36.21,77,36.2,77,36.2
		c0.02-0.01,0.03-0.02,0.05-0.03c0.43-0.23,0.78-0.48,1.07-0.72c0.44-0.36,0.84-0.78,1.08-1.26c0.04-0.07,0.05-0.1,0.05-0.1l0-0.01
		c0.01-0.02,0.01-0.04,0.02-0.06c0.56-1.28-0.1-2.27-1.05-2.98c-0.03-0.02-0.05-0.05-0.08-0.07c-0.02-0.01-0.04-0.02-0.04-0.02l0,0
		c-0.05-0.03-0.1-0.06-0.16-0.1c-1.26-0.84-2.84-1.23-2.84-1.23l0,0c-1.64-0.47-3.39-0.66-5.01-0.71c-2.26-0.06-4.23,0.16-5.2,0.3
		c0.01-0.01,0.02-0.02,0.03-0.03c0.01-0.01,0.02-0.01,0.02-0.02c0.18-0.16,0.51-0.43,0.95-0.78c1.31-1.02,3.5-2.58,5.82-3.62
		c0.18-0.08,0.37-0.16,0.56-0.23c0.1-0.04,0.2-0.08,0.3-0.12c0.2-0.08,0.41-0.15,0.61-0.22c0.13-0.04,0.26-0.09,0.38-0.12
		c0,0,0.02-0.01,0.03-0.01c0.19-0.06,0.39-0.11,0.58-0.15l0,0l0,0c0.03-0.07,2.65-5.69,4.35-7.45c0.01-0.01,0.01-0.02,0.02-0.02
		c-1.86-2.42-4.41-3.59-4.41-3.59c-0.21,0.32-0.49,0.67-0.85,1.05c-1.9,2.01-5.59,4.76-5.59,4.76s0.01,1.63-0.79,4.29
		c-0.85,2.74-2.14,5.15-2.5,5.81c-0.01,0.02-0.02,0.04-0.03,0.06c-0.23-0.04-0.47,0.04-0.63,0.23c-0.2,0.24-0.2,0.59-0.01,0.83
		c0.03,0.04,0.07,0.08,0.11,0.11l0,0c0.19,0.15,0.4,0.19,0.6,0.12c0.13-0.03,0.24-0.11,0.33-0.21c0.28-0.04,0.55-0.07,0.82-0.09
		c1.39-0.13,2.64-0.12,3.78-0.01c2.83,0.29,4.89,1.22,6.27,2.18c1.59,1.31-0.09,2.26-0.44,2.44c-2.75,0.97-5.81,1.11-8.8,0.18
		c-1.84-0.58-3.51-1.5-4.96-2.75c-4.22-3.64-5.87-9.43-4.21-14.74c2.29-7.32,10.08-11.43,17.41-9.19c0.03,0.01,0.05,0.01,0.08,0.02
		c0.14,0.04,0.28,0.09,0.41,0.14c0.17,0.07,0.38,0.16,0.55,0.28c0.02,0.01,0.03,0.02,0.05,0.03c0.01,0,0.01,0.01,0.01,0.01
		c0.16,0.12,0.29,0.25,0.36,0.4c0,0.01,0.01,0.02,0.01,0.03c0,0.01,0,0.01,0.01,0.02c0.02,0.05,0.03,0.09,0.04,0.14
		c0,0.02,0,0.04,0.01,0.05c0,0.02,0,0.04,0,0.06c0,0.03,0,0.06-0.01,0.09l0,0.02c0,0.02-0.01,0.05-0.02,0.08
		c0,0.02-0.01,0.04-0.02,0.06l-0.03,0.07l0.01-0.03c-0.02,0.06-0.06,0.12-0.1,0.17c-0.01,0.01-0.02,0.02-0.03,0.03c0,0,0,0,0,0
		c-0.08,0.07-0.18,0.12-0.33,0.12c-0.02,0-0.03,0-0.05,0c0,0-0.1-0.01-0.21-0.01c-0.02,0-0.03,0-0.03,0l-0.01,0
		c-0.01,0-0.03,0-0.04,0c-0.25,0.03-0.62,0.15-0.79,0.62c-0.09,0.3-0.03,0.63,0.19,0.88c0.02,0.02,0.04,0.05,0.07,0.07
		c0.01,0.01,0.02,0.02,0.04,0.04l0,0c0.02,0.01,0.03,0.02,0.05,0.03l0,0l0.06,0.04c0.02,0.01,0.04,0.03,0.06,0.04l0.15,0.09
		l0.41,0.24c0.02,0.01,0.03,0.02,0.05,0.03c0.37,0.23,1.11,0.71,1.71,1.16l0.34,0.27c0,0,0.64,0.57,1.27,1.16l0.86,0.96
		c0,0,0.01,0.01,0.02,0.02l0.06,0.06l0,0c0.02,0.02,0.04,0.04,0.06,0.06c0.39,0.32,0.96,0.26,1.28-0.13
		c0.09-0.11,0.15-0.24,0.18-0.37c0.01-0.04,0.02-0.08,0.02-0.12c0,0,0-0.01,0-0.01c0-0.05,0-0.1,0-0.15l0-0.03
		c0-0.03-0.01-0.05-0.02-0.08l0-0.01c-0.01-0.04-0.02-0.08-0.03-0.12l0,0c-0.1-0.28,0.05-0.47,0.15-0.56l2.46-1.99
		C83.93,11.82,83.87,11.73,83.81,11.65z M64.66,29.02l5.74-7.38c-0.15-0.24-0.15-0.55,0.04-0.78c0.23-0.29,0.65-0.33,0.94-0.1
		c0.29,0.23,0.33,0.65,0.1,0.94c-0.19,0.23-0.49,0.3-0.76,0.2L64.66,29.02z"/>
	<path class="st3" d="M99.72,4.9c-9.01,0-16.3,7.3-16.3,16.3c0,7.38,4.88,13.63,11.61,15.63c0.03,0.01,0.44,0.14,0.66,0.19
		c0.18,0.04,0.64,0.15,0.69,0.15c0.48,0.1,1.24,0.18,1.74,0.23c0.55,0.05,0.89,0.07,1.68,0.06c0.01,0,0.13-0.06,0.13-0.23
		c0-0.1-0.06-0.14-0.11-0.16c-0.02-0.01-0.08-0.03-0.09-0.03c-0.83-0.31-1.4-0.94-1.82-1.63c-0.4-0.69-0.46-1.81-0.46-3.43l0-6.94
		c0,0,2.18,0,2.48,0c0.91,0,2.6,0.66,2.64,3.59l-0.01,3.96c0,1.62,0.28,3.09,0.93,3.6c0.3,0.24,0.68,0.35,1.16,0.35
		c0.18,0.01,0.41-0.01,0.55-0.03c0.07-0.01,0.19-0.06,0.36-0.13c6.07-2.37,10.36-8.28,10.36-15.18C115.91,12.2,108.73,4.9,99.72,4.9
		z M98.25,20.7c-0.68-0.07-0.81-0.71-0.81-0.71v-4.73c0,0,0.12-0.62,0.77-0.71l3.54,0c0.68,0.07,0.8,0.71,0.8,0.71v4.73
		c0,0-0.12,0.64-0.8,0.71H98.25z M105.44,32.71l-0.02-5.51c0-1.96-0.54-2.88-1.44-3.73c-0.34-0.32-0.99-0.49-1.3-0.6
		c1.02-0.23,2.76-0.97,2.76-3.21c0-0.23-0.01-0.58,0-1.01c0.02-1.1-0.01-3.53-0.01-3.53c-0.03-2.87-1.67-3.46-2.6-3.57
		c-0.15-0.01-0.31-0.01-0.46-0.01c-0.04,0-5.45,0-5.88,0c-0.92,0.11-2.54,0.68-2.59,3.53l0,17.64c-4.27-2.07-6.97-6.45-6.97-11.51
		c0-7.05,5.74-12.79,12.79-12.79c7.05,0,12.67,5.74,12.67,12.79C112.4,26.31,109.59,30.5,105.44,32.71z"/>
</g>
</svg>
