<?xml version="1.0" encoding="utf-8"?>
<!-- Generator: Adobe Illustrator 23.0.6, SVG Export Plug-In . SVG Version: 6.00 Build 0)  -->
<svg version="1.1" id="Слой_1" xmlns="http://www.w3.org/2000/svg" xmlns:xlink="http://www.w3.org/1999/xlink" x="0px" y="0px"
	 viewBox="0 0 170.08 42.52" style="enable-background:new 0 0 170.08 42.52;" xml:space="preserve">
<style type="text/css">
	.st0{fill:url(#SVGID_1_);}
	.st1{fill:#566EB1;}
</style>
<radialGradient id="SVGID_1_" cx="87.7248" cy="22.3857" r="89.1436" fx="87.5819" fy="21.7132" gradientTransform="matrix(1 0 0 0.9592 0 1.7317)" gradientUnits="userSpaceOnUse">
	<stop  offset="0" style="stop-color:#F4F8FA"/>
	<stop  offset="0.9302" style="stop-color:#EDF2F5"/>
	<stop  offset="1" style="stop-color:#ECF1F4"/>
</radialGradient>
<rect x="0" y="0.03" class="st0" width="170.08" height="42.49"/>
<path class="st1" d="M79.37,17.42c-3.72,0-6.41,2.84-6.41,6.74c0,3.95,2.64,6.71,6.41,6.71c3.78,0,6.41-2.76,6.41-6.71
	C85.78,20.26,83.08,17.42,79.37,17.42z M83.9,24.16c0,3.1-1.78,5.1-4.53,5.1c-2.75,0-4.53-2-4.53-5.1c0-3.07,1.82-5.13,4.53-5.13
	C82.12,19.03,83.9,21.05,83.9,24.16z M96.59,17.52h-5.58l-0.02,0.16c-0.72,4.88-2.14,9.03-3.91,11.41h-0.85v3.45h1.78v-1.86h8.27
	v1.86h1.78v-3.45h-1.48V17.52z M94.79,19.09v10h-5.64c0.84-1.35,2.54-4.61,3.32-10H94.79z M102.19,29.08h4.85v1.59h-6.66V17.52H107
	l-0.61,1.59h-4.21v4.06h4.21v1.59h-4.21V29.08z M129.61,29.88l-0.14,0.07c-1.14,0.61-2.37,0.91-3.66,0.91
	c-3.81,0-6.28-2.59-6.28-6.61c0-3.96,2.75-6.84,6.53-6.84c1.5,0,2.66,0.36,3.26,0.7l0.09,0.05v1.77l-0.27-0.15
	c-0.98-0.53-1.93-0.77-3.06-0.77c-2.71,0-4.67,2.16-4.67,5.13c0,3.1,1.78,5.1,4.53,5.1c1.02,0,1.98-0.25,2.96-0.77l0.19-0.1
	L129.61,29.88z M68.26,24.05c0.52,0.33,0.95,0.98,1.48,1.94l2.54,4.69h-2.05l-2.25-4.26c-0.74-1.37-1.21-1.51-1.37-1.51h-1.78v5.78
	h-1.8V17.52h1.8v5.68h1.78c0.17,0,0.63-0.15,1.37-1.52l2.19-4.17h2.05l-2.48,4.59C69.21,23.06,68.78,23.72,68.26,24.05z
	 M114.64,24.05c0.52,0.33,0.95,0.98,1.48,1.94l2.53,4.69h-2.05l-2.24-4.26c-0.74-1.37-1.21-1.51-1.37-1.51h-1.78v5.78h-1.8
	l0.01-13.16h1.8l-0.01,5.68h1.78c0.17,0,0.63-0.15,1.37-1.52l2.2-4.17h2.05l-2.49,4.59C115.6,23.06,115.16,23.72,114.64,24.05z
	 M64.28,13.53L64.28,13.53C64.27,13.53,64.27,13.53,64.28,13.53c-0.22-0.32-0.49-0.64-0.49-0.64l0,0c-0.47-0.57-0.98-1.11-1.55-1.59
	c-1.32-1.14-2.9-2.04-4.68-2.59c-6.94-2.17-14.32,1.7-16.49,8.64c-1.61,5.16,0.12,10.57,3.97,13.9c1.32,1.14,2.9,2.04,4.68,2.59
	c2.82,0.88,5.72,0.76,8.31-0.16c0.14-0.06,0.43-0.19,0.77-0.37l0,0c0,0,0.01,0,0.01-0.01c0.01-0.01,0.02-0.01,0.03-0.02
	c0.35-0.19,0.63-0.39,0.86-0.58c0.36-0.29,0.68-0.63,0.87-1.02c0.03-0.05,0.04-0.08,0.04-0.08c0,0,0,0,0-0.01
	c0.01-0.01,0.01-0.03,0.02-0.05c0.45-1.03-0.08-1.83-0.84-2.4c-0.02-0.02-0.04-0.04-0.06-0.06c-0.02-0.01-0.03-0.02-0.03-0.02l0,0
	c-0.04-0.03-0.08-0.05-0.13-0.08c-1.01-0.67-2.29-0.99-2.29-0.99l0,0c-1.32-0.38-2.73-0.53-4.03-0.57
	c-1.82-0.05-3.41,0.13-4.19,0.24c0.01-0.01,0.02-0.01,0.02-0.02c0.01,0,0.01-0.01,0.02-0.01c0.15-0.13,0.41-0.35,0.77-0.63
	c1.05-0.82,2.82-2.08,4.68-2.92c0.15-0.07,0.3-0.13,0.45-0.19c0.08-0.03,0.16-0.07,0.24-0.09c0.16-0.06,0.33-0.12,0.49-0.18
	c0.1-0.03,0.21-0.07,0.31-0.1c0.01,0,0.01,0,0.02-0.01c0.16-0.05,0.31-0.09,0.47-0.12l0,0c0,0,0,0,0,0c0.03-0.06,2.14-4.58,3.5-6
	c0.01-0.01,0.01-0.01,0.02-0.02c-1.5-1.95-3.55-2.89-3.55-2.89c-0.17,0.26-0.4,0.54-0.68,0.84c-1.53,1.62-4.5,3.83-4.5,3.83
	s0.01,1.31-0.63,3.45c-0.69,2.21-1.72,4.15-2.02,4.68c-0.01,0.01-0.01,0.03-0.02,0.05c-0.18-0.03-0.38,0.03-0.51,0.19
	c-0.16,0.2-0.16,0.47-0.01,0.67c0.02,0.03,0.05,0.06,0.09,0.09l0,0c0.15,0.12,0.33,0.15,0.48,0.1c0.1-0.03,0.19-0.09,0.27-0.17
	c0.22-0.03,0.44-0.05,0.66-0.07c1.12-0.11,2.13-0.1,3.04-0.01c2.28,0.23,3.94,0.98,5.05,1.75c1.28,1.05-0.07,1.82-0.36,1.96
	c-2.21,0.78-4.68,0.9-7.09,0.14c-1.48-0.46-2.83-1.21-3.99-2.21c-3.39-2.93-4.73-7.59-3.39-11.87c1.84-5.9,8.12-9.2,14.02-7.4
	c0.02,0.01,0.04,0.01,0.07,0.02c0.11,0.04,0.22,0.08,0.33,0.12c0.14,0.06,0.3,0.13,0.45,0.23c0.01,0.01,0.03,0.02,0.04,0.02
	c0,0,0.01,0.01,0.01,0.01c0.13,0.09,0.23,0.2,0.29,0.32c0,0.01,0.01,0.02,0.01,0.02c0,0.01,0,0.01,0.01,0.02
	c0.01,0.04,0.02,0.08,0.03,0.11c0,0.02,0,0.03,0,0.04c0,0.02,0,0.03,0,0.05c0,0.02,0,0.05,0,0.07c0,0.01,0,0.01,0,0.02
	c0,0.02-0.01,0.04-0.01,0.06c0,0.02-0.01,0.03-0.02,0.05l-0.03,0.06l0.01-0.02c-0.02,0.05-0.05,0.09-0.08,0.14
	c-0.01,0.01-0.01,0.01-0.02,0.02c0,0,0,0,0,0c-0.06,0.05-0.15,0.09-0.27,0.1c-0.01,0-0.03,0-0.04,0c0,0-0.08-0.01-0.17-0.01
	c-0.01,0-0.02,0-0.03,0l0,0c-0.01,0-0.02,0-0.03,0c-0.2,0.02-0.5,0.12-0.64,0.5c-0.08,0.24-0.02,0.51,0.15,0.71
	c0.02,0.02,0.04,0.04,0.06,0.06c0.01,0.01,0.02,0.02,0.03,0.03c0,0,0,0,0,0c0.01,0.01,0.03,0.02,0.04,0.02l0,0l0.05,0.03
	c0.02,0.01,0.03,0.02,0.05,0.03l0.12,0.07l0.33,0.19c0.01,0.01,0.03,0.02,0.04,0.02c0.29,0.18,0.89,0.57,1.37,0.93l0.27,0.22
	c0,0,0.52,0.46,1.02,0.93l0.7,0.77c0,0.01,0.01,0.01,0.02,0.02l0.05,0.05l0,0c0.02,0.02,0.03,0.03,0.05,0.05
	c0.31,0.26,0.78,0.21,1.03-0.11c0.07-0.09,0.12-0.19,0.14-0.3c0.01-0.03,0.01-0.06,0.02-0.1c0,0,0,0,0,0c0-0.04,0-0.08,0-0.12
	c0-0.01,0-0.01,0-0.02c0-0.02-0.01-0.04-0.01-0.06c0,0,0,0,0,0c-0.01-0.03-0.01-0.06-0.02-0.1l0,0c-0.08-0.22,0.04-0.38,0.12-0.45
	l1.98-1.6C64.37,13.67,64.32,13.6,64.28,13.53z M48.86,27.52l4.62-5.94c-0.12-0.19-0.12-0.44,0.03-0.63
	c0.19-0.23,0.53-0.26,0.76-0.08c0.23,0.19,0.26,0.53,0.08,0.76c-0.15,0.18-0.4,0.24-0.61,0.16L48.86,27.52z"/>
</svg>
