<?xml version="1.0" encoding="UTF-8" standalone="no"?>
<!-- Generator: Adobe Illustrator 23.0.6, SVG Export Plug-In . SVG Version: 6.00 Build 0)  -->

<svg
   xmlns:dc="http://purl.org/dc/elements/1.1/"
   xmlns:cc="http://creativecommons.org/ns#"
   xmlns:rdf="http://www.w3.org/1999/02/22-rdf-syntax-ns#"
   xmlns:svg="http://www.w3.org/2000/svg"
   xmlns="http://www.w3.org/2000/svg"
   xmlns:sodipodi="http://sodipodi.sourceforge.net/DTD/sodipodi-0.dtd"
   xmlns:inkscape="http://www.inkscape.org/namespaces/inkscape"
   version="1.1"
   id="Слой_1"
   x="0px"
   y="0px"
   viewBox="0 0 33 40"
   style="enable-background:new 0 0 33 40;"
   xml:space="preserve"
   sodipodi:docname="orange.svg"
   inkscape:version="0.92.3 (2405546, 2018-03-11)"><metadata
   id="metadata11"><rdf:RDF><cc:Work
       rdf:about=""><dc:format>image/svg+xml</dc:format><dc:type
         rdf:resource="http://purl.org/dc/dcmitype/StillImage" /></cc:Work></rdf:RDF></metadata><defs
   id="defs9" /><sodipodi:namedview
   pagecolor="#ffffff"
   bordercolor="#666666"
   borderopacity="1"
   objecttolerance="10"
   gridtolerance="10"
   guidetolerance="10"
   inkscape:pageopacity="0"
   inkscape:pageshadow="2"
   inkscape:window-width="746"
   inkscape:window-height="480"
   id="namedview7"
   showgrid="false"
   inkscape:zoom="5.9"
   inkscape:cx="16.5"
   inkscape:cy="20"
   inkscape:window-x="61"
   inkscape:window-y="27"
   inkscape:window-maximized="0"
   inkscape:current-layer="Слой_1" />
<path
   d="M19.3,20.67c1.48-1.26,2.94-2.54,4.42-3.8c0.82-0.7,1.76-1.34,2.96-1.08c2.26,0.46,3.02,2.9,1.4,4.36  c-1.9,1.68-3.86,3.32-5.78,4.98c-1.34,1.16-2.66,2.32-3.98,3.48c-1.2,1.06-2.94,1.14-4.16,0.08c-3.28-2.8-6.54-5.62-9.78-8.44  c-1.28-1.1-1.12-2.76,0.04-3.8c1.12-1,2.72-0.78,4,0.28c1.58,1.3,3.1,2.66,4.88,3.96c0-0.28,0-0.56,0-0.86c0-5.66,0-11.3,0-16.95  c0-1.6,0.76-2.52,2.26-2.82c1.54-0.28,3.1,0.56,3.38,1.9c0.1,0.48,0.12,0.96,0.12,1.44c0,5.4,0,10.78,0,16.17c0,0.34,0,0.68,0,1.02  C19.14,20.61,19.22,20.65,19.3,20.67z"
   id="path2"
   style="fill:#ff8100;fill-opacity:1" />
<path
   d="M29.96,40H3.04c-1.58,0-2.84-1.28-2.84-2.84l0,0c0-1.58,1.28-2.84,2.84-2.84h26.91c1.58,0,2.84,1.28,2.84,2.84l0,0  C32.81,38.72,31.53,40,29.96,40z"
   id="path4"
   style="fill:#ff8100;fill-opacity:1" />
</svg>