<?xml version="1.0" encoding="utf-8"?>
<!-- Generator: Adobe Illustrator 23.0.6, SVG Export Plug-In . SVG Version: 6.00 Build 0)  -->
<svg version="1.1" id="Слой_1" xmlns="http://www.w3.org/2000/svg" xmlns:xlink="http://www.w3.org/1999/xlink" x="0px" y="0px"
	 viewBox="0 0 72 80" style="enable-background:new 0 0 72 80;" xml:space="preserve">
<style type="text/css">
	.st0{fill:#FFFFFF;}
	.st1{fill:#E1E1E1;}
	.st2{fill:#F4F5F4;}
	.st3{fill:#D26957;}
	.st4{font-family:'HelveticaNeueCyr-Bold';}
	.st5{font-size:24.1109px;}
	.st6{letter-spacing:1.07;}
</style>
<path class="st0" d="M3.14,76.79c0,1.77,1.44,3.21,3.21,3.21h59.31c1.77,0,3.21-1.44,3.21-3.21V29.51H3.14V76.79z"/>
<path class="st0" d="M51.07,0H6.35C4.58,0,3.14,1.44,3.14,3.21v27.57h65.72V18.11L51.07,0z"/>
<path class="st1" d="M50.73,0l-1.2,16.88c0,1.86,1.51,3.37,3.37,3.37l15.39-1.97C59.96,10.08,59.79,9.14,50.73,0z"/>
<path class="st2" d="M50.73,0v14.91c0,1.86,1.51,3.37,3.37,3.37h14.75C60.52,10.08,59.79,9.14,50.73,0z"/>
<path class="st3" d="M68.94,61.52H3.06c-1.66,0-3-1.34-3-3V31.99c0-1.66,1.34-3,3-3h65.88c1.66,0,3,1.34,3,3v26.52
	C71.94,60.18,70.6,61.52,68.94,61.52z"/>
<g>
	<text transform="matrix(0.9341 0 0 1 13.0162 54.1529)" class="st0 st4 st5 st6">PPT</text>
</g>
<rect x="11.12" y="12.94" class="st1" width="29.83" height="2.37"/>
<rect x="11.12" y="20.89" class="st1" width="29.83" height="2.37"/>
<rect x="11.12" y="66.85" class="st1" width="49.06" height="2.37"/>
</svg>
