<?xml version="1.0" encoding="utf-8"?>
<!-- Generator: Adobe Illustrator 23.0.6, SVG Export Plug-In . SVG Version: 6.00 Build 0)  -->
<svg version="1.1" id="Слой_1" xmlns="http://www.w3.org/2000/svg" xmlns:xlink="http://www.w3.org/1999/xlink" x="0px" y="0px"
	 viewBox="0 0 170.08 42.52" style="enable-background:new 0 0 170.08 42.52;" xml:space="preserve">
<style type="text/css">
	.st0{fill:#C85412;}
	.st1{fill:url(#SVGID_1_);}
	.st2{fill:#00446A;}
	.st3{fill:#F47B20;}
</style>
<path class="st0" d="M231.11,74.96c-38.43,0-69.58,31.15-69.58,69.57c0,31.5,20.84,58.15,49.55,66.71c0.12,0.04,1.87,0.59,2.83,0.83
	c0.79,0.19,2.75,0.62,2.94,0.66c2.04,0.41,5.3,0.77,7.41,0.98c2.35,0.23,3.82,0.28,7.15,0.28c0.05,0,0.56-0.25,0.56-1
	c0-0.43-0.24-0.61-0.45-0.69c-0.07-0.02-0.35-0.11-0.4-0.13c-3.52-1.31-5.99-3.99-7.77-6.98c-1.72-2.94-1.97-7.72-1.97-14.64
	l0.01-29.62c0,0,9.3,0,10.56,0c3.87,0,11.11,2.83,11.26,15.33l-0.03,16.88c0,6.92,1.18,13.17,3.97,15.36c1.28,1,2.91,1.51,4.94,1.51
	c0.79,0.04,1.74-0.02,2.35-0.14c0.31-0.06,0.82-0.26,1.52-0.54c25.88-10.13,44.21-35.32,44.21-64.79
	C300.18,106.1,269.53,74.96,231.11,74.96z M224.82,142.36c-2.91-0.28-3.44-3.03-3.44-3.03v-20.17c0,0,0.51-2.65,3.28-3.01
	l15.11-0.02c2.89,0.3,3.42,3.03,3.42,3.03v20.18c0,0-0.53,2.74-3.43,3.03H224.82z M255.49,193.62l-0.09-23.5
	c0-8.37-2.29-12.28-6.15-15.93c-1.46-1.38-4.21-2.07-5.55-2.56c4.37-0.97,11.78-4.14,11.78-13.69c0-0.97-0.02-2.49,0-4.3
	c0.07-4.68-0.05-15.04-0.05-15.04c-0.15-12.23-7.13-14.78-11.07-15.25c-0.62-0.04-1.3-0.04-1.98-0.04c-0.16,0-23.24,0-25.07,0
	c-3.93,0.45-10.84,2.92-11.03,15.06l0.01,75.26c-18.21-8.85-29.75-27.54-29.75-49.11c0-30.08,24.48-54.56,54.57-54.56
	c30.08,0,54.08,24.48,54.08,54.56C285.18,166.3,273.19,184.2,255.49,193.62z"/>
<radialGradient id="SVGID_1_" cx="87.6994" cy="22.372" r="89.1436" fx="87.5565" fy="21.6995" gradientTransform="matrix(1 0 0 0.9592 0 1.7317)" gradientUnits="userSpaceOnUse">
	<stop  offset="0" style="stop-color:#F4F8FA"/>
	<stop  offset="0.9302" style="stop-color:#EDF2F5"/>
	<stop  offset="1" style="stop-color:#ECF1F4"/>
</radialGradient>
<rect x="-0.03" y="0.02" class="st1" width="170.08" height="42.49"/>
<g>
	<g>
		<path class="st2" d="M77.15,22.77c-0.49-0.94-0.94-1.46-1.53-1.68c0.47-0.27,0.86-0.76,1.28-1.56l2.78-5.08h-2.86l-2.12,4.19
			c-0.26,0.54-0.48,0.9-0.68,1.13l0,0c-0.13,0.1-0.27,0.19-0.42,0.26c-0.2,0.08-0.42,0.13-0.68,0.13H71.7v-5.71H69.2v13.58h2.49
			v-5.85h1.51h0.39c0.03,0,0.06,0,0.09,0.01c0.38,0.04,0.75,0.39,1.27,1.48l2.08,4.37h2.86L77.15,22.77z"/>
		<g>
			<g>
				<path class="st2" d="M25.33,16.56h-3.96v-2.1h10.73l-0.68,2.1h-3.63v11.48h-2.47V16.56z"/>
				<path class="st2" d="M33.65,14.45h7.5l-0.68,2.1h-4.35v3.54h4.35v2.1h-4.35v3.73h5.05v2.1h-7.52V14.45z"/>
				<path class="st2" d="M47.45,21.21l-4.47-6.76h2.8l3.21,4.88l3.44-4.88h2.72l-4.76,6.7l4.55,6.88h-2.76l-3.34-5.01l-3.54,5.01
					h-2.72L47.45,21.21z"/>
				<path class="st2" d="M56.6,27.6v-2.16c0.97,0.45,2.18,0.74,3.48,0.74c2.6,0,4.12-1.42,4.31-4.02h-6.35v-2h6.33
					c-0.25-2.14-1.63-3.77-4.26-3.77c-1.09,0-2.2,0.29-3.19,0.8l-0.66-1.9c1.01-0.49,2.39-0.97,4.08-0.97
					c4.31,0,6.68,3.07,6.68,6.98c0,4.06-2.27,6.92-6.8,6.92C58.76,28.24,57.44,27.95,56.6,27.6z"/>
				<path class="st2" d="M91.72,27.17c-1.5,0.82-2.95,1.07-4.31,1.07c-4.45,0-6.86-2.86-6.86-6.84c0-3.94,2.8-7.07,7.17-7.07
					c1.48,0,2.72,0.29,3.56,0.66v2.31c-1.05-0.56-2.18-0.89-3.5-0.89c-3.01,0-4.59,2.27-4.59,4.92c0,2.84,1.73,4.82,4.51,4.82
					c1.34,0,2.37-0.39,3.34-0.95L91.72,27.17z"/>
				<path class="st2" d="M93.52,14.45h10.86v13.58h-2.49V16.56h-5.87v11.48h-2.49V14.45z"/>
				<g>
					<g>
						<path class="st2" d="M109.72,25.93V22.2h3.33c-0.04-0.41-0.06-0.82-0.06-1.24c0-0.29,0.01-0.58,0.03-0.86h-3.3v-3.54h4.01
							c0.25-0.73,0.57-1.43,0.94-2.1h-7.42v13.58h7.75c-0.41-0.66-0.76-1.37-1.06-2.1H109.72z"/>
						<path class="st2" d="M137.98,14.45c0.37,0.67,0.68,1.37,0.94,2.1h3.3v11.48h2.47V16.56h3.96v-2.1H137.98z"/>
					</g>
				</g>
			</g>
		</g>
	</g>
	<path class="st3" d="M126.55,9.76c-6.36,0-11.51,5.15-11.51,11.51c0,5.21,3.45,9.62,8.2,11.03c0.02,0.01,0.31,0.1,0.47,0.14
		c0.13,0.03,0.45,0.1,0.49,0.11c0.34,0.07,0.88,0.13,1.23,0.16c0.39,0.04,0.63,0.05,1.18,0.05c0.01,0,0.09-0.04,0.09-0.17
		c0-0.07-0.04-0.1-0.07-0.11c-0.01,0-0.06-0.02-0.07-0.02c-0.58-0.22-0.99-0.66-1.29-1.15c-0.28-0.49-0.32-1.28-0.32-2.42l0-4.9
		c0,0,1.54,0,1.75,0c0.64,0,1.84,0.47,1.86,2.54l-0.01,2.79c0,1.14,0.19,2.18,0.66,2.54c0.21,0.17,0.48,0.25,0.82,0.25
		c0.13,0.01,0.29,0,0.39-0.02c0.05-0.01,0.14-0.04,0.25-0.09c4.28-1.68,7.31-5.84,7.31-10.72C137.97,14.91,132.9,9.76,126.55,9.76z
		 M125.51,20.91c-0.48-0.05-0.57-0.5-0.57-0.5v-3.34c0,0,0.08-0.44,0.54-0.5l2.5,0c0.48,0.05,0.57,0.5,0.57,0.5v3.34
		c0,0-0.09,0.45-0.57,0.5H125.51z M130.58,29.39l-0.01-3.89c0-1.38-0.38-2.03-1.02-2.64c-0.24-0.23-0.7-0.34-0.92-0.42
		c0.72-0.16,1.95-0.68,1.95-2.26c0-0.16,0-0.41,0-0.71c0.01-0.77-0.01-2.49-0.01-2.49c-0.02-2.02-1.18-2.45-1.83-2.52
		c-0.1-0.01-0.22-0.01-0.33-0.01c-0.03,0-3.84,0-4.15,0c-0.65,0.08-1.79,0.48-1.82,2.49l0,12.45c-3.01-1.46-4.92-4.56-4.92-8.12
		c0-4.98,4.05-9.02,9.03-9.02c4.98,0,8.94,4.05,8.94,9.02C135.49,24.87,133.51,27.83,130.58,29.39z"/>
</g>
</svg>
