<?xml version="1.0" encoding="UTF-8" standalone="no"?>
<!-- Generator: Adobe Illustrator 23.0.6, SVG Export Plug-In . SVG Version: 6.00 Build 0)  -->

<svg
   xmlns:dc="http://purl.org/dc/elements/1.1/"
   xmlns:cc="http://creativecommons.org/ns#"
   xmlns:rdf="http://www.w3.org/1999/02/22-rdf-syntax-ns#"
   xmlns:svg="http://www.w3.org/2000/svg"
   xmlns="http://www.w3.org/2000/svg"
   xmlns:sodipodi="http://sodipodi.sourceforge.net/DTD/sodipodi-0.dtd"
   xmlns:inkscape="http://www.inkscape.org/namespaces/inkscape"
   version="1.1"
   id="Слой_1"
   x="0px"
   y="0px"
   viewBox="0 0 50 50"
   style="enable-background:new 0 0 50 50;"
   xml:space="preserve"
   sodipodi:docname="zoom.svg"
   inkscape:version="0.92.3 (2405546, 2018-03-11)"><metadata
   id="metadata11"><rdf:RDF><cc:Work
       rdf:about=""><dc:format>image/svg+xml</dc:format><dc:type
         rdf:resource="http://purl.org/dc/dcmitype/StillImage" /></cc:Work></rdf:RDF></metadata><defs
   id="defs9" /><sodipodi:namedview
   pagecolor="#ffffff"
   bordercolor="#666666"
   borderopacity="1"
   objecttolerance="10"
   gridtolerance="10"
   guidetolerance="10"
   inkscape:pageopacity="0"
   inkscape:pageshadow="2"
   inkscape:window-width="746"
   inkscape:window-height="480"
   id="namedview7"
   showgrid="false"
   inkscape:zoom="4.72"
   inkscape:cx="25"
   inkscape:cy="25"
   inkscape:window-x="61"
   inkscape:window-y="27"
   inkscape:window-maximized="0"
   inkscape:current-layer="Слой_1" />
<path
   d="M31.05,35.51C21.19,42.16,9.72,38.9,4.11,31.6c-5.93-7.72-5.35-18.7,1.35-25.55C12.42-1.08,23.18-2,31.23,3.8  c7.78,5.61,11.08,17.55,4.45,27.15c0.17,0.19,0.34,0.39,0.53,0.58c4.24,4.25,8.47,8.51,12.71,12.76c1.36,1.36,1.42,3.31,0.13,4.67  c-1.3,1.37-3.23,1.42-4.64,0.01c-4.24-4.2-8.46-8.44-12.68-12.66C31.48,36.07,31.29,35.8,31.05,35.51z M35.11,19.69  c0.05-8.51-6.85-15.45-15.41-15.52C11.22,4.1,4.27,10.95,4.2,19.46c-0.08,8.57,6.83,15.53,15.44,15.55  C28.16,35.04,35.06,28.2,35.11,19.69z"
   id="path2"
   style="fill:#ffffff" />
<path
   d="M18.6,18.15c0-2.14-0.01-4.17,0.01-6.21c0.01-0.94,0.62-1.58,1.47-1.62c0.76-0.03,1.45,0.54,1.57,1.33  c0.04,0.29,0.02,0.6,0.02,0.9c0,1.82,0,3.65,0,5.6c1.59,0,3.11,0,4.63,0c0.51,0,1.02-0.02,1.53,0.02c0.96,0.07,1.5,0.6,1.52,1.45  c0.02,0.86-0.56,1.52-1.51,1.57c-1.08,0.06-2.16,0.03-3.24,0.03c-0.95,0-1.9,0-2.97,0c0,1.8,0,3.5,0,5.2c0,0.39,0.02,0.79-0.04,1.17  c-0.13,0.87-0.8,1.4-1.63,1.34c-0.8-0.06-1.37-0.61-1.39-1.48c-0.03-1.71-0.02-3.42-0.02-5.13c0-0.32,0-0.65,0-1.1  c-1.32,0-2.54,0-3.76,0c-0.75,0-1.5,0.02-2.25-0.01c-1.16-0.03-1.83-0.62-1.81-1.56c0.01-0.89,0.68-1.48,1.79-1.49  c1.68-0.03,3.36-0.01,5.04-0.01C17.87,18.15,18.19,18.15,18.6,18.15z"
   id="path4"
   style="fill:#ffffff" />
</svg>