<svg width="16" height="16" viewBox="0 0 16 16" fill="none" xmlns="http://www.w3.org/2000/svg">
<path opacity="0.8" fill-rule="evenodd" clip-rule="evenodd" d="M9.09684 2.0949L8.44085 0.80957L7.51807 1.91824L7.51769 1.9187C7.19193 2.31008 6.61582 2.37569 6.21041 2.06761L6.21019 2.06745L5.06148 1.19403L4.71111 2.5933L4.71097 2.59386C4.58727 3.08792 4.09652 3.39701 3.5975 3.29518L2.18359 3.00666L2.47516 4.41995L2.47522 4.42028C2.57793 4.91897 2.26992 5.41019 1.77624 5.53493L1.77579 5.53505L0.377164 5.88846L1.2528 7.03494L1.25306 7.03528C1.56212 7.43993 1.49792 8.01612 1.10745 8.34283L1.10714 8.34309L0 9.26865L1.28572 9.92134L1.28674 9.92186C1.74074 10.1523 1.93291 10.6993 1.72291 11.163L1.72271 11.1635L1.1268 12.4777L2.56887 12.5079L2.56953 12.508C3.07854 12.5186 3.48897 12.928 3.50102 13.4369L3.50104 13.4375L3.53438 14.8801L4.84652 14.2818L4.84735 14.2814C5.31075 14.0701 5.85838 14.261 6.0899 14.7147L6.09015 14.7151L6.74589 16L7.66872 14.8913L7.66905 14.8909C7.99487 14.4994 8.57113 14.4339 8.97655 14.7421L8.97725 14.7427L10.1253 15.6155L10.4758 14.2157L10.4759 14.215C10.5999 13.7214 11.0905 13.4126 11.5892 13.5144L11.5898 13.5145L13.0032 13.8029L12.7116 12.3899L12.7116 12.3896C12.6087 11.8911 12.9164 11.3999 13.4098 11.2748L13.4105 11.2746L14.8096 10.9211L13.9343 9.77514L13.9337 9.77429C13.6245 9.36953 13.6889 8.79314 14.0796 8.46648L14.0802 8.46595L15.1867 7.54092L13.9004 6.88791L13.9 6.88771C13.4459 6.65717 13.2537 6.10995 13.464 5.6461L13.4643 5.64549L14.0599 4.33183L12.6175 4.30161L12.6172 4.30161C12.108 4.29094 11.6975 3.88128 11.6857 3.37211L11.6857 3.37131L11.6524 1.92944L10.3394 2.52819C9.87626 2.73938 9.32899 2.54876 9.09724 2.09569L9.09684 2.0949ZM12.31 8.37533C12.31 10.9956 10.1859 13.1197 7.5656 13.1197C4.94533 13.1197 2.82119 10.9956 2.82119 8.37533C2.82119 5.75506 4.94533 3.63092 7.5656 3.63092C10.1859 3.63092 12.31 5.75506 12.31 8.37533ZM7.56586 12.2475C9.70456 12.2475 11.4383 10.5137 11.4383 8.37502C11.4383 6.23632 9.70456 4.50256 7.56586 4.50256C5.42715 4.50256 3.69339 6.23632 3.69339 8.37502C3.69339 10.5137 5.42715 12.2475 7.56586 12.2475Z" fill="#E2B33A"/>
</svg>
