<svg width="26" height="26" viewBox="0 0 26 26" fill="none" xmlns="http://www.w3.org/2000/svg">
<circle cx="13" cy="13" r="13" fill="#E2B33A"/>
<path fill-rule="evenodd" clip-rule="evenodd" d="M14.8336 5.36761L14.0384 3.80957L12.919 5.15448L12.9186 5.155C12.5235 5.6291 11.8253 5.70847 11.3339 5.33508L11.3336 5.33484L9.94066 4.27575L9.51578 5.9726L9.51564 5.97316C9.36563 6.57224 8.77057 6.94704 8.16547 6.82356L8.16492 6.82345L6.45099 6.47371L6.80454 8.18743L6.80462 8.18785C6.92915 8.79254 6.55567 9.38817 5.95705 9.53943L5.95658 9.53955L4.26056 9.96811L5.32266 11.3587L5.32313 11.3593C5.69744 11.8501 5.61932 12.5486 5.14571 12.9445L5.1452 12.945L3.80322 14.0668L5.3635 14.8589L5.36393 14.8591C5.91407 15.1387 6.14691 15.8016 5.89245 16.3638L5.89214 16.3645L5.16955 17.9581L6.91897 17.9948L6.91937 17.9948C7.53662 18.0079 8.03423 18.5046 8.0485 19.1219L8.08892 20.8712L9.681 20.1452L9.68214 20.1447C10.2438 19.8892 10.9071 20.1209 11.1877 20.6706L11.1881 20.6713L11.9831 22.2291L13.1022 20.8847L13.1025 20.8842C13.4975 20.4097 14.1958 20.3301 14.6874 20.7034L14.688 20.7039L16.0809 21.7629L16.5058 20.066L16.5059 20.0655C16.6559 19.4666 17.2507 19.0918 17.8556 19.2151L17.8561 19.2151L19.5705 19.565L19.2171 17.852L19.217 17.8513C19.0922 17.2464 19.4657 16.6506 20.0645 16.4993L20.0654 16.499L21.761 16.0706L20.6995 14.6808L20.6989 14.68C20.324 14.1892 20.402 13.4903 20.8758 13.0942L22.2183 11.9718L20.658 11.1798L20.6574 11.1795C20.1072 10.8997 19.8745 10.2365 20.1294 9.67423L20.1296 9.67384L20.852 8.08058L19.1033 8.04395L19.1025 8.04393C18.4854 8.031 17.9878 7.53474 17.973 6.91774L17.973 6.91684L17.9326 5.1675L16.3413 5.89317L16.3405 5.89352C15.7786 6.14977 15.1146 5.91821 14.8338 5.36813L14.8336 5.36761ZM18.7298 12.9832C18.7298 16.1605 16.1541 18.7362 12.9768 18.7362C9.79957 18.7362 7.22388 16.1605 7.22388 12.9832C7.22388 9.80594 9.79957 7.23025 12.9768 7.23025C16.1541 7.23025 18.7298 9.80594 18.7298 12.9832ZM12.9769 17.6789C15.5703 17.6789 17.6726 15.5766 17.6726 12.9832C17.6726 10.3899 15.5703 8.28755 12.9769 8.28755C10.3836 8.28755 8.28125 10.3899 8.28125 12.9832C8.28125 15.5766 10.3836 17.6789 12.9769 17.6789Z" fill="white" fill-opacity="0.7"/>
</svg>
