<svg width="26" height="26" viewBox="0 0 26 26" fill="none" xmlns="http://www.w3.org/2000/svg">
<circle cx="13" cy="13" r="13" fill="#9A38BC"/>
<path fill-rule="evenodd" clip-rule="evenodd" d="M13.7303 15.1286C12.8241 15.9238 11.9437 16.5891 11.154 17.0866L11.7949 19.431C11.8422 19.6042 11.7283 19.7801 11.5509 19.8077L10.8819 19.912C10.7554 19.9317 10.6302 19.8692 10.57 19.7562L9.57954 17.899C8.90513 18.1481 8.39484 18.1657 8.13225 17.9031C7.86787 17.6387 7.88754 17.1233 8.14156 16.442L6.24377 15.4299C6.13079 15.3697 6.0683 15.2445 6.08801 15.118L6.19225 14.449C6.2199 14.2716 6.39577 14.1577 6.56898 14.2051L8.96269 14.8593C9.46063 14.0723 10.1242 13.196 10.9162 12.2944L9.71948 11.634L9.62205 11.7315C9.34781 12.0057 8.90316 12.0057 8.62891 11.7315L8.55798 11.6605C8.35412 11.4567 8.30179 11.1587 8.401 10.9065L5.23992 9.16213C5.10862 9.08968 5.0507 8.93162 5.10408 8.79148L5.48682 7.7868C5.5396 7.64824 5.68544 7.56877 5.83049 7.59952L10.6121 8.61323L11.0054 8.22001C11.2796 7.94576 11.7242 7.94576 11.9985 8.22001L12.0694 8.29095C12.2511 8.47261 12.3124 8.72904 12.2534 8.96118L13.9032 9.31094C13.9168 9.31381 13.9299 9.3175 13.9424 9.32192C16.3543 7.28482 18.5145 6.22351 19.1632 6.87218C19.814 7.52299 18.7435 9.69538 16.6933 12.1168L17.0388 13.7466C17.2709 13.6876 17.5274 13.7489 17.709 13.9306L17.78 14.0015C18.0542 14.2758 18.0542 14.7204 17.78 14.9946L17.3868 15.3878L18.4005 20.1695C18.4312 20.3145 18.3517 20.4604 18.2132 20.5131L17.2085 20.8959C17.0684 20.9493 16.9103 20.8913 16.8378 20.76L15.0935 17.599C14.8413 17.6982 14.5433 17.6459 14.3394 17.442L14.2685 17.3711C13.9942 17.0968 13.9942 16.6522 14.2685 16.3779L14.3659 16.2805L13.7303 15.1286Z" fill="white" fill-opacity="0.8"/>
</svg>
