<svg width="13" height="13" viewBox="0 0 13 13" fill="none" xmlns="http://www.w3.org/2000/svg">
<g clip-path="url(#clip0)">
<path opacity="0.8" fill-rule="evenodd" clip-rule="evenodd" d="M8.08907 7.32562C7.32741 7.99391 6.58745 8.553 5.92379 8.97109L6.46834 10.9633C6.50499 11.0974 6.41681 11.2336 6.27944 11.255L5.68089 11.3482C5.58294 11.3635 5.48606 11.3151 5.43941 11.2276L4.60016 9.65389C4.03349 9.86312 3.60473 9.87785 3.38406 9.65718C3.16186 9.43498 3.17833 9.0018 3.39172 8.4293L1.78336 7.57159C1.69589 7.52494 1.64751 7.42806 1.66277 7.33011L1.75604 6.73156C1.77744 6.59419 1.9136 6.50601 2.04771 6.54266L4.08198 7.0987C4.50052 6.43708 5.05832 5.70045 5.72405 4.94256L4.71763 4.38719L4.60266 4.50216C4.39033 4.71449 4.04608 4.71449 3.83375 4.50216L3.70813 4.37654C3.54376 4.21218 3.50664 3.96875 3.59675 3.76867L0.936532 2.30071C0.834878 2.24461 0.790029 2.12224 0.831362 2.01374L1.16539 1.13692C1.20626 1.02964 1.31916 0.968114 1.43146 0.991921L5.46808 1.84768L5.83153 1.48423C6.04386 1.27191 6.38811 1.27191 6.60044 1.48423L6.72606 1.60985C6.87062 1.75441 6.91676 1.96013 6.86448 2.14372L8.27026 2.44174C10.2971 0.73025 12.1122 -0.161252 12.6573 0.383899C13.2046 0.931122 12.3042 2.75799 10.5799 4.79411L10.8667 6.14669C11.0504 6.09414 11.2564 6.14022 11.4011 6.28494L11.5268 6.41056C11.7391 6.62289 11.7391 6.96714 11.5268 7.17947L11.1628 7.54344L12.0185 11.5798C12.0423 11.6921 11.9808 11.805 11.8735 11.8458L10.9967 12.1799C10.8882 12.2212 10.7658 12.1764 10.7097 12.0747L9.24176 9.41451C9.04179 9.50429 8.79867 9.46708 8.63445 9.30287L8.50883 9.17725C8.29651 8.96492 8.29651 8.62067 8.50883 8.40834L8.62335 8.29383L8.08907 7.32562Z" fill="#9A38BC"/>
</g>
<defs>
<clipPath id="clip0">
<rect width="13" height="13" fill="white"/>
</clipPath>
</defs>
</svg>
