<svg width="15" height="14" viewBox="0 0 15 14" fill="none" xmlns="http://www.w3.org/2000/svg">
<g opacity="0.8">
<mask id="path-1-outside-1" maskUnits="userSpaceOnUse" x="0" y="0" width="15" height="14" fill="black">
<rect fill="white" width="15" height="14"/>
<path fill-rule="evenodd" clip-rule="evenodd" d="M2.9314 6.3125L7.54679 2.49664L12.2009 6.34453V11.6948H8.91776V7.63935H6.21411V11.6948H2.9314V6.3125ZM13.3596 11.6948V6.90042L13.9005 6.24624L7.55501 1L7.52615 1.0349L7.51406 1.02027L1.19339 6.246L1.7727 6.94668V11.6948H1V13.2398H14.132V11.6948H13.3596Z"/>
</mask>
<path fill-rule="evenodd" clip-rule="evenodd" d="M2.9314 6.3125L7.54679 2.49664L12.2009 6.34453V11.6948H8.91776V7.63935H6.21411V11.6948H2.9314V6.3125ZM13.3596 11.6948V6.90042L13.9005 6.24624L7.55501 1L7.52615 1.0349L7.51406 1.02027L1.19339 6.246L1.7727 6.94668V11.6948H1V13.2398H14.132V11.6948H13.3596Z" fill="#2EA757"/>
<path d="M7.54679 2.49664L7.67423 2.3425L7.54679 2.23714L7.41935 2.3425L7.54679 2.49664ZM2.9314 6.3125L2.80396 6.15836L2.7314 6.21835V6.3125H2.9314ZM12.2009 6.34453H12.4009V6.25038L12.3284 6.19039L12.2009 6.34453ZM12.2009 11.6948V11.8948H12.4009V11.6948H12.2009ZM8.91776 11.6948H8.71776V11.8948H8.91776V11.6948ZM8.91776 7.63935H9.11776V7.43935H8.91776V7.63935ZM6.21411 7.63935V7.43935H6.01411V7.63935H6.21411ZM6.21411 11.6948V11.8948H6.41411V11.6948H6.21411ZM2.9314 11.6948H2.7314V11.8948H2.9314V11.6948ZM13.3596 6.90042L13.2055 6.77298L13.1596 6.82845V6.90042H13.3596ZM13.3596 11.6948H13.1596V11.8948H13.3596V11.6948ZM13.9005 6.24624L14.0546 6.37368L14.1821 6.21953L14.0279 6.0921L13.9005 6.24624ZM7.55501 1L7.68244 0.845859L7.5283 0.718421L7.40087 0.872561L7.55501 1ZM7.52615 1.0349L7.37201 1.16234L7.52615 1.34878L7.68029 1.16234L7.52615 1.0349ZM7.51406 1.02027L7.6682 0.892833L7.54076 0.738691L7.38662 0.866131L7.51406 1.02027ZM1.19339 6.246L1.06595 6.09186L0.911811 6.21929L1.03925 6.37344L1.19339 6.246ZM1.7727 6.94668H1.9727V6.87471L1.92684 6.81925L1.7727 6.94668ZM1.7727 11.6948V11.8948H1.9727V11.6948H1.7727ZM1 11.6948V11.4948H0.8V11.6948H1ZM1 13.2398H0.8V13.4398H1V13.2398ZM14.132 13.2398V13.4398H14.332V13.2398H14.132ZM14.132 11.6948H14.332V11.4948H14.132V11.6948ZM7.41935 2.3425L2.80396 6.15836L3.05884 6.46664L7.67423 2.65079L7.41935 2.3425ZM12.3284 6.19039L7.67423 2.3425L7.41935 2.65079L12.0735 6.49867L12.3284 6.19039ZM12.4009 11.6948V6.34453H12.0009V11.6948H12.4009ZM8.91776 11.8948H12.2009V11.4948H8.91776V11.8948ZM8.71776 7.63935V11.6948H9.11776V7.63935H8.71776ZM6.21411 7.83935H8.91776V7.43935H6.21411V7.83935ZM6.41411 11.6948V7.63935H6.01411V11.6948H6.41411ZM2.9314 11.8948H6.21411V11.4948H2.9314V11.8948ZM2.7314 6.3125V11.6948H3.1314V6.3125H2.7314ZM13.1596 6.90042V11.6948H13.5596V6.90042H13.1596ZM13.7463 6.1188L13.2055 6.77298L13.5138 7.02786L14.0546 6.37368L13.7463 6.1188ZM7.42757 1.15414L13.773 6.40038L14.0279 6.0921L7.68244 0.845859L7.42757 1.15414ZM7.68029 1.16234L7.70915 1.12744L7.40087 0.872561L7.37201 0.907461L7.68029 1.16234ZM7.35992 1.14771L7.37201 1.16234L7.68029 0.907462L7.6682 0.892833L7.35992 1.14771ZM1.32083 6.40014L7.6415 1.17441L7.38662 0.866131L1.06595 6.09186L1.32083 6.40014ZM1.92684 6.81925L1.34753 6.11856L1.03925 6.37344L1.61856 7.07412L1.92684 6.81925ZM1.9727 11.6948V6.94668H1.5727V11.6948H1.9727ZM1 11.8948H1.7727V11.4948H1V11.8948ZM1.2 13.2398V11.6948H0.8V13.2398H1.2ZM14.132 13.0398H1V13.4398H14.132V13.0398ZM13.932 11.6948V13.2398H14.332V11.6948H13.932ZM13.3596 11.8948H14.132V11.4948H13.3596V11.8948Z" fill="#2EA757" mask="url(#path-1-outside-1)"/>
</g>
</svg>
