<svg width="26" height="26" viewBox="0 0 26 26" fill="none" xmlns="http://www.w3.org/2000/svg">
<circle cx="13" cy="13" r="13" fill="#4192CF"/>
<path fill-rule="evenodd" clip-rule="evenodd" d="M6.88936 7.99347H19.1103C19.2658 7.99347 19.3919 8.11854 19.3919 8.27282V17.2546H14.1817V13.7092H11.8181V17.2546H6.60777V8.27282C6.60777 8.11854 6.73384 7.99347 6.88936 7.99347ZM5.19983 17.2546V8.27282C5.19983 7.34711 5.95626 6.59668 6.88936 6.59668H19.1103C20.0434 6.59668 20.7998 7.34712 20.7998 8.27282V17.2546H21.5089V19.1456H4.49072V17.2546H5.19983ZM10.2684 10.0756H8.24097V12.0869H10.2684V10.0756ZM8.24097 13.7072H10.2684V15.7186H8.24097V13.7072ZM13.9854 10.0756H11.9579V12.0869H13.9854V10.0756ZM17.7023 10.0756H15.6749V12.0869H17.7023V10.0756ZM15.6749 13.7072H17.7023V15.7186H15.6749V13.7072Z" fill="white" fill-opacity="0.7"/>
</svg>
