<svg width="14" height="11" viewBox="0 0 14 11" fill="none" xmlns="http://www.w3.org/2000/svg">
<path opacity="0.8" fill-rule="evenodd" clip-rule="evenodd" d="M1.97333 1.14907H12.0269C12.1548 1.14907 12.2585 1.25196 12.2585 1.37888V8.76761H7.97228V5.8512H6.02783V8.76761H1.74168V1.37888C1.74168 1.25196 1.8454 1.14907 1.97333 1.14907ZM0.583442 8.76761V1.37888C0.583442 0.617345 1.20572 0 1.97333 0H12.0269C12.7945 0 13.4168 0.617346 13.4168 1.37888V8.76761H14V10.3232H0V8.76761H0.583442ZM4.75292 2.86206H3.08505V4.51672H4.75292V2.86206ZM3.08505 5.8496H4.75292V7.50426H3.08505V5.8496ZM7.81079 2.86206H6.14292V4.51672H7.81079V2.86206ZM10.8687 2.86206H9.2008V4.51672H10.8687V2.86206ZM9.2008 5.8496H10.8687V7.50426H9.2008V5.8496Z" fill="#4192CF"/>
</svg>
