<svg width="13" height="14" viewBox="0 0 13 14" fill="none" xmlns="http://www.w3.org/2000/svg">
<path opacity="0.8" fill-rule="evenodd" clip-rule="evenodd" d="M2.36332 0.918945H4.05285V2.4948H8.86359V0.918945H10.5531V2.4948H13V3.26471V4.46449V11.9372C13 12.7086 12.3696 13.334 11.5921 13.334H1.40794C0.630357 13.334 0 12.7086 0 11.9372V4.46449V3.26471V2.4948H2.36332V0.918945ZM11.8267 4.46449H1.17329V11.9372C1.17329 12.0657 1.27834 12.17 1.40794 12.17H11.5921C11.7217 12.17 11.8267 12.0657 11.8267 11.9372V4.46449ZM9.45273 6.42413L8.47778 5.44918L6.5977 7.32925L4.71763 5.44918L3.74268 6.42413L5.62275 8.3042L3.7423 10.1846L4.71725 11.1596L6.5977 9.27915L8.47815 11.1596L9.4531 10.1846L7.57265 8.3042L9.45273 6.42413Z" fill="#EF8432"/>
</svg>
