<svg width="12" height="12" viewBox="0 0 12 12" fill="none" xmlns="http://www.w3.org/2000/svg">
<path opacity="0.8" fill-rule="evenodd" clip-rule="evenodd" d="M0.423843 0.989975C0.189529 1.22429 0.189529 1.60417 0.423843 1.83849L4.24226 5.65691L0.423782 9.47539C0.189468 9.7097 0.189468 10.0896 0.423782 10.3239L0.989456 10.8896C1.22377 11.1239 1.60365 11.1239 1.83797 10.8896L5.65645 7.07109L9.47481 10.8895C9.70912 11.1238 10.089 11.1238 10.3233 10.8895L10.8891 10.3238C11.1234 10.0895 11.1234 9.70958 10.8891 9.47527L7.07069 5.65691L10.8889 1.83864C11.1232 1.60432 11.1232 1.22444 10.8889 0.990128L10.3233 0.424423C10.0889 0.190109 9.70906 0.190109 9.47475 0.424423L5.65651 4.24266L1.83809 0.424271C1.60378 0.189957 1.22383 0.189957 0.989517 0.424271L0.423843 0.989975Z" fill="#656565"/>
</svg>
