<svg width="26" height="26" viewBox="0 0 26 26" fill="none" xmlns="http://www.w3.org/2000/svg">
<circle cx="13" cy="13" r="13" fill="#EF8432"/>
<path fill-rule="evenodd" clip-rule="evenodd" d="M8.0365 5.2002H10.0639V7.0911H15.8366V5.2002H17.864V7.0911H20.8002V8.01497V9.45474V18.4219C20.8002 19.3476 20.0438 20.0981 19.1107 20.0981H6.88973C5.95662 20.0981 5.2002 19.3476 5.2002 18.4219V9.45474V8.01497V7.0911H8.0365V5.2002ZM19.3923 9.45474H6.60814V18.4219C6.60814 18.5762 6.73421 18.7013 6.88973 18.7013H19.1107C19.2662 18.7013 19.3923 18.5762 19.3923 18.4219V9.45474ZM9.6911 11.8065L10.861 10.6366L13.1174 12.8929L15.3737 10.6366L16.5436 11.8065L14.2873 14.0628L16.5436 16.3191L15.3737 17.4891L13.1174 15.2328L10.861 17.4891L9.6911 16.3191L11.9474 14.0628L9.6911 11.8065Z" fill="white" fill-opacity="0.7"/>
</svg>
