<?xml version="1.0" encoding="utf-8"?>
<!-- Generator: Adobe Illustrator 13.0.0, SVG Export Plug-In . SVG Version: 6.00 Build 14948)  -->
<!DOCTYPE svg PUBLIC "-//W3C//DTD SVG 1.1//EN" "http://www.w3.org/Graphics/SVG/1.1/DTD/svg11.dtd">
<svg version="1.1" id="Layer_1" xmlns="http://www.w3.org/2000/svg" xmlns:xlink="http://www.w3.org/1999/xlink" x="0px" y="0px"
	 width="8.461px" height="18.008px" viewBox="0 0 8.461 18.008" enable-background="new 0 0 8.461 18.008" xml:space="preserve">
<g>
	<g>
		<path fill-rule="evenodd" clip-rule="evenodd" d="M8.43,9.269c-0.053-0.211-1.24-4.376-1.313-4.561
			C7.046,4.523,6.888,4.304,6.72,4.245C6.598,4.202,5.739,3.989,4.972,3.878V3.317c0.287-0.196,0.463-0.501,0.568-0.828
			c0.13-0.033,0.23-0.168,0.23-0.34c0-0.109-0.042-0.204-0.106-0.269C5.672,1.811,5.68,1.74,5.683,1.675
			C5.716,0.893,5.288,0,4.221,0C3.085,0,2.725,0.893,2.759,1.675c0.002,0.056,0.008,0.118,0.013,0.177
			C2.69,1.915,2.633,2.021,2.633,2.149c0,0.183,0.113,0.328,0.256,0.346c0.103,0.343,0.281,0.665,0.6,0.856v0.526
			C2.722,3.989,1.863,4.202,1.741,4.245c-0.168,0.06-0.326,0.278-0.397,0.464c-0.072,0.185-1.259,4.35-1.313,4.561
			c-0.053,0.21-0.114,0.648,0.5,0.774c0.575,0.12,0.748-0.205,0.795-0.354C1.399,9.457,2.2,7.192,2.2,7.192l0.09,3.391
			c0.002,0.758,0.11,6.925,0.114,7.045c0.01,0.253,0.129,0.381,0.343,0.381h0.684c0.248,0,0.338-0.145,0.343-0.381
			c0.002-0.15,0.342-5.224,0.342-5.224s-0.004-0.163,0.115-0.163v0.003c0.118,0,0.114,0.164,0.114,0.164s0.339,5.071,0.342,5.22
			c0.005,0.236,0.095,0.381,0.343,0.381h0.684c0.213,0,0.333-0.127,0.342-0.381c0.004-0.117,0.107-5.955,0.115-6.964l0,0l0.09-3.472
			c0,0,0.8,2.265,0.874,2.498c0.048,0.149,0.22,0.473,0.795,0.354C8.543,9.917,8.482,9.479,8.43,9.269z" style="fill: #0089cf;"/>
	</g>
</g>
</svg>
